<svg fill="none" height="300" viewBox="0 0 300 300" width="300" xmlns="http://www.w3.org/2000/svg" xmlns:xlink="http://www.w3.org/1999/xlink"><clipPath id="a"><path d="m60 60h180v180h-180z"/></clipPath><g clip-path="url(#a)" fill="#fff"><path d="m64.3629 143.078 20.4258-9.25 56.8233 25.759c2.634 1.198 5.494 1.818 8.388 1.818s5.754-.62 8.388-1.818l56.827-25.759 20.422 9.257c5.819 2.636 5.819 11.426 0 14.062l-81.896 37.115c-1.175.535-2.452.812-3.743.812s-2.567-.277-3.742-.812l-81.8931-37.122c-5.8183-2.636-5.8183-11.426 0-14.062z" opacity=".4"/><path d="m64.3628 112.031 81.8932 37.161c1.174.536 2.451.814 3.742.814 1.292 0 2.568-.278 3.743-.814l81.892-37.161c5.819-2.64 5.819-11.432 0-14.0621l-81.889-37.1532c-1.175-.5368-2.451-.8146-3.742-.8146-1.292 0-2.568.2778-3.743.8146l-81.8962 37.1532c-5.8184 2.6371-5.8184 11.4331 0 14.0621zm171.2742 75.977-20.345-9.222-56.904 25.794c-2.634 1.198-5.494 1.818-8.388 1.818s-5.754-.62-8.388-1.818l-56.9008-25.794-20.3484 9.222c-5.8184 2.636-5.8184 11.425 0 14.062l81.8932 37.122c1.175.535 2.451.812 3.742.812s2.568-.277 3.743-.812l81.914-37.122c5.8-2.637 5.8-11.426-.018-14.062z"/></g></svg>