<svg fill="none" height="300" viewBox="0 0 300 300" width="300" xmlns="http://www.w3.org/2000/svg" xmlns:xlink="http://www.w3.org/1999/xlink"><clipPath id="a"><path d="m49 60h202.5v180h-202.5z"/></clipPath><g clip-path="url(#a)" fill="#fff"><path d="m228.515 92.5653-33.511 26.8167c.143.824.225 1.657.246 2.493 0 4.476-1.778 8.768-4.943 11.932-3.164 3.165-7.456 4.943-11.932 4.943s-8.768-1.778-11.932-4.943c-3.165-3.164-4.943-7.456-4.943-11.932.02-.837.104-1.671.25-2.496l-33.515-26.8137c-3.313 1.3581-6.988 1.5551-10.427.559l-35.6838 35.6837c.8943 3.401.7012 6.997-.552 10.283s-3.5037 6.097-6.4357 8.039c-2.9321 1.942-6.3985 2.917-9.9129 2.788-3.5145-.128-6.9006-1.353-9.6832-3.504-2.7827-2.15-4.8222-5.118-5.8325-8.486-1.0103-3.369-.9406-6.969.1992-10.296 1.1399-3.327 3.2927-6.214 6.1564-8.255 2.8638-2.041 6.2947-3.135 9.8115-3.127 1.4601.02 2.9114.231 4.3172.626l35.6838-35.6838c-.395-1.4058-.606-2.857-.626-4.3172 0-4.4755 1.778-8.7677 4.943-11.9324 3.164-3.1647 7.456-4.9426 11.932-4.9426s8.768 1.7779 11.932 4.9426c3.165 3.1647 4.943 7.4569 4.943 11.9324-.02.8372-.104 1.6715-.25 2.4961l33.511 26.8099c3.921-1.579 8.3-1.579 12.221 0l33.518-26.8134c-.144-.8236-.228-1.6567-.25-2.4926-.027-3.6402 1.115-7.1931 3.258-10.1357 2.144-2.9426 5.175-5.1196 8.648-6.2106s7.204-1.0385 10.645.1499 6.41 3.4499 8.469 6.4517c2.06 3.0019 3.101 6.5855 2.972 10.2235-.13 3.6381-1.424 7.1385-3.691 9.9862-2.268 2.8478-5.39 4.8923-8.907 5.833-3.517.9406-7.243.7276-10.629-.6077z" opacity=".4"/><path d="m189.625 172.5h-22.5c-1.492 0-2.923.593-3.977 1.648-1.055 1.054-1.648 2.485-1.648 3.977v56.25c0 1.492.593 2.923 1.648 3.977 1.054 1.055 2.485 1.648 3.977 1.648h22.5c1.492 0 2.923-.593 3.977-1.648 1.055-1.054 1.648-2.485 1.648-3.977v-56.25c0-1.492-.593-2.923-1.648-3.977-1.054-1.055-2.485-1.648-3.977-1.648zm56.25-45h-22.5c-1.492 0-2.923.593-3.977 1.648-1.055 1.054-1.648 2.485-1.648 3.977v101.25c0 1.492.593 2.923 1.648 3.977 1.054 1.055 2.485 1.648 3.977 1.648h22.5c1.492 0 2.923-.593 3.977-1.648 1.055-1.054 1.648-2.485 1.648-3.977v-101.25c0-1.492-.593-2.923-1.648-3.977-1.054-1.055-2.485-1.648-3.977-1.648zm-112.5 0h-22.5c-1.492 0-2.923.593-3.977 1.648-1.055 1.054-1.648 2.485-1.648 3.977v101.25c0 1.492.593 2.923 1.648 3.977 1.054 1.055 2.485 1.648 3.977 1.648h22.5c1.492 0 2.923-.593 3.977-1.648 1.055-1.054 1.648-2.485 1.648-3.977v-101.25c0-1.492-.593-2.923-1.648-3.977-1.054-1.055-2.485-1.648-3.977-1.648zm-56.25 56.25h-22.5c-1.4918 0-2.9226.593-3.9775 1.648-1.0549 1.054-1.6475 2.485-1.6475 3.977v45c0 1.492.5926 2.923 1.6475 3.977 1.0549 1.055 2.4857 1.648 3.9775 1.648h22.5c1.4918 0 2.9226-.593 3.9775-1.648 1.0549-1.054 1.6475-2.485 1.6475-3.977v-45c0-1.492-.5926-2.923-1.6475-3.977-1.0549-1.055-2.4857-1.648-3.9775-1.648z"/></g></svg>