<svg fill="none" height="300" viewBox="0 0 300 300" width="300" xmlns="http://www.w3.org/2000/svg" xmlns:xlink="http://www.w3.org/1999/xlink"><clipPath id="a"><path d="m60 60h180v180h-180z"/></clipPath><g clip-path="url(#a)" fill="#fff"><path d="m208.767 125.595 8.733-20.947 20.946-8.7324c.468-.2332.862-.5924 1.137-1.037.275-.4447.421-.9572.421-1.4802 0-.5229-.146-1.0355-.421-1.4801-.275-.4447-.669-.8038-1.137-1.037l-20.946-8.7329-8.733-20.9461c-.233-.468-.592-.8617-1.037-1.1369-.444-.2752-.957-.421-1.48-.421s-1.035.1458-1.48.421-.804.6689-1.037 1.1369l-8.733 20.9461-20.946 8.7329c-.468.2332-.862.5923-1.137 1.037-.275.4446-.421.9572-.421 1.4801 0 .523.146 1.0355.421 1.4802.275.4446.669.8038 1.137 1.037l20.946 8.7324 8.733 20.947c.233.468.592.861 1.037 1.136.445.276.957.421 1.48.421s1.036-.145 1.48-.421c.445-.275.804-.668 1.037-1.136zm-5.034 48.107-8.733 20.946-20.946 8.733c-.468.234-.862.593-1.137 1.037-.275.445-.421.958-.421 1.48 0 .523.146 1.036.421 1.481.275.444.669.803 1.137 1.037l20.946 8.732 8.733 20.947c.233.468.592.861 1.037 1.136.445.276.957.421 1.48.421s1.036-.145 1.48-.421c.445-.275.804-.668 1.037-1.136l8.733-20.947 20.946-8.732c.468-.234.862-.593 1.137-1.037.275-.445.421-.958.421-1.481 0-.522-.146-1.035-.421-1.48-.275-.444-.669-.803-1.137-1.037l-20.946-8.733-8.733-20.946c-.233-.468-.592-.861-1.037-1.137-.444-.275-.957-.421-1.48-.421s-1.035.146-1.48.421c-.445.276-.804.669-1.037 1.137z" opacity=".4"/><path d="m195 149.522c-.001-1.045-.292-2.07-.841-2.959-.548-.889-1.333-1.609-2.267-2.079l-39.575-19.825-19.786-39.6453c-1.913-3.8215-8.153-3.8215-10.062 0l-19.786 39.6453-39.5752 19.825c-.9388.465-1.729 1.184-2.2814 2.074-.5524.891-.8451 1.918-.8451 2.966s.2927 2.075.8451 2.965 1.3426 1.609 2.2814 2.074l39.5752 19.825 19.786 39.646c.467.934 1.185 1.719 2.074 2.269.889.549 1.912.839 2.957.839s2.068-.29 2.957-.839c.889-.55 1.607-1.335 2.074-2.269l19.786-39.646 39.575-19.818c.935-.471 1.721-1.192 2.269-2.084.549-.891.84-1.917.839-2.964z"/></g></svg>