<svg fill="none" height="300" viewBox="0 0 300 300" width="300" xmlns="http://www.w3.org/2000/svg" xmlns:xlink="http://www.w3.org/1999/xlink"><clipPath id="a"><path d="m83 60h135v180h-135z"/></clipPath><g clip-path="url(#a)" fill="#fff"><path d="m198.312 137.46v1.29c0 11.25-2.351 16.615-7.031 22.43-9.914 12.304-26.718 13.886-41.554 15.258-9.036.843-17.543 1.617-23.239 4.5-1.343.682-3.252 2.264-4.725 4.9-6.072-2.477-12.818-2.759-19.075-.798v-70.08c5.493 1.72 11.381 1.72 16.874 0v50.625c8.403-4.043 18.668-5.028 28.583-5.942 12.621-1.16 24.539-2.285 29.953-9.035 2.229-2.752 3.34-6.222 3.34-11.847v-1.291c5.493 1.721 11.381 1.721 16.874 0z" opacity=".4"/><path d="m111.125 60c-5.563 0-11 1.6495-15.6254 4.7399-4.6251 3.0904-8.23 7.483-10.3587 12.6221-2.1287 5.1392-2.6857 10.7942-1.6005 16.2499s3.7639 10.4671 7.6972 14.4001c3.9334 3.934 8.9444 6.612 14.4004 7.698 5.456 1.085 11.111.528 16.25-1.601s9.532-5.733 12.622-10.359c3.09-4.6247 4.74-10.0624 4.74-15.625 0-7.4592-2.963-14.6129-8.238-19.8874-5.274-5.2744-12.428-8.2376-19.887-8.2376zm0 33.75c-1.113 0-2.2-.3299-3.125-.948s-1.646-1.4966-2.072-2.5244-.537-2.1588-.32-3.25c.217-1.0911.753-2.0934 1.54-2.8801.786-.7866 1.788-1.3224 2.88-1.5394 1.091-.2171 2.222-.1057 3.25.3201 1.027.4257 1.906 1.1467 2.524 2.0717s.948 2.0126.948 3.1251c0 1.4918-.593 2.9226-1.648 3.9775-1.054 1.0549-2.485 1.6475-3.977 1.6475zm0 90c-5.563 0-11 1.649-15.6254 4.74-4.6251 3.09-8.23 7.483-10.3587 12.622s-2.6857 10.794-1.6005 16.25 3.7639 10.467 7.6972 14.4c3.9334 3.934 8.9444 6.612 14.4004 7.698 5.456 1.085 11.111.528 16.25-1.601s9.532-5.733 12.622-10.359c3.09-4.625 4.74-10.062 4.74-15.625 0-7.459-2.963-14.613-8.238-19.887-5.274-5.275-12.428-8.238-19.887-8.238zm0 33.75c-1.113 0-2.2-.33-3.125-.948s-1.646-1.497-2.072-2.524c-.426-1.028-.537-2.159-.32-3.25.217-1.092.753-2.094 1.54-2.88.786-.787 1.788-1.323 2.88-1.54 1.091-.217 2.222-.106 3.25.32 1.027.426 1.906 1.147 2.524 2.072s.948 2.012.948 3.125c0 1.492-.593 2.923-1.648 3.977-1.054 1.055-2.485 1.648-3.977 1.648zm78.75-135c-5.563 0-11 1.6495-15.625 4.7399-4.626 3.0904-8.23 7.483-10.359 12.6221-2.129 5.139-2.686 10.794-1.601 16.25 1.086 5.456 3.764 10.467 7.698 14.4 3.933 3.934 8.944 6.612 14.4 7.698 5.456 1.085 11.111.528 16.25-1.601s9.532-5.733 12.622-10.359c3.09-4.625 4.74-10.062 4.74-15.625 0-3.693-.727-7.351-2.141-10.763-1.413-3.4123-3.485-6.5127-6.097-9.1244-2.611-2.6116-5.712-4.6833-9.124-6.0967s-7.07-2.1409-10.763-2.1409zm0 33.75c-1.113 0-2.2-.33-3.125-.948s-1.646-1.497-2.072-2.524c-.426-1.028-.537-2.159-.32-3.25.217-1.092.753-2.094 1.54-2.88.786-.787 1.788-1.323 2.88-1.54 1.091-.217 2.222-.106 3.25.32 1.027.426 1.906 1.147 2.524 2.072s.948 2.012.948 3.125c0 1.492-.593 2.923-1.648 3.977-1.054 1.055-2.485 1.648-3.977 1.648z"/></g></svg>