<svg width="300" height="300" viewBox="0 0 300 300" fill="none" xmlns="http://www.w3.org/2000/svg"><g clip-path="url(#clip0)"><rect width="300" height="300" fill="#000"/><path d="M13.8301 17.1465V17.1953H16.5645V17.1465C16.5645 15.8477 17.5703 14.8906 18.9375 14.8906C20.2461 14.8906 21.1738 15.7305 21.1738 16.7852C21.1738 17.7617 20.7344 18.4746 19.3086 19.9004L13.9961 25.0176V27H24.2402V24.6562H17.8828V24.5977L21.3203 21.2871C22.873 19.7441 24.0449 18.4258 24.0449 16.668C24.0449 14.3145 22.0039 12.5957 19.0352 12.5957C15.959 12.5957 13.8301 14.4805 13.8301 17.1465ZM31.5254 27.3125C35.0703 27.3125 37.2188 24.4707 37.2188 19.9199C37.2188 15.3691 35.0508 12.5859 31.5254 12.5859C28 12.5859 25.8223 15.3789 25.8223 19.9297C25.8223 24.4902 27.9805 27.3125 31.5254 27.3125ZM31.5254 24.9492C29.8457 24.9492 28.8203 23.1328 28.8203 19.9297C28.8203 16.7559 29.8652 14.9492 31.5254 14.9492C33.1953 14.9492 34.2207 16.7461 34.2207 19.9297C34.2207 23.1426 33.2051 24.9492 31.5254 24.9492ZM42.4629 27H45.3828V12.9082H42.4531L38.8105 15.4375V18.0938L42.4043 15.6133H42.4629V27ZM49.2793 27H52.375L58.2539 15.2812V12.9082H48.1758V15.252H55.3438V15.3105L49.2793 27ZM73.3613 27H76.4961L71.5938 12.9082H68.127L63.2344 27H66.2617L67.3359 23.582H72.2871L73.3613 27ZM69.7773 15.6035H69.8457L71.6523 21.375H67.9707L69.7773 15.6035ZM77.6973 27H80.5488V20.9941C80.5488 19.6367 81.3594 18.6992 82.6387 18.6992C83.918 18.6992 84.5625 19.4805 84.5625 20.8477V27H87.4141V20.252C87.4141 17.8008 86.1055 16.3359 83.7812 16.3359C82.1699 16.3359 81.0664 17.0977 80.5098 18.3965H80.4512V16.5312H77.6973V27ZM89.2207 27H92.0723V20.9941C92.0723 19.6367 92.8828 18.6992 94.1621 18.6992C95.4414 18.6992 96.0859 19.4805 96.0859 20.8477V27H98.9375V20.252C98.9375 17.8008 97.6289 16.3359 95.3047 16.3359C93.6934 16.3359 92.5898 17.0977 92.0332 18.3965H91.9746V16.5312H89.2207V27ZM110.412 16.5312H107.561V22.5273C107.561 23.9141 106.77 24.8223 105.5 24.8223C104.24 24.8223 103.547 24.0801 103.547 22.6836V16.5312H100.695V23.2793C100.695 25.7207 102.199 27.1953 104.465 27.1953C106.047 27.1953 107.082 26.4336 107.6 25.1152H107.658V27H110.412V16.5312ZM116.311 25.1055C115.344 25.1055 114.699 24.6172 114.699 23.8359C114.699 23.0938 115.305 22.6152 116.369 22.5371L118.576 22.4004V23.1621C118.576 24.2949 117.551 25.1055 116.311 25.1055ZM115.373 27.166C116.682 27.166 117.98 26.5117 118.566 25.3984H118.625V27H121.379V19.8027C121.379 17.6934 119.631 16.3066 116.945 16.3066C114.172 16.3066 112.443 17.7031 112.336 19.7344H114.943C115.08 18.9629 115.754 18.4355 116.818 18.4355C117.893 18.4355 118.576 19.002 118.576 19.9785V20.6719L115.939 20.8281C113.332 20.9844 111.867 22.0879 111.867 23.9922C111.867 25.877 113.381 27.166 115.373 27.166ZM123.293 27H126.145V12.9082H123.293V27ZM132.277 12.9082V27H135.227V22.5566H137.863C140.832 22.5566 142.893 20.623 142.893 17.7324C142.893 14.832 140.9 12.9082 138.01 12.9082H132.277ZM135.227 15.2422H137.229C138.918 15.2422 139.895 16.1406 139.895 17.7422C139.895 19.3535 138.908 20.252 137.219 20.252H135.227V15.2422ZM144.396 27H147.248V21.1504C147.248 19.6758 148.068 18.8164 149.475 18.8164C149.885 18.8164 150.275 18.8848 150.51 18.9824V16.4727C150.314 16.4141 150.031 16.3652 149.699 16.3652C148.469 16.3652 147.58 17.0879 147.209 18.416H147.15V16.5312H144.396V27ZM156.027 18.416C157.297 18.416 158.166 19.334 158.225 20.6719H153.781C153.879 19.3633 154.777 18.416 156.027 18.416ZM158.264 23.7969C158 24.5977 157.199 25.1152 156.154 25.1152C154.699 25.1152 153.752 24.0898 153.752 22.5957V22.4199H160.969V21.5508C160.969 18.3672 159.045 16.3066 155.998 16.3066C152.902 16.3066 150.949 18.4746 150.949 21.8145C150.949 25.1641 152.883 27.2246 156.105 27.2246C158.693 27.2246 160.568 25.8477 160.881 23.7969H158.264ZM166.33 27.166C167.873 27.166 169.084 26.3555 169.592 25.2031H169.641V27H172.453V12.9082H169.602V18.3281H169.543C169.035 17.166 167.863 16.3652 166.35 16.3652C163.723 16.3652 162.062 18.4258 162.062 21.7461C162.062 25.0957 163.713 27.166 166.33 27.166ZM167.297 18.6504C168.713 18.6504 169.621 19.8613 169.621 21.7656C169.621 23.6797 168.713 24.8711 167.297 24.8711C165.861 24.8711 164.982 23.6895 164.982 21.7656C164.982 19.8516 165.861 18.6504 167.297 18.6504ZM174.406 27H177.258V16.5312H174.406V27ZM175.832 15.3789C176.691 15.3789 177.355 14.7246 177.355 13.9043C177.355 13.0742 176.691 12.4297 175.832 12.4297C174.973 12.4297 174.309 13.0742 174.309 13.9043C174.309 14.7246 174.973 15.3789 175.832 15.3789ZM188.674 20.4277C188.547 18.0547 186.75 16.3066 183.918 16.3066C180.783 16.3066 178.781 18.3965 178.781 21.7559C178.781 25.1738 180.783 27.2246 183.938 27.2246C186.691 27.2246 188.537 25.6328 188.684 23.1621H186.027C185.852 24.3047 185.109 24.9883 183.967 24.9883C182.551 24.9883 181.672 23.8164 181.672 21.7559C181.672 19.7344 182.551 18.543 183.957 18.543C185.129 18.543 185.861 19.3242 186.027 20.4277H188.674ZM190.822 14.1191V16.5312H189.348V18.6797H190.822V24.1777C190.822 26.2188 191.779 27.0391 194.24 27.0391C194.816 27.0391 195.305 26.9902 195.598 26.9219V24.8223C195.422 24.8516 195.158 24.8711 194.904 24.8711C194.064 24.8711 193.674 24.4902 193.674 23.6895V18.6797H195.607V16.5312H193.674V14.1191H190.822ZM197.219 27H200.07V16.5312H197.219V27ZM198.645 15.3789C199.504 15.3789 200.168 14.7246 200.168 13.9043C200.168 13.0742 199.504 12.4297 198.645 12.4297C197.785 12.4297 197.121 13.0742 197.121 13.9043C197.121 14.7246 197.785 15.3789 198.645 15.3789ZM206.779 27.2246C209.943 27.2246 211.965 25.2031 211.965 21.7559C211.965 18.3574 209.914 16.3066 206.779 16.3066C203.645 16.3066 201.594 18.3672 201.594 21.7559C201.594 25.1934 203.615 27.2246 206.779 27.2246ZM206.779 25.0469C205.373 25.0469 204.484 23.8652 204.484 21.7656C204.484 19.6855 205.393 18.4844 206.779 18.4844C208.166 18.4844 209.064 19.6855 209.064 21.7656C209.064 23.8652 208.176 25.0469 206.779 25.0469ZM213.439 27H216.291V20.9941C216.291 19.6367 217.102 18.6992 218.381 18.6992C219.66 18.6992 220.305 19.4805 220.305 20.8477V27H223.156V20.252C223.156 17.8008 221.848 16.3359 219.523 16.3359C217.912 16.3359 216.809 17.0977 216.252 18.3965H216.193V16.5312H213.439V27ZM224.787 19.6074C224.787 21.1504 225.803 22.1855 227.785 22.6348L229.719 23.0645C230.656 23.2891 231.008 23.582 231.008 24.1094C231.008 24.793 230.354 25.2227 229.27 25.2227C228.137 25.2227 227.443 24.7148 227.307 23.8359H224.523C224.68 25.877 226.398 27.2246 229.191 27.2246C231.955 27.2246 233.85 25.8672 233.85 23.8066C233.85 22.2441 233 21.4141 230.9 20.9453L228.898 20.5156C227.98 20.3008 227.531 19.9492 227.531 19.4316C227.531 18.7578 228.176 18.3086 229.162 18.3086C230.217 18.3086 230.891 18.8262 230.949 19.666H233.576C233.537 17.6348 231.828 16.3066 229.201 16.3066C226.516 16.3066 224.787 17.6152 224.787 19.6074ZM13.8301 43.1465V43.1953H16.5645V43.1465C16.5645 41.8477 17.5703 40.8906 18.9375 40.8906C20.2461 40.8906 21.1738 41.7305 21.1738 42.7852C21.1738 43.7617 20.7344 44.4746 19.3086 45.9004L13.9961 51.0176V53H24.2402V50.6562H17.8828V50.5977L21.3203 47.2871C22.873 45.7441 24.0449 44.4258 24.0449 42.668C24.0449 40.3145 22.0039 38.5957 19.0352 38.5957C15.959 38.5957 13.8301 40.4805 13.8301 43.1465ZM31.5254 53.3125C35.0703 53.3125 37.2188 50.4707 37.2188 45.9199C37.2188 41.3691 35.0508 38.5859 31.5254 38.5859C28 38.5859 25.8223 41.3789 25.8223 45.9297C25.8223 50.4902 27.9805 53.3125 31.5254 53.3125ZM31.5254 50.9492C29.8457 50.9492 28.8203 49.1328 28.8203 45.9297C28.8203 42.7559 29.8652 40.9492 31.5254 40.9492C33.1953 40.9492 34.2207 42.7461 34.2207 45.9297C34.2207 49.1426 33.2051 50.9492 31.5254 50.9492ZM42.4629 53H45.3828V38.9082H42.4531L38.8105 41.4375V44.0938L42.4043 41.6133H42.4629V53ZM54.0742 53.3125C57.4629 53.3125 59.7871 51.6328 59.7871 49.1914C59.7871 47.3359 58.4492 45.9004 56.4766 45.5684V45.5098C58.1172 45.1191 59.2109 43.8594 59.2109 42.3262C59.2109 40.1582 57.1016 38.5957 54.0742 38.5957C51.0566 38.5957 48.9277 40.168 48.9277 42.3164C48.9277 43.8691 50.0312 45.1289 51.6719 45.5098V45.5684C49.709 45.8906 48.3613 47.3262 48.3613 49.1816C48.3613 51.623 50.6562 53.3125 54.0742 53.3125ZM54.0742 51.1641C52.5215 51.1641 51.4375 50.2363 51.4375 48.9668C51.4375 47.6973 52.5215 46.7695 54.0742 46.7695C55.627 46.7695 56.7012 47.6973 56.7012 48.9668C56.7012 50.2363 55.627 51.1641 54.0742 51.1641ZM54.0742 44.6211C52.7656 44.6211 51.8477 43.8008 51.8477 42.6777C51.8477 41.5547 52.7656 40.7246 54.0742 40.7246C55.373 40.7246 56.3008 41.5449 56.3008 42.6777C56.3008 43.8008 55.373 44.6211 54.0742 44.6211ZM74.9629 53H78.0977L73.1953 38.9082H69.7285L64.8359 53H67.8633L68.9375 49.582H73.8887L74.9629 53ZM71.3789 41.6035H71.4473L73.2539 47.375H69.5723L71.3789 41.6035ZM79.2988 53H82.1504V46.9941C82.1504 45.6367 82.9609 44.6992 84.2402 44.6992C85.5195 44.6992 86.1641 45.4805 86.1641 46.8477V53H89.0156V46.252C89.0156 43.8008 87.707 42.3359 85.3828 42.3359C83.7715 42.3359 82.668 43.0977 82.1113 44.3965H82.0527V42.5312H79.2988V53ZM90.8223 53H93.6738V46.9941C93.6738 45.6367 94.4844 44.6992 95.7637 44.6992C97.043 44.6992 97.6875 45.4805 97.6875 46.8477V53H100.539V46.252C100.539 43.8008 99.2305 42.3359 96.9062 42.3359C95.2949 42.3359 94.1914 43.0977 93.6348 44.3965H93.5762V42.5312H90.8223V53ZM112.014 42.5312H109.162V48.5273C109.162 49.9141 108.371 50.8223 107.102 50.8223C105.842 50.8223 105.148 50.0801 105.148 48.6836V42.5312H102.297V49.2793C102.297 51.7207 103.801 53.1953 106.066 53.1953C107.648 53.1953 108.684 52.4336 109.201 51.1152H109.26V53H112.014V42.5312ZM117.912 51.1055C116.945 51.1055 116.301 50.6172 116.301 49.8359C116.301 49.0938 116.906 48.6152 117.971 48.5371L120.178 48.4004V49.1621C120.178 50.2949 119.152 51.1055 117.912 51.1055ZM116.975 53.166C118.283 53.166 119.582 52.5117 120.168 51.3984H120.227V53H122.98V45.8027C122.98 43.6934 121.232 42.3066 118.547 42.3066C115.773 42.3066 114.045 43.7031 113.938 45.7344H116.545C116.682 44.9629 117.355 44.4355 118.42 44.4355C119.494 44.4355 120.178 45.002 120.178 45.9785V46.6719L117.541 46.8281C114.934 46.9844 113.469 48.0879 113.469 49.9922C113.469 51.877 114.982 53.166 116.975 53.166ZM124.895 53H127.746V38.9082H124.895V53ZM133.879 38.9082V53H136.828V48.5566H139.465C142.434 48.5566 144.494 46.623 144.494 43.7324C144.494 40.832 142.502 38.9082 139.611 38.9082H133.879ZM136.828 41.2422H138.83C140.52 41.2422 141.496 42.1406 141.496 43.7422C141.496 45.3535 140.51 46.252 138.82 46.252H136.828V41.2422ZM145.998 53H148.85V47.1504C148.85 45.6758 149.67 44.8164 151.076 44.8164C151.486 44.8164 151.877 44.8848 152.111 44.9824V42.4727C151.916 42.4141 151.633 42.3652 151.301 42.3652C150.07 42.3652 149.182 43.0879 148.811 44.416H148.752V42.5312H145.998V53ZM157.629 44.416C158.898 44.416 159.768 45.334 159.826 46.6719H155.383C155.48 45.3633 156.379 44.416 157.629 44.416ZM159.865 49.7969C159.602 50.5977 158.801 51.1152 157.756 51.1152C156.301 51.1152 155.354 50.0898 155.354 48.5957V48.4199H162.57V47.5508C162.57 44.3672 160.646 42.3066 157.6 42.3066C154.504 42.3066 152.551 44.4746 152.551 47.8145C152.551 51.1641 154.484 53.2246 157.707 53.2246C160.295 53.2246 162.17 51.8477 162.482 49.7969H159.865ZM167.932 53.166C169.475 53.166 170.686 52.3555 171.193 51.2031H171.242V53H174.055V38.9082H171.203V44.3281H171.145C170.637 43.166 169.465 42.3652 167.951 42.3652C165.324 42.3652 163.664 44.4258 163.664 47.7461C163.664 51.0957 165.314 53.166 167.932 53.166ZM168.898 44.6504C170.314 44.6504 171.223 45.8613 171.223 47.7656C171.223 49.6797 170.314 50.8711 168.898 50.8711C167.463 50.8711 166.584 49.6895 166.584 47.7656C166.584 45.8516 167.463 44.6504 168.898 44.6504ZM176.008 53H178.859V42.5312H176.008V53ZM177.434 41.3789C178.293 41.3789 178.957 40.7246 178.957 39.9043C178.957 39.0742 178.293 38.4297 177.434 38.4297C176.574 38.4297 175.91 39.0742 175.91 39.9043C175.91 40.7246 176.574 41.3789 177.434 41.3789ZM190.275 46.4277C190.148 44.0547 188.352 42.3066 185.52 42.3066C182.385 42.3066 180.383 44.3965 180.383 47.7559C180.383 51.1738 182.385 53.2246 185.539 53.2246C188.293 53.2246 190.139 51.6328 190.285 49.1621H187.629C187.453 50.3047 186.711 50.9883 185.568 50.9883C184.152 50.9883 183.273 49.8164 183.273 47.7559C183.273 45.7344 184.152 44.543 185.559 44.543C186.73 44.543 187.463 45.3242 187.629 46.4277H190.275ZM192.424 40.1191V42.5312H190.949V44.6797H192.424V50.1777C192.424 52.2188 193.381 53.0391 195.842 53.0391C196.418 53.0391 196.906 52.9902 197.199 52.9219V50.8223C197.023 50.8516 196.76 50.8711 196.506 50.8711C195.666 50.8711 195.275 50.4902 195.275 49.6895V44.6797H197.209V42.5312H195.275V40.1191H192.424ZM198.82 53H201.672V42.5312H198.82V53ZM200.246 41.3789C201.105 41.3789 201.77 40.7246 201.77 39.9043C201.77 39.0742 201.105 38.4297 200.246 38.4297C199.387 38.4297 198.723 39.0742 198.723 39.9043C198.723 40.7246 199.387 41.3789 200.246 41.3789ZM208.381 53.2246C211.545 53.2246 213.566 51.2031 213.566 47.7559C213.566 44.3574 211.516 42.3066 208.381 42.3066C205.246 42.3066 203.195 44.3672 203.195 47.7559C203.195 51.1934 205.217 53.2246 208.381 53.2246ZM208.381 51.0469C206.975 51.0469 206.086 49.8652 206.086 47.7656C206.086 45.6855 206.994 44.4844 208.381 44.4844C209.768 44.4844 210.666 45.6855 210.666 47.7656C210.666 49.8652 209.777 51.0469 208.381 51.0469ZM215.041 53H217.893V46.9941C217.893 45.6367 218.703 44.6992 219.982 44.6992C221.262 44.6992 221.906 45.4805 221.906 46.8477V53H224.758V46.252C224.758 43.8008 223.449 42.3359 221.125 42.3359C219.514 42.3359 218.41 43.0977 217.854 44.3965H217.795V42.5312H215.041V53ZM226.389 45.6074C226.389 47.1504 227.404 48.1855 229.387 48.6348L231.32 49.0645C232.258 49.2891 232.609 49.582 232.609 50.1094C232.609 50.793 231.955 51.2227 230.871 51.2227C229.738 51.2227 229.045 50.7148 228.908 49.8359H226.125C226.281 51.877 228 53.2246 230.793 53.2246C233.557 53.2246 235.451 51.8672 235.451 49.8066C235.451 48.2441 234.602 47.4141 232.502 46.9453L230.5 46.5156C229.582 46.3008 229.133 45.9492 229.133 45.4316C229.133 44.7578 229.777 44.3086 230.764 44.3086C231.818 44.3086 232.492 44.8262 232.551 45.666H235.178C235.139 43.6348 233.43 42.3066 230.803 42.3066C228.117 42.3066 226.389 43.6152 226.389 45.6074ZM23.4004 79H26.5352L21.6328 64.9082H18.166L13.2734 79H16.3008L17.375 75.582H22.3262L23.4004 79ZM19.8164 67.6035H19.8848L21.6914 73.375H18.0098L19.8164 67.6035ZM37.0527 68.5312H34.2012V74.5273C34.2012 75.9141 33.4102 76.8223 32.1406 76.8223C30.8809 76.8223 30.1875 76.0801 30.1875 74.6836V68.5312H27.3359V75.2793C27.3359 77.7207 28.8398 79.1953 31.1055 79.1953C32.6875 79.1953 33.7227 78.4336 34.2402 77.1152H34.2988V79H37.0527V68.5312ZM42.7949 79.166C44.3379 79.166 45.5488 78.3555 46.0566 77.2031H46.1055V79H48.918V64.9082H46.0664V70.3281H46.0078C45.5 69.166 44.3281 68.3652 42.8145 68.3652C40.1875 68.3652 38.5273 70.4258 38.5273 73.7461C38.5273 77.0957 40.1777 79.166 42.7949 79.166ZM43.7617 70.6504C45.1777 70.6504 46.0859 71.8613 46.0859 73.7656C46.0859 75.6797 45.1777 76.8711 43.7617 76.8711C42.3262 76.8711 41.4473 75.6895 41.4473 73.7656C41.4473 71.8516 42.3262 70.6504 43.7617 70.6504ZM50.8711 79H53.7227V68.5312H50.8711V79ZM52.2969 67.3789C53.1562 67.3789 53.8203 66.7246 53.8203 65.9043C53.8203 65.0742 53.1562 64.4297 52.2969 64.4297C51.4375 64.4297 50.7734 65.0742 50.7734 65.9043C50.7734 66.7246 51.4375 67.3789 52.2969 67.3789ZM60.4316 79.2246C63.5957 79.2246 65.6172 77.2031 65.6172 73.7559C65.6172 70.3574 63.5664 68.3066 60.4316 68.3066C57.2969 68.3066 55.2461 70.3672 55.2461 73.7559C55.2461 77.1934 57.2676 79.2246 60.4316 79.2246ZM60.4316 77.0469C59.0254 77.0469 58.1367 75.8652 58.1367 73.7656C58.1367 71.6855 59.0449 70.4844 60.4316 70.4844C61.8184 70.4844 62.7168 71.6855 62.7168 73.7656C62.7168 75.8652 61.8281 77.0469 60.4316 77.0469ZM71.3008 64.9082V79H74.25V74.5566H76.8867C79.8555 74.5566 81.916 72.623 81.916 69.7324C81.916 66.832 79.9238 64.9082 77.0332 64.9082H71.3008ZM74.25 67.2422H76.252C77.9414 67.2422 78.918 68.1406 78.918 69.7422C78.918 71.3535 77.9316 72.252 76.2422 72.252H74.25V67.2422ZM83.4199 79H86.2715V73.1504C86.2715 71.6758 87.0918 70.8164 88.498 70.8164C88.9082 70.8164 89.2988 70.8848 89.5332 70.9824V68.4727C89.3379 68.4141 89.0547 68.3652 88.7227 68.3652C87.4922 68.3652 86.6035 69.0879 86.2324 70.416H86.1738V68.5312H83.4199V79ZM95.0508 70.416C96.3203 70.416 97.1895 71.334 97.248 72.6719H92.8047C92.9023 71.3633 93.8008 70.416 95.0508 70.416ZM97.2871 75.7969C97.0234 76.5977 96.2227 77.1152 95.1777 77.1152C93.7227 77.1152 92.7754 76.0898 92.7754 74.5957V74.4199H99.9922V73.5508C99.9922 70.3672 98.0684 68.3066 95.0215 68.3066C91.9258 68.3066 89.9727 70.4746 89.9727 73.8145C89.9727 77.1641 91.9062 79.2246 95.1289 79.2246C97.7168 79.2246 99.5918 77.8477 99.9043 75.7969H97.2871ZM105.354 79.166C106.896 79.166 108.107 78.3555 108.615 77.2031H108.664V79H111.477V64.9082H108.625V70.3281H108.566C108.059 69.166 106.887 68.3652 105.373 68.3652C102.746 68.3652 101.086 70.4258 101.086 73.7461C101.086 77.0957 102.736 79.166 105.354 79.166ZM106.32 70.6504C107.736 70.6504 108.645 71.8613 108.645 73.7656C108.645 75.6797 107.736 76.8711 106.32 76.8711C104.885 76.8711 104.006 75.6895 104.006 73.7656C104.006 71.8516 104.885 70.6504 106.32 70.6504ZM113.43 79H116.281V68.5312H113.43V79ZM114.855 67.3789C115.715 67.3789 116.379 66.7246 116.379 65.9043C116.379 65.0742 115.715 64.4297 114.855 64.4297C113.996 64.4297 113.332 65.0742 113.332 65.9043C113.332 66.7246 113.996 67.3789 114.855 67.3789ZM127.697 72.4277C127.57 70.0547 125.773 68.3066 122.941 68.3066C119.807 68.3066 117.805 70.3965 117.805 73.7559C117.805 77.1738 119.807 79.2246 122.961 79.2246C125.715 79.2246 127.561 77.6328 127.707 75.1621H125.051C124.875 76.3047 124.133 76.9883 122.99 76.9883C121.574 76.9883 120.695 75.8164 120.695 73.7559C120.695 71.7344 121.574 70.543 122.98 70.543C124.152 70.543 124.885 71.3242 125.051 72.4277H127.697ZM129.846 66.1191V68.5312H128.371V70.6797H129.846V76.1777C129.846 78.2188 130.803 79.0391 133.264 79.0391C133.84 79.0391 134.328 78.9902 134.621 78.9219V76.8223C134.445 76.8516 134.182 76.8711 133.928 76.8711C133.088 76.8711 132.697 76.4902 132.697 75.6895V70.6797H134.631V68.5312H132.697V66.1191H129.846ZM136.242 79H139.094V68.5312H136.242V79ZM137.668 67.3789C138.527 67.3789 139.191 66.7246 139.191 65.9043C139.191 65.0742 138.527 64.4297 137.668 64.4297C136.809 64.4297 136.145 65.0742 136.145 65.9043C136.145 66.7246 136.809 67.3789 137.668 67.3789ZM145.803 79.2246C148.967 79.2246 150.988 77.2031 150.988 73.7559C150.988 70.3574 148.938 68.3066 145.803 68.3066C142.668 68.3066 140.617 70.3672 140.617 73.7559C140.617 77.1934 142.639 79.2246 145.803 79.2246ZM145.803 77.0469C144.396 77.0469 143.508 75.8652 143.508 73.7656C143.508 71.6855 144.416 70.4844 145.803 70.4844C147.189 70.4844 148.088 71.6855 148.088 73.7656C148.088 75.8652 147.199 77.0469 145.803 77.0469ZM152.463 79H155.314V72.9941C155.314 71.6367 156.125 70.6992 157.404 70.6992C158.684 70.6992 159.328 71.4805 159.328 72.8477V79H162.18V72.252C162.18 69.8008 160.871 68.3359 158.547 68.3359C156.936 68.3359 155.832 69.0977 155.275 70.3965H155.217V68.5312H152.463V79ZM163.811 71.6074C163.811 73.1504 164.826 74.1855 166.809 74.6348L168.742 75.0645C169.68 75.2891 170.031 75.582 170.031 76.1094C170.031 76.793 169.377 77.2227 168.293 77.2227C167.16 77.2227 166.467 76.7148 166.33 75.8359H163.547C163.703 77.877 165.422 79.2246 168.215 79.2246C170.979 79.2246 172.873 77.8672 172.873 75.8066C172.873 74.2441 172.023 73.4141 169.924 72.9453L167.922 72.5156C167.004 72.3008 166.555 71.9492 166.555 71.4316C166.555 70.7578 167.199 70.3086 168.186 70.3086C169.24 70.3086 169.914 70.8262 169.973 71.666H172.6C172.561 69.6348 170.852 68.3066 168.225 68.3066C165.539 68.3066 163.811 69.6152 163.811 71.6074ZM20.4902 105V93.3398H24.5723V90.9082H13.4688V93.3398H17.541V105H20.4902ZM26.0273 105H28.8789V99.0234C28.8789 97.6465 29.6699 96.6992 31.0176 96.6992C32.3164 96.6992 32.9805 97.5195 32.9805 98.8672V105H35.832V98.2617C35.832 95.8398 34.5039 94.3359 32.1797 94.3359C30.5879 94.3359 29.4453 95.0781 28.8887 96.3965H28.8301V90.9082H26.0273V105ZM42.3555 96.416C43.625 96.416 44.4941 97.334 44.5527 98.6719H40.1094C40.207 97.3633 41.1055 96.416 42.3555 96.416ZM44.5918 101.797C44.3281 102.598 43.5273 103.115 42.4824 103.115C41.0273 103.115 40.0801 102.09 40.0801 100.596V100.42H47.2969V99.5508C47.2969 96.3672 45.373 94.3066 42.3262 94.3066C39.2305 94.3066 37.2773 96.4746 37.2773 99.8145C37.2773 103.164 39.2109 105.225 42.4336 105.225C45.0215 105.225 46.8965 103.848 47.209 101.797H44.5918ZM62.209 105H65.3438L60.4414 90.9082H56.9746L52.082 105H55.1094L56.1836 101.582H61.1348L62.209 105ZM58.625 93.6035H58.6934L60.5 99.375H56.8184L58.625 93.6035ZM66.5938 105H69.4453V94.5312H66.5938V105ZM68.0195 93.3789C68.8789 93.3789 69.543 92.7246 69.543 91.9043C69.543 91.0742 68.8789 90.4297 68.0195 90.4297C67.1602 90.4297 66.4961 91.0742 66.4961 91.9043C66.4961 92.7246 67.1602 93.3789 68.0195 93.3789ZM71.3496 105H74.2012V99.1504C74.2012 97.6758 75.0215 96.8164 76.4277 96.8164C76.8379 96.8164 77.2285 96.8848 77.4629 96.9824V94.4727C77.2676 94.4141 76.9844 94.3652 76.6523 94.3652C75.4219 94.3652 74.5332 95.0879 74.1621 96.416H74.1035V94.5312H71.3496V105ZM78.8789 90.9082V105H81.8281V100.557H84.4648C87.4336 100.557 89.4941 98.623 89.4941 95.7324C89.4941 92.832 87.502 90.9082 84.6113 90.9082H78.8789ZM81.8281 93.2422H83.8301C85.5195 93.2422 86.4961 94.1406 86.4961 95.7422C86.4961 97.3535 85.5098 98.252 83.8203 98.252H81.8281V93.2422ZM95.4512 105.225C98.6152 105.225 100.637 103.203 100.637 99.7559C100.637 96.3574 98.5859 94.3066 95.4512 94.3066C92.3164 94.3066 90.2656 96.3672 90.2656 99.7559C90.2656 103.193 92.2871 105.225 95.4512 105.225ZM95.4512 103.047C94.0449 103.047 93.1562 101.865 93.1562 99.7656C93.1562 97.6855 94.0645 96.4844 95.4512 96.4844C96.8379 96.4844 97.7363 97.6855 97.7363 99.7656C97.7363 101.865 96.8477 103.047 95.4512 103.047ZM116.701 94.5312H113.889L112.297 102.295H112.238L110.373 94.5312H107.639L105.783 102.295H105.725L104.143 94.5312H101.271L104.055 105H107.053L108.938 97.5977H108.996L110.891 105H113.928L116.701 94.5312ZM122.355 96.416C123.625 96.416 124.494 97.334 124.553 98.6719H120.109C120.207 97.3633 121.105 96.416 122.355 96.416ZM124.592 101.797C124.328 102.598 123.527 103.115 122.482 103.115C121.027 103.115 120.08 102.09 120.08 100.596V100.42H127.297V99.5508C127.297 96.3672 125.373 94.3066 122.326 94.3066C119.23 94.3066 117.277 96.4746 117.277 99.8145C117.277 103.164 119.211 105.225 122.434 105.225C125.021 105.225 126.896 103.848 127.209 101.797H124.592ZM128.771 105H131.623V99.1504C131.623 97.6758 132.443 96.8164 133.85 96.8164C134.26 96.8164 134.65 96.8848 134.885 96.9824V94.4727C134.689 94.4141 134.406 94.3652 134.074 94.3652C132.844 94.3652 131.955 95.0879 131.584 96.416H131.525V94.5312H128.771V105ZM152.863 99.082V97.4902H146.926V99.6387H149.992L149.982 99.8633C149.924 101.611 148.586 102.793 146.662 102.793C144.318 102.793 142.834 100.928 142.834 97.8711C142.834 94.873 144.23 93.1055 146.555 93.1055C148.146 93.1055 149.348 93.9844 149.777 95.459H152.736C152.316 92.6074 149.836 90.6641 146.545 90.6641C142.404 90.6641 139.826 93.3984 139.826 97.9102C139.826 102.49 142.404 105.244 146.613 105.244C150.539 105.244 152.863 102.92 152.863 99.082ZM158.518 103.105C157.551 103.105 156.906 102.617 156.906 101.836C156.906 101.094 157.512 100.615 158.576 100.537L160.783 100.4V101.162C160.783 102.295 159.758 103.105 158.518 103.105ZM157.58 105.166C158.889 105.166 160.188 104.512 160.773 103.398H160.832V105H163.586V97.8027C163.586 95.6934 161.838 94.3066 159.152 94.3066C156.379 94.3066 154.65 95.7031 154.543 97.7344H157.15C157.287 96.9629 157.961 96.4355 159.025 96.4355C160.1 96.4355 160.783 97.002 160.783 97.9785V98.6719L158.146 98.8281C155.539 98.9844 154.074 100.088 154.074 101.992C154.074 103.877 155.588 105.166 157.58 105.166ZM165.432 105H168.283V98.6816C168.283 97.5098 169.016 96.6895 170.1 96.6895C171.154 96.6895 171.789 97.3535 171.789 98.4766V105H174.533V98.6426C174.533 97.4805 175.246 96.6895 176.33 96.6895C177.434 96.6895 178.039 97.3535 178.039 98.5645V105H180.891V97.8516C180.891 95.7422 179.514 94.3359 177.463 94.3359C175.93 94.3359 174.68 95.166 174.211 96.4844H174.152C173.801 95.1172 172.746 94.3359 171.232 94.3359C169.807 94.3359 168.684 95.166 168.244 96.4258H168.186V94.5312H165.432V105ZM187.395 96.416C188.664 96.416 189.533 97.334 189.592 98.6719H185.148C185.246 97.3633 186.145 96.416 187.395 96.416ZM189.631 101.797C189.367 102.598 188.566 103.115 187.521 103.115C186.066 103.115 185.119 102.09 185.119 100.596V100.42H192.336V99.5508C192.336 96.3672 190.412 94.3066 187.365 94.3066C184.27 94.3066 182.316 96.4746 182.316 99.8145C182.316 103.164 184.25 105.225 187.473 105.225C190.061 105.225 191.936 103.848 192.248 101.797H189.631ZM13.8301 121.146V121.195H16.5645V121.146C16.5645 119.848 17.5703 118.891 18.9375 118.891C20.2461 118.891 21.1738 119.73 21.1738 120.785C21.1738 121.762 20.7344 122.475 19.3086 123.9L13.9961 129.018V131H24.2402V128.656H17.8828V128.598L21.3203 125.287C22.873 123.744 24.0449 122.426 24.0449 120.668C24.0449 118.314 22.0039 116.596 19.0352 116.596C15.959 116.596 13.8301 118.48 13.8301 121.146ZM31.5254 131.312C35.0703 131.312 37.2188 128.471 37.2188 123.92C37.2188 119.369 35.0508 116.586 31.5254 116.586C28 116.586 25.8223 119.379 25.8223 123.93C25.8223 128.49 27.9805 131.312 31.5254 131.312ZM31.5254 128.949C29.8457 128.949 28.8203 127.133 28.8203 123.93C28.8203 120.756 29.8652 118.949 31.5254 118.949C33.1953 118.949 34.2207 120.746 34.2207 123.93C34.2207 127.143 33.2051 128.949 31.5254 128.949ZM42.4629 131H45.3828V116.908H42.4531L38.8105 119.438V122.094L42.4043 119.613H42.4629V131ZM54.0742 131.312C57.4629 131.312 59.7871 129.633 59.7871 127.191C59.7871 125.336 58.4492 123.9 56.4766 123.568V123.51C58.1172 123.119 59.2109 121.859 59.2109 120.326C59.2109 118.158 57.1016 116.596 54.0742 116.596C51.0566 116.596 48.9277 118.168 48.9277 120.316C48.9277 121.869 50.0312 123.129 51.6719 123.51V123.568C49.709 123.891 48.3613 125.326 48.3613 127.182C48.3613 129.623 50.6562 131.312 54.0742 131.312ZM54.0742 129.164C52.5215 129.164 51.4375 128.236 51.4375 126.967C51.4375 125.697 52.5215 124.77 54.0742 124.77C55.627 124.77 56.7012 125.697 56.7012 126.967C56.7012 128.236 55.627 129.164 54.0742 129.164ZM54.0742 122.621C52.7656 122.621 51.8477 121.801 51.8477 120.678C51.8477 119.555 52.7656 118.725 54.0742 118.725C55.373 118.725 56.3008 119.545 56.3008 120.678C56.3008 121.801 55.373 122.621 54.0742 122.621ZM65.5391 131H68.3906V120.531H65.5391V131ZM66.9648 119.379C67.8242 119.379 68.4883 118.725 68.4883 117.904C68.4883 117.074 67.8242 116.43 66.9648 116.43C66.1055 116.43 65.4414 117.074 65.4414 117.904C65.4414 118.725 66.1055 119.379 66.9648 119.379ZM70.5391 116.908V131H73.4883V126.557H76.125C79.0938 126.557 81.1543 124.623 81.1543 121.732C81.1543 118.832 79.1621 116.908 76.2715 116.908H70.5391ZM73.4883 119.242H75.4902C77.1797 119.242 78.1562 120.141 78.1562 121.742C78.1562 123.354 77.1699 124.252 75.4805 124.252H73.4883V119.242ZM82.7266 131H85.5781V125.023C85.5781 123.646 86.3691 122.699 87.7168 122.699C89.0156 122.699 89.6797 123.52 89.6797 124.867V131H92.5312V124.262C92.5312 121.84 91.2031 120.336 88.8789 120.336C87.2871 120.336 86.1445 121.078 85.5879 122.396H85.5293V116.908H82.7266V131ZM99.1621 131.225C102.326 131.225 104.348 129.203 104.348 125.756C104.348 122.357 102.297 120.307 99.1621 120.307C96.0273 120.307 93.9766 122.367 93.9766 125.756C93.9766 129.193 95.998 131.225 99.1621 131.225ZM99.1621 129.047C97.7559 129.047 96.8672 127.865 96.8672 125.766C96.8672 123.686 97.7754 122.484 99.1621 122.484C100.549 122.484 101.447 123.686 101.447 125.766C101.447 127.865 100.559 129.047 99.1621 129.047ZM105.822 131H108.674V124.994C108.674 123.637 109.484 122.699 110.764 122.699C112.043 122.699 112.688 123.48 112.688 124.848V131H115.539V124.252C115.539 121.801 114.23 120.336 111.906 120.336C110.295 120.336 109.191 121.098 108.635 122.396H108.576V120.531H105.822V131ZM122.043 122.416C123.312 122.416 124.182 123.334 124.24 124.672H119.797C119.895 123.363 120.793 122.416 122.043 122.416ZM124.279 127.797C124.016 128.598 123.215 129.115 122.17 129.115C120.715 129.115 119.768 128.09 119.768 126.596V126.42H126.984V125.551C126.984 122.367 125.061 120.307 122.014 120.307C118.918 120.307 116.965 122.475 116.965 125.814C116.965 129.164 118.898 131.225 122.121 131.225C124.709 131.225 126.584 129.848 126.896 127.797H124.279ZM142.004 128.559H135.617V125.004H141.643V122.738H135.617V119.34H142.004V116.908H132.668V131H142.004V128.559ZM153.459 120.531H150.48L148.312 128.48H148.254L146.076 120.531H143.02L146.643 131H149.865L153.459 120.531ZM158.859 122.416C160.129 122.416 160.998 123.334 161.057 124.672H156.613C156.711 123.363 157.609 122.416 158.859 122.416ZM161.096 127.797C160.832 128.598 160.031 129.115 158.986 129.115C157.531 129.115 156.584 128.09 156.584 126.596V126.42H163.801V125.551C163.801 122.367 161.877 120.307 158.83 120.307C155.734 120.307 153.781 122.475 153.781 125.814C153.781 129.164 155.715 131.225 158.938 131.225C161.525 131.225 163.4 129.848 163.713 127.797H161.096ZM165.275 131H168.127V124.994C168.127 123.637 168.938 122.699 170.217 122.699C171.496 122.699 172.141 123.48 172.141 124.848V131H174.992V124.252C174.992 121.801 173.684 120.336 171.359 120.336C169.748 120.336 168.645 121.098 168.088 122.396H168.029V120.531H165.275V131ZM177.561 118.119V120.531H176.086V122.68H177.561V128.178C177.561 130.219 178.518 131.039 180.979 131.039C181.555 131.039 182.043 130.99 182.336 130.922V128.822C182.16 128.852 181.896 128.871 181.643 128.871C180.803 128.871 180.412 128.49 180.412 127.689V122.68H182.346V120.531H180.412V118.119H177.561ZM188.117 116.908V131H191.066V126.557H193.703C196.672 126.557 198.732 124.623 198.732 121.732C198.732 118.832 196.74 116.908 193.85 116.908H188.117ZM191.066 119.242H193.068C194.758 119.242 195.734 120.141 195.734 121.742C195.734 123.354 194.748 124.252 193.059 124.252H191.066V119.242ZM200.236 131H203.088V125.15C203.088 123.676 203.908 122.816 205.314 122.816C205.725 122.816 206.115 122.885 206.35 122.982V120.473C206.154 120.414 205.871 120.365 205.539 120.365C204.309 120.365 203.42 121.088 203.049 122.416H202.99V120.531H200.236V131ZM211.867 122.416C213.137 122.416 214.006 123.334 214.064 124.672H209.621C209.719 123.363 210.617 122.416 211.867 122.416ZM214.104 127.797C213.84 128.598 213.039 129.115 211.994 129.115C210.539 129.115 209.592 128.09 209.592 126.596V126.42H216.809V125.551C216.809 122.367 214.885 120.307 211.838 120.307C208.742 120.307 206.789 122.475 206.789 125.814C206.789 129.164 208.723 131.225 211.945 131.225C214.533 131.225 216.408 129.848 216.721 127.797H214.104ZM222.17 131.166C223.713 131.166 224.924 130.355 225.432 129.203H225.48V131H228.293V116.908H225.441V122.328H225.383C224.875 121.166 223.703 120.365 222.189 120.365C219.562 120.365 217.902 122.426 217.902 125.746C217.902 129.096 219.553 131.166 222.17 131.166ZM223.137 122.65C224.553 122.65 225.461 123.861 225.461 125.766C225.461 127.68 224.553 128.871 223.137 128.871C221.701 128.871 220.822 127.689 220.822 125.766C220.822 123.852 221.701 122.65 223.137 122.65ZM230.246 131H233.098V120.531H230.246V131ZM231.672 119.379C232.531 119.379 233.195 118.725 233.195 117.904C233.195 117.074 232.531 116.43 231.672 116.43C230.812 116.43 230.148 117.074 230.148 117.904C230.148 118.725 230.812 119.379 231.672 119.379ZM244.514 124.428C244.387 122.055 242.59 120.307 239.758 120.307C236.623 120.307 234.621 122.396 234.621 125.756C234.621 129.174 236.623 131.225 239.777 131.225C242.531 131.225 244.377 129.633 244.523 127.162H241.867C241.691 128.305 240.949 128.988 239.807 128.988C238.391 128.988 237.512 127.816 237.512 125.756C237.512 123.734 238.391 122.543 239.797 122.543C240.969 122.543 241.701 123.324 241.867 124.428H244.514ZM246.662 118.119V120.531H245.188V122.68H246.662V128.178C246.662 130.219 247.619 131.039 250.08 131.039C250.656 131.039 251.145 130.99 251.438 130.922V128.822C251.262 128.852 250.998 128.871 250.744 128.871C249.904 128.871 249.514 128.49 249.514 127.689V122.68H251.447V120.531H249.514V118.119H246.662ZM253.059 131H255.91V120.531H253.059V131ZM254.484 119.379C255.344 119.379 256.008 118.725 256.008 117.904C256.008 117.074 255.344 116.43 254.484 116.43C253.625 116.43 252.961 117.074 252.961 117.904C252.961 118.725 253.625 119.379 254.484 119.379ZM262.619 131.225C265.783 131.225 267.805 129.203 267.805 125.756C267.805 122.357 265.754 120.307 262.619 120.307C259.484 120.307 257.434 122.367 257.434 125.756C257.434 129.193 259.455 131.225 262.619 131.225ZM262.619 129.047C261.213 129.047 260.324 127.865 260.324 125.766C260.324 123.686 261.232 122.484 262.619 122.484C264.006 122.484 264.904 123.686 264.904 125.766C264.904 127.865 264.016 129.047 262.619 129.047ZM269.279 131H272.131V124.994C272.131 123.637 272.941 122.699 274.221 122.699C275.5 122.699 276.145 123.48 276.145 124.848V131H278.996V124.252C278.996 121.801 277.688 120.336 275.363 120.336C273.752 120.336 272.648 121.098 272.092 122.396H272.033V120.531H269.279V131ZM280.627 123.607C280.627 125.15 281.643 126.186 283.625 126.635L285.559 127.064C286.496 127.289 286.848 127.582 286.848 128.109C286.848 128.793 286.193 129.223 285.109 129.223C283.977 129.223 283.283 128.715 283.146 127.836H280.363C280.52 129.877 282.238 131.225 285.031 131.225C287.795 131.225 289.689 129.867 289.689 127.807C289.689 126.244 288.84 125.414 286.74 124.945L284.738 124.516C283.82 124.301 283.371 123.949 283.371 123.432C283.371 122.758 284.016 122.309 285.002 122.309C286.057 122.309 286.73 122.826 286.789 123.666H289.416C289.377 121.635 287.668 120.307 285.041 120.307C282.355 120.307 280.627 121.615 280.627 123.607ZM13.8301 147.146V147.195H16.5645V147.146C16.5645 145.848 17.5703 144.891 18.9375 144.891C20.2461 144.891 21.1738 145.73 21.1738 146.785C21.1738 147.762 20.7344 148.475 19.3086 149.9L13.9961 155.018V157H24.2402V154.656H17.8828V154.598L21.3203 151.287C22.873 149.744 24.0449 148.426 24.0449 146.668C24.0449 144.314 22.0039 142.596 19.0352 142.596C15.959 142.596 13.8301 144.48 13.8301 147.146ZM31.5254 157.312C35.0703 157.312 37.2188 154.471 37.2188 149.92C37.2188 145.369 35.0508 142.586 31.5254 142.586C28 142.586 25.8223 145.379 25.8223 149.93C25.8223 154.49 27.9805 157.312 31.5254 157.312ZM31.5254 154.949C29.8457 154.949 28.8203 153.133 28.8203 149.93C28.8203 146.756 29.8652 144.949 31.5254 144.949C33.1953 144.949 34.2207 146.746 34.2207 149.93C34.2207 153.143 33.2051 154.949 31.5254 154.949ZM42.4629 157H45.3828V142.908H42.4531L38.8105 145.438V148.094L42.4043 145.613H42.4629V157ZM53.6543 157.312C57.3652 157.312 59.5723 154.5 59.5723 149.832C59.5723 147.947 59.1719 146.365 58.3906 145.164C57.4141 143.494 55.7246 142.586 53.6934 142.586C50.5488 142.586 48.2637 144.656 48.2637 147.557C48.2637 150.232 50.2852 152.205 52.9414 152.205C54.7969 152.205 56.1836 151.277 56.6914 149.9H56.7012H56.7207C56.7207 149.9 56.7402 149.9 56.75 149.9C56.8281 153.133 55.6465 154.979 53.7031 154.979C52.5703 154.979 51.6426 154.354 51.3594 153.406H48.4492C48.8398 155.711 50.959 157.312 53.6543 157.312ZM53.7129 149.988C52.248 149.988 51.1445 148.914 51.1445 147.469C51.1445 146.053 52.2871 144.939 53.7324 144.939C55.168 144.939 56.291 146.053 56.291 147.488C56.291 148.914 55.1777 149.988 53.7129 149.988ZM74.7676 157H77.9023L73 142.908H69.5332L64.6406 157H67.668L68.7422 153.582H73.6934L74.7676 157ZM71.1836 145.604H71.252L73.0586 151.375H69.377L71.1836 145.604ZM79.1035 157H81.9551V150.994C81.9551 149.637 82.7656 148.699 84.0449 148.699C85.3242 148.699 85.9688 149.48 85.9688 150.848V157H88.8203V150.252C88.8203 147.801 87.5117 146.336 85.1875 146.336C83.5762 146.336 82.4727 147.098 81.916 148.396H81.8574V146.531H79.1035V157ZM90.627 157H93.4785V150.994C93.4785 149.637 94.2891 148.699 95.5684 148.699C96.8477 148.699 97.4922 149.48 97.4922 150.848V157H100.344V150.252C100.344 147.801 99.0352 146.336 96.7109 146.336C95.0996 146.336 93.9961 147.098 93.4395 148.396H93.3809V146.531H90.627V157ZM111.818 146.531H108.967V152.527C108.967 153.914 108.176 154.822 106.906 154.822C105.646 154.822 104.953 154.08 104.953 152.684V146.531H102.102V153.279C102.102 155.721 103.605 157.195 105.871 157.195C107.453 157.195 108.488 156.434 109.006 155.115H109.064V157H111.818V146.531ZM117.717 155.105C116.75 155.105 116.105 154.617 116.105 153.836C116.105 153.094 116.711 152.615 117.775 152.537L119.982 152.4V153.162C119.982 154.295 118.957 155.105 117.717 155.105ZM116.779 157.166C118.088 157.166 119.387 156.512 119.973 155.398H120.031V157H122.785V149.803C122.785 147.693 121.037 146.307 118.352 146.307C115.578 146.307 113.85 147.703 113.742 149.734H116.35C116.486 148.963 117.16 148.436 118.225 148.436C119.299 148.436 119.982 149.002 119.982 149.979V150.672L117.346 150.828C114.738 150.984 113.273 152.088 113.273 153.992C113.273 155.877 114.787 157.166 116.779 157.166ZM124.699 157H127.551V142.908H124.699V157ZM133.684 142.908V157H136.633V152.557H139.27C142.238 152.557 144.299 150.623 144.299 147.732C144.299 144.832 142.307 142.908 139.416 142.908H133.684ZM136.633 145.242H138.635C140.324 145.242 141.301 146.141 141.301 147.742C141.301 149.354 140.314 150.252 138.625 150.252H136.633V145.242ZM145.803 157H148.654V151.15C148.654 149.676 149.475 148.816 150.881 148.816C151.291 148.816 151.682 148.885 151.916 148.982V146.473C151.721 146.414 151.438 146.365 151.105 146.365C149.875 146.365 148.986 147.088 148.615 148.416H148.557V146.531H145.803V157ZM157.434 148.416C158.703 148.416 159.572 149.334 159.631 150.672H155.188C155.285 149.363 156.184 148.416 157.434 148.416ZM159.67 153.797C159.406 154.598 158.605 155.115 157.561 155.115C156.105 155.115 155.158 154.09 155.158 152.596V152.42H162.375V151.551C162.375 148.367 160.451 146.307 157.404 146.307C154.309 146.307 152.355 148.475 152.355 151.814C152.355 155.164 154.289 157.225 157.512 157.225C160.1 157.225 161.975 155.848 162.287 153.797H159.67ZM167.736 157.166C169.279 157.166 170.49 156.355 170.998 155.203H171.047V157H173.859V142.908H171.008V148.328H170.949C170.441 147.166 169.27 146.365 167.756 146.365C165.129 146.365 163.469 148.426 163.469 151.746C163.469 155.096 165.119 157.166 167.736 157.166ZM168.703 148.65C170.119 148.65 171.027 149.861 171.027 151.766C171.027 153.68 170.119 154.871 168.703 154.871C167.268 154.871 166.389 153.689 166.389 151.766C166.389 149.852 167.268 148.65 168.703 148.65ZM175.812 157H178.664V146.531H175.812V157ZM177.238 145.379C178.098 145.379 178.762 144.725 178.762 143.904C178.762 143.074 178.098 142.43 177.238 142.43C176.379 142.43 175.715 143.074 175.715 143.904C175.715 144.725 176.379 145.379 177.238 145.379ZM190.08 150.428C189.953 148.055 188.156 146.307 185.324 146.307C182.189 146.307 180.188 148.396 180.188 151.756C180.188 155.174 182.189 157.225 185.344 157.225C188.098 157.225 189.943 155.633 190.09 153.162H187.434C187.258 154.305 186.516 154.988 185.373 154.988C183.957 154.988 183.078 153.816 183.078 151.756C183.078 149.734 183.957 148.543 185.363 148.543C186.535 148.543 187.268 149.324 187.434 150.428H190.08ZM192.229 144.119V146.531H190.754V148.68H192.229V154.178C192.229 156.219 193.186 157.039 195.646 157.039C196.223 157.039 196.711 156.99 197.004 156.922V154.822C196.828 154.852 196.564 154.871 196.311 154.871C195.471 154.871 195.08 154.49 195.08 153.689V148.68H197.014V146.531H195.08V144.119H192.229ZM198.625 157H201.477V146.531H198.625V157ZM200.051 145.379C200.91 145.379 201.574 144.725 201.574 143.904C201.574 143.074 200.91 142.43 200.051 142.43C199.191 142.43 198.527 143.074 198.527 143.904C198.527 144.725 199.191 145.379 200.051 145.379ZM208.186 157.225C211.35 157.225 213.371 155.203 213.371 151.756C213.371 148.357 211.32 146.307 208.186 146.307C205.051 146.307 203 148.367 203 151.756C203 155.193 205.021 157.225 208.186 157.225ZM208.186 155.047C206.779 155.047 205.891 153.865 205.891 151.766C205.891 149.686 206.799 148.484 208.186 148.484C209.572 148.484 210.471 149.686 210.471 151.766C210.471 153.865 209.582 155.047 208.186 155.047ZM214.846 157H217.697V150.994C217.697 149.637 218.508 148.699 219.787 148.699C221.066 148.699 221.711 149.48 221.711 150.848V157H224.562V150.252C224.562 147.801 223.254 146.336 220.93 146.336C219.318 146.336 218.215 147.098 217.658 148.396H217.6V146.531H214.846V157ZM226.193 149.607C226.193 151.15 227.209 152.186 229.191 152.635L231.125 153.064C232.062 153.289 232.414 153.582 232.414 154.109C232.414 154.793 231.76 155.223 230.676 155.223C229.543 155.223 228.85 154.715 228.713 153.836H225.93C226.086 155.877 227.805 157.225 230.598 157.225C233.361 157.225 235.256 155.867 235.256 153.807C235.256 152.244 234.406 151.414 232.307 150.945L230.305 150.516C229.387 150.301 228.938 149.949 228.938 149.432C228.938 148.758 229.582 148.309 230.568 148.309C231.623 148.309 232.297 148.826 232.355 149.666H234.982C234.943 147.635 233.234 146.307 230.607 146.307C227.922 146.307 226.193 147.615 226.193 149.607ZM13.8301 173.146V173.195H16.5645V173.146C16.5645 171.848 17.5703 170.891 18.9375 170.891C20.2461 170.891 21.1738 171.73 21.1738 172.785C21.1738 173.762 20.7344 174.475 19.3086 175.9L13.9961 181.018V183H24.2402V180.656H17.8828V180.598L21.3203 177.287C22.873 175.744 24.0449 174.426 24.0449 172.668C24.0449 170.314 22.0039 168.596 19.0352 168.596C15.959 168.596 13.8301 170.48 13.8301 173.146ZM31.5254 183.312C35.0703 183.312 37.2188 180.471 37.2188 175.92C37.2188 171.369 35.0508 168.586 31.5254 168.586C28 168.586 25.8223 171.379 25.8223 175.93C25.8223 180.49 27.9805 183.312 31.5254 183.312ZM31.5254 180.949C29.8457 180.949 28.8203 179.133 28.8203 175.93C28.8203 172.756 29.8652 170.949 31.5254 170.949C33.1953 170.949 34.2207 172.746 34.2207 175.93C34.2207 179.143 33.2051 180.949 31.5254 180.949ZM42.4629 183H45.3828V168.908H42.4531L38.8105 171.438V174.094L42.4043 171.613H42.4629V183ZM53.6543 183.312C57.3652 183.312 59.5723 180.5 59.5723 175.832C59.5723 173.947 59.1719 172.365 58.3906 171.164C57.4141 169.494 55.7246 168.586 53.6934 168.586C50.5488 168.586 48.2637 170.656 48.2637 173.557C48.2637 176.232 50.2852 178.205 52.9414 178.205C54.7969 178.205 56.1836 177.277 56.6914 175.9H56.7012H56.7207C56.7207 175.9 56.7402 175.9 56.75 175.9C56.8281 179.133 55.6465 180.979 53.7031 180.979C52.5703 180.979 51.6426 180.354 51.3594 179.406H48.4492C48.8398 181.711 50.959 183.312 53.6543 183.312ZM53.7129 175.988C52.248 175.988 51.1445 174.914 51.1445 173.469C51.1445 172.053 52.2871 170.939 53.7324 170.939C55.168 170.939 56.291 172.053 56.291 173.488C56.291 174.914 55.1777 175.988 53.7129 175.988ZM80.4609 183V168.908H77.043L73.0391 178.898H72.9609L68.957 168.908H65.5391V183H68.166V173.488H68.2441L72.0723 182.863H73.9277L77.7559 173.488H77.834V183H80.4609ZM87.2578 174.416C88.5273 174.416 89.3965 175.334 89.4551 176.672H85.0117C85.1094 175.363 86.0078 174.416 87.2578 174.416ZM89.4941 179.797C89.2305 180.598 88.4297 181.115 87.3848 181.115C85.9297 181.115 84.9824 180.09 84.9824 178.596V178.42H92.1992V177.551C92.1992 174.367 90.2754 172.307 87.2285 172.307C84.1328 172.307 82.1797 174.475 82.1797 177.814C82.1797 181.164 84.1133 183.225 87.3359 183.225C89.9238 183.225 91.7988 181.848 92.1113 179.797H89.4941ZM97.5605 183.166C99.1035 183.166 100.314 182.355 100.822 181.203H100.871V183H103.684V168.908H100.832V174.328H100.773C100.266 173.166 99.0938 172.365 97.5801 172.365C94.9531 172.365 93.293 174.426 93.293 177.746C93.293 181.096 94.9434 183.166 97.5605 183.166ZM98.5273 174.65C99.9434 174.65 100.852 175.861 100.852 177.766C100.852 179.68 99.9434 180.871 98.5273 180.871C97.0918 180.871 96.2129 179.689 96.2129 177.766C96.2129 175.852 97.0918 174.65 98.5273 174.65ZM105.637 183H108.488V172.531H105.637V183ZM107.062 171.379C107.922 171.379 108.586 170.725 108.586 169.904C108.586 169.074 107.922 168.43 107.062 168.43C106.203 168.43 105.539 169.074 105.539 169.904C105.539 170.725 106.203 171.379 107.062 171.379ZM114.436 181.105C113.469 181.105 112.824 180.617 112.824 179.836C112.824 179.094 113.43 178.615 114.494 178.537L116.701 178.4V179.162C116.701 180.295 115.676 181.105 114.436 181.105ZM113.498 183.166C114.807 183.166 116.105 182.512 116.691 181.398H116.75V183H119.504V175.803C119.504 173.693 117.756 172.307 115.07 172.307C112.297 172.307 110.568 173.703 110.461 175.734H113.068C113.205 174.963 113.879 174.436 114.943 174.436C116.018 174.436 116.701 175.002 116.701 175.979V176.672L114.064 176.828C111.457 176.984 109.992 178.088 109.992 179.992C109.992 181.877 111.506 183.166 113.498 183.166ZM134.895 180.559H128.508V177.004H134.533V174.738H128.508V171.34H134.895V168.908H125.559V183H134.895V180.559ZM146.35 172.531H143.371L141.203 180.48H141.145L138.967 172.531H135.91L139.533 183H142.756L146.35 172.531ZM151.75 174.416C153.02 174.416 153.889 175.334 153.947 176.672H149.504C149.602 175.363 150.5 174.416 151.75 174.416ZM153.986 179.797C153.723 180.598 152.922 181.115 151.877 181.115C150.422 181.115 149.475 180.09 149.475 178.596V178.42H156.691V177.551C156.691 174.367 154.768 172.307 151.721 172.307C148.625 172.307 146.672 174.475 146.672 177.814C146.672 181.164 148.605 183.225 151.828 183.225C154.416 183.225 156.291 181.848 156.604 179.797H153.986ZM158.166 183H161.018V176.994C161.018 175.637 161.828 174.699 163.107 174.699C164.387 174.699 165.031 175.48 165.031 176.848V183H167.883V176.252C167.883 173.801 166.574 172.336 164.25 172.336C162.639 172.336 161.535 173.098 160.979 174.396H160.92V172.531H158.166V183ZM170.451 170.119V172.531H168.977V174.68H170.451V180.178C170.451 182.219 171.408 183.039 173.869 183.039C174.445 183.039 174.934 182.99 175.227 182.922V180.822C175.051 180.852 174.787 180.871 174.533 180.871C173.693 180.871 173.303 180.49 173.303 179.689V174.68H175.236V172.531H173.303V170.119H170.451ZM181.008 168.908V183H183.957V178.557H186.594C189.562 178.557 191.623 176.623 191.623 173.732C191.623 170.832 189.631 168.908 186.74 168.908H181.008ZM183.957 171.242H185.959C187.648 171.242 188.625 172.141 188.625 173.742C188.625 175.354 187.639 176.252 185.949 176.252H183.957V171.242ZM193.127 183H195.979V177.15C195.979 175.676 196.799 174.816 198.205 174.816C198.615 174.816 199.006 174.885 199.24 174.982V172.473C199.045 172.414 198.762 172.365 198.43 172.365C197.199 172.365 196.311 173.088 195.939 174.416H195.881V172.531H193.127V183ZM204.758 174.416C206.027 174.416 206.896 175.334 206.955 176.672H202.512C202.609 175.363 203.508 174.416 204.758 174.416ZM206.994 179.797C206.73 180.598 205.93 181.115 204.885 181.115C203.43 181.115 202.482 180.09 202.482 178.596V178.42H209.699V177.551C209.699 174.367 207.775 172.307 204.729 172.307C201.633 172.307 199.68 174.475 199.68 177.814C199.68 181.164 201.613 183.225 204.836 183.225C207.424 183.225 209.299 181.848 209.611 179.797H206.994ZM215.061 183.166C216.604 183.166 217.814 182.355 218.322 181.203H218.371V183H221.184V168.908H218.332V174.328H218.273C217.766 173.166 216.594 172.365 215.08 172.365C212.453 172.365 210.793 174.426 210.793 177.746C210.793 181.096 212.443 183.166 215.061 183.166ZM216.027 174.65C217.443 174.65 218.352 175.861 218.352 177.766C218.352 179.68 217.443 180.871 216.027 180.871C214.592 180.871 213.713 179.689 213.713 177.766C213.713 175.852 214.592 174.65 216.027 174.65ZM223.137 183H225.988V172.531H223.137V183ZM224.562 171.379C225.422 171.379 226.086 170.725 226.086 169.904C226.086 169.074 225.422 168.43 224.562 168.43C223.703 168.43 223.039 169.074 223.039 169.904C223.039 170.725 223.703 171.379 224.562 171.379ZM237.404 176.428C237.277 174.055 235.48 172.307 232.648 172.307C229.514 172.307 227.512 174.396 227.512 177.756C227.512 181.174 229.514 183.225 232.668 183.225C235.422 183.225 237.268 181.633 237.414 179.162H234.758C234.582 180.305 233.84 180.988 232.697 180.988C231.281 180.988 230.402 179.816 230.402 177.756C230.402 175.734 231.281 174.543 232.688 174.543C233.859 174.543 234.592 175.324 234.758 176.428H237.404ZM239.553 170.119V172.531H238.078V174.68H239.553V180.178C239.553 182.219 240.51 183.039 242.971 183.039C243.547 183.039 244.035 182.99 244.328 182.922V180.822C244.152 180.852 243.889 180.871 243.635 180.871C242.795 180.871 242.404 180.49 242.404 179.689V174.68H244.338V172.531H242.404V170.119H239.553ZM245.949 183H248.801V172.531H245.949V183ZM247.375 171.379C248.234 171.379 248.898 170.725 248.898 169.904C248.898 169.074 248.234 168.43 247.375 168.43C246.516 168.43 245.852 169.074 245.852 169.904C245.852 170.725 246.516 171.379 247.375 171.379ZM255.51 183.225C258.674 183.225 260.695 181.203 260.695 177.756C260.695 174.357 258.645 172.307 255.51 172.307C252.375 172.307 250.324 174.367 250.324 177.756C250.324 181.193 252.346 183.225 255.51 183.225ZM255.51 181.047C254.104 181.047 253.215 179.865 253.215 177.766C253.215 175.686 254.123 174.484 255.51 174.484C256.896 174.484 257.795 175.686 257.795 177.766C257.795 179.865 256.906 181.047 255.51 181.047ZM262.17 183H265.021V176.994C265.021 175.637 265.832 174.699 267.111 174.699C268.391 174.699 269.035 175.48 269.035 176.848V183H271.887V176.252C271.887 173.801 270.578 172.336 268.254 172.336C266.643 172.336 265.539 173.098 264.982 174.396H264.924V172.531H262.17V183ZM273.518 175.607C273.518 177.15 274.533 178.186 276.516 178.635L278.449 179.064C279.387 179.289 279.738 179.582 279.738 180.109C279.738 180.793 279.084 181.223 278 181.223C276.867 181.223 276.174 180.715 276.037 179.836H273.254C273.41 181.877 275.129 183.225 277.922 183.225C280.686 183.225 282.58 181.867 282.58 179.807C282.58 178.244 281.73 177.414 279.631 176.945L277.629 176.516C276.711 176.301 276.262 175.949 276.262 175.432C276.262 174.758 276.906 174.309 277.893 174.309C278.947 174.309 279.621 174.826 279.68 175.666H282.307C282.268 173.635 280.559 172.307 277.932 172.307C275.246 172.307 273.518 173.615 273.518 175.607ZM13.8301 199.146V199.195H16.5645V199.146C16.5645 197.848 17.5703 196.891 18.9375 196.891C20.2461 196.891 21.1738 197.73 21.1738 198.785C21.1738 199.762 20.7344 200.475 19.3086 201.9L13.9961 207.018V209H24.2402V206.656H17.8828V206.598L21.3203 203.287C22.873 201.744 24.0449 200.426 24.0449 198.668C24.0449 196.314 22.0039 194.596 19.0352 194.596C15.959 194.596 13.8301 196.48 13.8301 199.146ZM31.5254 209.312C35.0703 209.312 37.2188 206.471 37.2188 201.92C37.2188 197.369 35.0508 194.586 31.5254 194.586C28 194.586 25.8223 197.379 25.8223 201.93C25.8223 206.49 27.9805 209.312 31.5254 209.312ZM31.5254 206.949C29.8457 206.949 28.8203 205.133 28.8203 201.93C28.8203 198.756 29.8652 196.949 31.5254 196.949C33.1953 196.949 34.2207 198.746 34.2207 201.93C34.2207 205.143 33.2051 206.949 31.5254 206.949ZM42.4629 209H45.3828V194.908H42.4531L38.8105 197.438V200.094L42.4043 197.613H42.4629V209ZM53.6543 209.312C57.3652 209.312 59.5723 206.5 59.5723 201.832C59.5723 199.947 59.1719 198.365 58.3906 197.164C57.4141 195.494 55.7246 194.586 53.6934 194.586C50.5488 194.586 48.2637 196.656 48.2637 199.557C48.2637 202.232 50.2852 204.205 52.9414 204.205C54.7969 204.205 56.1836 203.277 56.6914 201.9H56.7012H56.7207C56.7207 201.9 56.7402 201.9 56.75 201.9C56.8281 205.133 55.6465 206.979 53.7031 206.979C52.5703 206.979 51.6426 206.354 51.3594 205.406H48.4492C48.8398 207.711 50.959 209.312 53.6543 209.312ZM53.7129 201.988C52.248 201.988 51.1445 200.914 51.1445 199.469C51.1445 198.053 52.2871 196.939 53.7324 196.939C55.168 196.939 56.291 198.053 56.291 199.488C56.291 200.914 55.1777 201.988 53.7129 201.988ZM73.9766 199.371H74.0645L76.7402 209H79.5234L83.2637 194.908H80.207L77.9805 205.113H77.9023L75.2656 194.908H72.7754L70.1387 205.113H70.0605L67.8438 194.908H64.7871L68.5176 209H71.3008L73.9766 199.371ZM93.293 199.371H93.3809L96.0566 209H98.8398L102.58 194.908H99.5234L97.2969 205.113H97.2188L94.582 194.908H92.0918L89.4551 205.113H89.377L87.1602 194.908H84.1035L87.834 209H90.6172L93.293 199.371ZM104.172 194.908V209H109.553C113.781 209 116.271 206.373 116.271 201.9C116.271 197.428 113.781 194.908 109.553 194.908H104.172ZM107.121 197.34H109.201C111.799 197.34 113.264 198.961 113.264 201.91C113.264 204.957 111.838 206.559 109.201 206.559H107.121V197.34ZM124.406 209.244C127.863 209.244 130.275 207.252 130.607 204.107H127.736C127.424 205.777 126.164 206.803 124.416 206.803C122.16 206.803 120.744 204.947 120.744 201.939C120.744 198.971 122.18 197.105 124.406 197.105C126.125 197.105 127.453 198.238 127.727 199.967H130.598C130.373 196.812 127.795 194.664 124.406 194.664C120.324 194.664 117.736 197.408 117.736 201.949C117.736 206.5 120.305 209.244 124.406 209.244ZM136.398 194.908V209H139.348V204.557H141.984C144.953 204.557 147.014 202.623 147.014 199.732C147.014 196.832 145.021 194.908 142.131 194.908H136.398ZM139.348 197.242H141.35C143.039 197.242 144.016 198.141 144.016 199.742C144.016 201.354 143.029 202.252 141.34 202.252H139.348V197.242ZM148.518 209H151.369V203.15C151.369 201.676 152.189 200.816 153.596 200.816C154.006 200.816 154.396 200.885 154.631 200.982V198.473C154.436 198.414 154.152 198.365 153.82 198.365C152.59 198.365 151.701 199.088 151.33 200.416H151.271V198.531H148.518V209ZM160.148 200.416C161.418 200.416 162.287 201.334 162.346 202.672H157.902C158 201.363 158.898 200.416 160.148 200.416ZM162.385 205.797C162.121 206.598 161.32 207.115 160.275 207.115C158.82 207.115 157.873 206.09 157.873 204.596V204.42H165.09V203.551C165.09 200.367 163.166 198.307 160.119 198.307C157.023 198.307 155.07 200.475 155.07 203.814C155.07 207.164 157.004 209.225 160.227 209.225C162.814 209.225 164.689 207.848 165.002 205.797H162.385ZM170.451 209.166C171.994 209.166 173.205 208.355 173.713 207.203H173.762V209H176.574V194.908H173.723V200.328H173.664C173.156 199.166 171.984 198.365 170.471 198.365C167.844 198.365 166.184 200.426 166.184 203.746C166.184 207.096 167.834 209.166 170.451 209.166ZM171.418 200.65C172.834 200.65 173.742 201.861 173.742 203.766C173.742 205.68 172.834 206.871 171.418 206.871C169.982 206.871 169.104 205.689 169.104 203.766C169.104 201.852 169.982 200.65 171.418 200.65ZM178.527 209H181.379V198.531H178.527V209ZM179.953 197.379C180.812 197.379 181.477 196.725 181.477 195.904C181.477 195.074 180.812 194.43 179.953 194.43C179.094 194.43 178.43 195.074 178.43 195.904C178.43 196.725 179.094 197.379 179.953 197.379ZM192.795 202.428C192.668 200.055 190.871 198.307 188.039 198.307C184.904 198.307 182.902 200.396 182.902 203.756C182.902 207.174 184.904 209.225 188.059 209.225C190.812 209.225 192.658 207.633 192.805 205.162H190.148C189.973 206.305 189.23 206.988 188.088 206.988C186.672 206.988 185.793 205.816 185.793 203.756C185.793 201.734 186.672 200.543 188.078 200.543C189.25 200.543 189.982 201.324 190.148 202.428H192.795ZM194.943 196.119V198.531H193.469V200.68H194.943V206.178C194.943 208.219 195.9 209.039 198.361 209.039C198.938 209.039 199.426 208.99 199.719 208.922V206.822C199.543 206.852 199.279 206.871 199.025 206.871C198.186 206.871 197.795 206.49 197.795 205.689V200.68H199.729V198.531H197.795V196.119H194.943ZM201.34 209H204.191V198.531H201.34V209ZM202.766 197.379C203.625 197.379 204.289 196.725 204.289 195.904C204.289 195.074 203.625 194.43 202.766 194.43C201.906 194.43 201.242 195.074 201.242 195.904C201.242 196.725 201.906 197.379 202.766 197.379ZM210.9 209.225C214.064 209.225 216.086 207.203 216.086 203.756C216.086 200.357 214.035 198.307 210.9 198.307C207.766 198.307 205.715 200.367 205.715 203.756C205.715 207.193 207.736 209.225 210.9 209.225ZM210.9 207.047C209.494 207.047 208.605 205.865 208.605 203.766C208.605 201.686 209.514 200.484 210.9 200.484C212.287 200.484 213.186 201.686 213.186 203.766C213.186 205.865 212.297 207.047 210.9 207.047ZM217.561 209H220.412V202.994C220.412 201.637 221.223 200.699 222.502 200.699C223.781 200.699 224.426 201.48 224.426 202.848V209H227.277V202.252C227.277 199.801 225.969 198.336 223.645 198.336C222.033 198.336 220.93 199.098 220.373 200.396H220.314V198.531H217.561V209ZM228.908 201.607C228.908 203.15 229.924 204.186 231.906 204.635L233.84 205.064C234.777 205.289 235.129 205.582 235.129 206.109C235.129 206.793 234.475 207.223 233.391 207.223C232.258 207.223 231.564 206.715 231.428 205.836H228.645C228.801 207.877 230.52 209.225 233.312 209.225C236.076 209.225 237.971 207.867 237.971 205.807C237.971 204.244 237.121 203.414 235.021 202.945L233.02 202.516C232.102 202.301 231.652 201.949 231.652 201.432C231.652 200.758 232.297 200.309 233.283 200.309C234.338 200.309 235.012 200.826 235.07 201.666H237.697C237.658 199.635 235.949 198.307 233.322 198.307C230.637 198.307 228.908 199.615 228.908 201.607ZM239.299 199.146V199.195H242.033V199.146C242.033 197.848 243.039 196.891 244.406 196.891C245.715 196.891 246.643 197.73 246.643 198.785C246.643 199.762 246.203 200.475 244.777 201.9L239.465 207.018V209H249.709V206.656H243.352V206.598L246.789 203.287C248.342 201.744 249.514 200.426 249.514 198.668C249.514 196.314 247.473 194.596 244.504 194.596C241.428 194.596 239.299 196.48 239.299 199.146ZM256.994 209.312C260.539 209.312 262.688 206.471 262.688 201.92C262.688 197.369 260.52 194.586 256.994 194.586C253.469 194.586 251.291 197.379 251.291 201.93C251.291 206.49 253.449 209.312 256.994 209.312ZM256.994 206.949C255.314 206.949 254.289 205.133 254.289 201.93C254.289 198.756 255.334 196.949 256.994 196.949C258.664 196.949 259.689 198.746 259.689 201.93C259.689 205.143 258.674 206.949 256.994 206.949ZM267.932 209H270.852V194.908H267.922L264.279 197.438V200.094L267.873 197.613H267.932V209ZM279.123 209.312C282.834 209.312 285.041 206.5 285.041 201.832C285.041 199.947 284.641 198.365 283.859 197.164C282.883 195.494 281.193 194.586 279.162 194.586C276.018 194.586 273.732 196.656 273.732 199.557C273.732 202.232 275.754 204.205 278.41 204.205C280.266 204.205 281.652 203.277 282.16 201.9H282.17H282.189C282.189 201.9 282.209 201.9 282.219 201.9C282.297 205.133 281.115 206.979 279.172 206.979C278.039 206.979 277.111 206.354 276.828 205.406H273.918C274.309 207.711 276.428 209.312 279.123 209.312ZM279.182 201.988C277.717 201.988 276.613 200.914 276.613 199.469C276.613 198.053 277.756 196.939 279.201 196.939C280.637 196.939 281.76 198.053 281.76 199.488C281.76 200.914 280.646 201.988 279.182 201.988ZM293.957 209V203.453H299.689V201.119H293.957V197.34H300.236V194.908H291.008V209H293.957ZM305.334 207.105C304.367 207.105 303.723 206.617 303.723 205.836C303.723 205.094 304.328 204.615 305.393 204.537L307.6 204.4V205.162C307.6 206.295 306.574 207.105 305.334 207.105ZM304.396 209.166C305.705 209.166 307.004 208.512 307.59 207.398H307.648V209H310.402V201.803C310.402 199.693 308.654 198.307 305.969 198.307C303.195 198.307 301.467 199.703 301.359 201.734H303.967C304.104 200.963 304.777 200.436 305.842 200.436C306.916 200.436 307.6 201.002 307.6 201.979V202.672L304.963 202.828C302.355 202.984 300.891 204.088 300.891 205.992C300.891 207.877 302.404 209.166 304.396 209.166ZM312.316 209H315.168V194.908H312.316V209ZM317.16 209H320.012V194.908H317.16V209ZM329.094 197.213H331.604C333.068 197.213 333.986 198.092 333.986 199.459C333.986 200.855 333.117 201.705 331.633 201.705H329.094V197.213ZM329.094 203.844H331.457L334.084 209H337.424L334.455 203.404C336.076 202.77 337.014 201.207 337.014 199.4C337.014 196.617 335.158 194.908 331.916 194.908H326.145V209H329.094V203.844ZM338.762 209H341.613V198.531H338.762V209ZM340.188 197.379C341.047 197.379 341.711 196.725 341.711 195.904C341.711 195.074 341.047 194.43 340.188 194.43C339.328 194.43 338.664 195.074 338.664 195.904C338.664 196.725 339.328 197.379 340.188 197.379ZM353.029 202.428C352.902 200.055 351.105 198.307 348.273 198.307C345.139 198.307 343.137 200.396 343.137 203.756C343.137 207.174 345.139 209.225 348.293 209.225C351.047 209.225 352.893 207.633 353.039 205.162H350.383C350.207 206.305 349.465 206.988 348.322 206.988C346.906 206.988 346.027 205.816 346.027 203.756C346.027 201.734 346.906 200.543 348.312 200.543C349.484 200.543 350.217 201.324 350.383 202.428H353.029ZM357.375 202.73H357.336V194.908H354.484V209H357.336V205.543L358.078 204.742L361.076 209H364.357L360.168 203.023L364.162 198.531H360.93L357.375 202.73ZM365.227 209H368.078V198.531H365.227V209ZM366.652 197.379C367.512 197.379 368.176 196.725 368.176 195.904C368.176 195.074 367.512 194.43 366.652 194.43C365.793 194.43 365.129 195.074 365.129 195.904C365.129 196.725 365.793 197.379 366.652 197.379ZM374.68 200.416C375.949 200.416 376.818 201.334 376.877 202.672H372.434C372.531 201.363 373.43 200.416 374.68 200.416ZM376.916 205.797C376.652 206.598 375.852 207.115 374.807 207.115C373.352 207.115 372.404 206.09 372.404 204.596V204.42H379.621V203.551C379.621 200.367 377.697 198.307 374.65 198.307C371.555 198.307 369.602 200.475 369.602 203.814C369.602 207.164 371.535 209.225 374.758 209.225C377.346 209.225 379.221 207.848 379.533 205.797H376.916ZM380.92 201.607C380.92 203.15 381.936 204.186 383.918 204.635L385.852 205.064C386.789 205.289 387.141 205.582 387.141 206.109C387.141 206.793 386.486 207.223 385.402 207.223C384.27 207.223 383.576 206.715 383.439 205.836H380.656C380.812 207.877 382.531 209.225 385.324 209.225C388.088 209.225 389.982 207.867 389.982 205.807C389.982 204.244 389.133 203.414 387.033 202.945L385.031 202.516C384.113 202.301 383.664 201.949 383.664 201.432C383.664 200.758 384.309 200.309 385.295 200.309C386.35 200.309 387.023 200.826 387.082 201.666H389.709C389.67 199.635 387.961 198.307 385.334 198.307C382.648 198.307 380.92 199.615 380.92 201.607ZM13.8301 225.146V225.195H16.5645V225.146C16.5645 223.848 17.5703 222.891 18.9375 222.891C20.2461 222.891 21.1738 223.73 21.1738 224.785C21.1738 225.762 20.7344 226.475 19.3086 227.9L13.9961 233.018V235H24.2402V232.656H17.8828V232.598L21.3203 229.287C22.873 227.744 24.0449 226.426 24.0449 224.668C24.0449 222.314 22.0039 220.596 19.0352 220.596C15.959 220.596 13.8301 222.48 13.8301 225.146ZM31.5254 235.312C35.0703 235.312 37.2188 232.471 37.2188 227.92C37.2188 223.369 35.0508 220.586 31.5254 220.586C28 220.586 25.8223 223.379 25.8223 227.93C25.8223 232.49 27.9805 235.312 31.5254 235.312ZM31.5254 232.949C29.8457 232.949 28.8203 231.133 28.8203 227.93C28.8203 224.756 29.8652 222.949 31.5254 222.949C33.1953 222.949 34.2207 224.746 34.2207 227.93C34.2207 231.143 33.2051 232.949 31.5254 232.949ZM38.7715 225.146V225.195H41.5059V225.146C41.5059 223.848 42.5117 222.891 43.8789 222.891C45.1875 222.891 46.1152 223.73 46.1152 224.785C46.1152 225.762 45.6758 226.475 44.25 227.9L38.9375 233.018V235H49.1816V232.656H42.8242V232.598L46.2617 229.287C47.8145 227.744 48.9863 226.426 48.9863 224.668C48.9863 222.314 46.9453 220.596 43.9766 220.596C40.9004 220.596 38.7715 222.48 38.7715 225.146ZM56.4668 235.312C60.0117 235.312 62.1602 232.471 62.1602 227.92C62.1602 223.369 59.9922 220.586 56.4668 220.586C52.9414 220.586 50.7637 223.379 50.7637 227.93C50.7637 232.49 52.9219 235.312 56.4668 235.312ZM56.4668 232.949C54.7871 232.949 53.7617 231.133 53.7617 227.93C53.7617 224.756 54.8066 222.949 56.4668 222.949C58.1367 222.949 59.1621 224.746 59.1621 227.93C59.1621 231.143 58.1465 232.949 56.4668 232.949ZM77.3457 235H80.4805L75.5781 220.908H72.1113L67.2188 235H70.2461L71.3203 231.582H76.2715L77.3457 235ZM73.7617 223.604H73.8301L75.6367 229.375H71.9551L73.7617 223.604ZM81.6816 235H84.5332V228.994C84.5332 227.637 85.3438 226.699 86.623 226.699C87.9023 226.699 88.5469 227.48 88.5469 228.848V235H91.3984V228.252C91.3984 225.801 90.0898 224.336 87.7656 224.336C86.1543 224.336 85.0508 225.098 84.4941 226.396H84.4355V224.531H81.6816V235ZM93.2051 235H96.0566V228.994C96.0566 227.637 96.8672 226.699 98.1465 226.699C99.4258 226.699 100.07 227.48 100.07 228.848V235H102.922V228.252C102.922 225.801 101.613 224.336 99.2891 224.336C97.6777 224.336 96.5742 225.098 96.0176 226.396H95.959V224.531H93.2051V235ZM114.396 224.531H111.545V230.527C111.545 231.914 110.754 232.822 109.484 232.822C108.225 232.822 107.531 232.08 107.531 230.684V224.531H104.68V231.279C104.68 233.721 106.184 235.195 108.449 235.195C110.031 235.195 111.066 234.434 111.584 233.115H111.643V235H114.396V224.531ZM120.295 233.105C119.328 233.105 118.684 232.617 118.684 231.836C118.684 231.094 119.289 230.615 120.354 230.537L122.561 230.4V231.162C122.561 232.295 121.535 233.105 120.295 233.105ZM119.357 235.166C120.666 235.166 121.965 234.512 122.551 233.398H122.609V235H125.363V227.803C125.363 225.693 123.615 224.307 120.93 224.307C118.156 224.307 116.428 225.703 116.32 227.734H118.928C119.064 226.963 119.738 226.436 120.803 226.436C121.877 226.436 122.561 227.002 122.561 227.979V228.672L119.924 228.828C117.316 228.984 115.852 230.088 115.852 231.992C115.852 233.877 117.365 235.166 119.357 235.166ZM127.277 235H130.129V220.908H127.277V235ZM139.211 223.213H141.721C143.186 223.213 144.104 224.092 144.104 225.459C144.104 226.855 143.234 227.705 141.75 227.705H139.211V223.213ZM139.211 229.844H141.574L144.201 235H147.541L144.572 229.404C146.193 228.77 147.131 227.207 147.131 225.4C147.131 222.617 145.275 220.908 142.033 220.908H136.262V235H139.211V229.844ZM148.879 235H151.73V224.531H148.879V235ZM150.305 223.379C151.164 223.379 151.828 222.725 151.828 221.904C151.828 221.074 151.164 220.43 150.305 220.43C149.445 220.43 148.781 221.074 148.781 221.904C148.781 222.725 149.445 223.379 150.305 223.379ZM163.146 228.428C163.02 226.055 161.223 224.307 158.391 224.307C155.256 224.307 153.254 226.396 153.254 229.756C153.254 233.174 155.256 235.225 158.41 235.225C161.164 235.225 163.01 233.633 163.156 231.162H160.5C160.324 232.305 159.582 232.988 158.439 232.988C157.023 232.988 156.145 231.816 156.145 229.756C156.145 227.734 157.023 226.543 158.43 226.543C159.602 226.543 160.334 227.324 160.5 228.428H163.146ZM167.492 228.73H167.453V220.908H164.602V235H167.453V231.543L168.195 230.742L171.193 235H174.475L170.285 229.023L174.279 224.531H171.047L167.492 228.73ZM175.344 235H178.195V224.531H175.344V235ZM176.77 223.379C177.629 223.379 178.293 222.725 178.293 221.904C178.293 221.074 177.629 220.43 176.77 220.43C175.91 220.43 175.246 221.074 175.246 221.904C175.246 222.725 175.91 223.379 176.77 223.379ZM184.797 226.416C186.066 226.416 186.936 227.334 186.994 228.672H182.551C182.648 227.363 183.547 226.416 184.797 226.416ZM187.033 231.797C186.77 232.598 185.969 233.115 184.924 233.115C183.469 233.115 182.521 232.09 182.521 230.596V230.42H189.738V229.551C189.738 226.367 187.814 224.307 184.768 224.307C181.672 224.307 179.719 226.475 179.719 229.814C179.719 233.164 181.652 235.225 184.875 235.225C187.463 235.225 189.338 233.848 189.65 231.797H187.033ZM191.037 227.607C191.037 229.15 192.053 230.186 194.035 230.635L195.969 231.064C196.906 231.289 197.258 231.582 197.258 232.109C197.258 232.793 196.604 233.223 195.52 233.223C194.387 233.223 193.693 232.715 193.557 231.836H190.773C190.93 233.877 192.648 235.225 195.441 235.225C198.205 235.225 200.1 233.867 200.1 231.807C200.1 230.244 199.25 229.414 197.15 228.945L195.148 228.516C194.23 228.301 193.781 227.949 193.781 227.432C193.781 226.758 194.426 226.309 195.412 226.309C196.467 226.309 197.141 226.826 197.199 227.666H199.826C199.787 225.635 198.078 224.307 195.451 224.307C192.766 224.307 191.037 225.615 191.037 227.607ZM13.8301 251.146V251.195H16.5645V251.146C16.5645 249.848 17.5703 248.891 18.9375 248.891C20.2461 248.891 21.1738 249.73 21.1738 250.785C21.1738 251.762 20.7344 252.475 19.3086 253.9L13.9961 259.018V261H24.2402V258.656H17.8828V258.598L21.3203 255.287C22.873 253.744 24.0449 252.426 24.0449 250.668C24.0449 248.314 22.0039 246.596 19.0352 246.596C15.959 246.596 13.8301 248.48 13.8301 251.146ZM31.5254 261.312C35.0703 261.312 37.2188 258.471 37.2188 253.92C37.2188 249.369 35.0508 246.586 31.5254 246.586C28 246.586 25.8223 249.379 25.8223 253.93C25.8223 258.49 27.9805 261.312 31.5254 261.312ZM31.5254 258.949C29.8457 258.949 28.8203 257.133 28.8203 253.93C28.8203 250.756 29.8652 248.949 31.5254 248.949C33.1953 248.949 34.2207 250.746 34.2207 253.93C34.2207 257.143 33.2051 258.949 31.5254 258.949ZM38.7715 251.146V251.195H41.5059V251.146C41.5059 249.848 42.5117 248.891 43.8789 248.891C45.1875 248.891 46.1152 249.73 46.1152 250.785C46.1152 251.762 45.6758 252.475 44.25 253.9L38.9375 259.018V261H49.1816V258.656H42.8242V258.598L46.2617 255.287C47.8145 253.744 48.9863 252.426 48.9863 250.668C48.9863 248.314 46.9453 246.596 43.9766 246.596C40.9004 246.596 38.7715 248.48 38.7715 251.146ZM56.4668 261.312C60.0117 261.312 62.1602 258.471 62.1602 253.92C62.1602 249.369 59.9922 246.586 56.4668 246.586C52.9414 246.586 50.7637 249.379 50.7637 253.93C50.7637 258.49 52.9219 261.312 56.4668 261.312ZM56.4668 258.949C54.7871 258.949 53.7617 257.133 53.7617 253.93C53.7617 250.756 54.8066 248.949 56.4668 248.949C58.1367 248.949 59.1621 250.746 59.1621 253.93C59.1621 257.143 58.1465 258.949 56.4668 258.949ZM67.5898 256.986C67.6777 259.633 69.8359 261.244 73.2246 261.244C76.7207 261.244 78.9375 259.516 78.9375 256.781C78.9375 254.633 77.707 253.422 74.8848 252.816L73.1758 252.455C71.5547 252.084 70.8711 251.596 70.8711 250.727C70.8711 249.682 71.8477 248.988 73.3027 248.988C74.7773 248.988 75.8223 249.711 75.9199 250.902H78.6836C78.6348 248.354 76.5742 246.664 73.293 246.664C70.1484 246.664 67.9023 248.383 67.9023 250.98C67.9023 253.041 69.1816 254.359 71.7793 254.916L73.6152 255.316C75.3145 255.697 75.9883 256.205 75.9883 257.123C75.9883 258.158 74.9141 258.91 73.3418 258.91C71.7793 258.91 70.5684 258.148 70.4316 256.986H67.5898ZM90.1777 250.531H87.3262V256.527C87.3262 257.914 86.5352 258.822 85.2656 258.822C84.0059 258.822 83.3125 258.08 83.3125 256.684V250.531H80.4609V257.279C80.4609 259.721 81.9648 261.195 84.2305 261.195C85.8125 261.195 86.8477 260.434 87.3652 259.115H87.4238V261H90.1777V250.531ZM92.0332 261H94.8848V254.682C94.8848 253.51 95.6172 252.689 96.7012 252.689C97.7559 252.689 98.3906 253.354 98.3906 254.477V261H101.135V254.643C101.135 253.48 101.848 252.689 102.932 252.689C104.035 252.689 104.641 253.354 104.641 254.564V261H107.492V253.852C107.492 251.742 106.115 250.336 104.064 250.336C102.531 250.336 101.281 251.166 100.812 252.484H100.754C100.402 251.117 99.3477 250.336 97.834 250.336C96.4082 250.336 95.2852 251.166 94.8457 252.426H94.7871V250.531H92.0332V261ZM109.299 261H112.15V254.682C112.15 253.51 112.883 252.689 113.967 252.689C115.021 252.689 115.656 253.354 115.656 254.477V261H118.4V254.643C118.4 253.48 119.113 252.689 120.197 252.689C121.301 252.689 121.906 253.354 121.906 254.564V261H124.758V253.852C124.758 251.742 123.381 250.336 121.33 250.336C119.797 250.336 118.547 251.166 118.078 252.484H118.02C117.668 251.117 116.613 250.336 115.1 250.336C113.674 250.336 112.551 251.166 112.111 252.426H112.053V250.531H109.299V261ZM131.262 252.416C132.531 252.416 133.4 253.334 133.459 254.672H129.016C129.113 253.363 130.012 252.416 131.262 252.416ZM133.498 257.797C133.234 258.598 132.434 259.115 131.389 259.115C129.934 259.115 128.986 258.09 128.986 256.596V256.42H136.203V255.551C136.203 252.367 134.279 250.307 131.232 250.307C128.137 250.307 126.184 252.475 126.184 255.814C126.184 259.164 128.117 261.225 131.34 261.225C133.928 261.225 135.803 259.848 136.115 257.797H133.498ZM137.678 261H140.529V255.15C140.529 253.676 141.35 252.816 142.756 252.816C143.166 252.816 143.557 252.885 143.791 252.982V250.473C143.596 250.414 143.312 250.365 142.98 250.365C141.75 250.365 140.861 251.088 140.49 252.416H140.432V250.531H137.678V261ZM152.121 249.213H154.631C156.096 249.213 157.014 250.092 157.014 251.459C157.014 252.855 156.145 253.705 154.66 253.705H152.121V249.213ZM152.121 255.844H154.484L157.111 261H160.451L157.482 255.404C159.104 254.77 160.041 253.207 160.041 251.4C160.041 248.617 158.186 246.908 154.943 246.908H149.172V261H152.121V255.844ZM161.789 261H164.641V250.531H161.789V261ZM163.215 249.379C164.074 249.379 164.738 248.725 164.738 247.904C164.738 247.074 164.074 246.43 163.215 246.43C162.355 246.43 161.691 247.074 161.691 247.904C161.691 248.725 162.355 249.379 163.215 249.379ZM176.057 254.428C175.93 252.055 174.133 250.307 171.301 250.307C168.166 250.307 166.164 252.396 166.164 255.756C166.164 259.174 168.166 261.225 171.32 261.225C174.074 261.225 175.92 259.633 176.066 257.162H173.41C173.234 258.305 172.492 258.988 171.35 258.988C169.934 258.988 169.055 257.816 169.055 255.756C169.055 253.734 169.934 252.543 171.34 252.543C172.512 252.543 173.244 253.324 173.41 254.428H176.057ZM180.402 254.73H180.363V246.908H177.512V261H180.363V257.543L181.105 256.742L184.104 261H187.385L183.195 255.023L187.189 250.531H183.957L180.402 254.73ZM188.254 261H191.105V250.531H188.254V261ZM189.68 249.379C190.539 249.379 191.203 248.725 191.203 247.904C191.203 247.074 190.539 246.43 189.68 246.43C188.82 246.43 188.156 247.074 188.156 247.904C188.156 248.725 188.82 249.379 189.68 249.379ZM197.707 252.416C198.977 252.416 199.846 253.334 199.904 254.672H195.461C195.559 253.363 196.457 252.416 197.707 252.416ZM199.943 257.797C199.68 258.598 198.879 259.115 197.834 259.115C196.379 259.115 195.432 258.09 195.432 256.596V256.42H202.648V255.551C202.648 252.367 200.725 250.307 197.678 250.307C194.582 250.307 192.629 252.475 192.629 255.814C192.629 259.164 194.562 261.225 197.785 261.225C200.373 261.225 202.248 259.848 202.561 257.797H199.943ZM203.947 253.607C203.947 255.15 204.963 256.186 206.945 256.635L208.879 257.064C209.816 257.289 210.168 257.582 210.168 258.109C210.168 258.793 209.514 259.223 208.43 259.223C207.297 259.223 206.604 258.715 206.467 257.836H203.684C203.84 259.877 205.559 261.225 208.352 261.225C211.115 261.225 213.01 259.867 213.01 257.807C213.01 256.244 212.16 255.414 210.061 254.945L208.059 254.516C207.141 254.301 206.691 253.949 206.691 253.432C206.691 252.758 207.336 252.309 208.322 252.309C209.377 252.309 210.051 252.826 210.109 253.666H212.736C212.697 251.635 210.988 250.307 208.361 250.307C205.676 250.307 203.947 251.615 203.947 253.607ZM13.8301 277.146V277.195H16.5645V277.146C16.5645 275.848 17.5703 274.891 18.9375 274.891C20.2461 274.891 21.1738 275.73 21.1738 276.785C21.1738 277.762 20.7344 278.475 19.3086 279.9L13.9961 285.018V287H24.2402V284.656H17.8828V284.598L21.3203 281.287C22.873 279.744 24.0449 278.426 24.0449 276.668C24.0449 274.314 22.0039 272.596 19.0352 272.596C15.959 272.596 13.8301 274.48 13.8301 277.146ZM31.5254 287.312C35.0703 287.312 37.2188 284.471 37.2188 279.92C37.2188 275.369 35.0508 272.586 31.5254 272.586C28 272.586 25.8223 275.379 25.8223 279.93C25.8223 284.49 27.9805 287.312 31.5254 287.312ZM31.5254 284.949C29.8457 284.949 28.8203 283.133 28.8203 279.93C28.8203 276.756 29.8652 274.949 31.5254 274.949C33.1953 274.949 34.2207 276.746 34.2207 279.93C34.2207 283.143 33.2051 284.949 31.5254 284.949ZM38.7715 277.146V277.195H41.5059V277.146C41.5059 275.848 42.5117 274.891 43.8789 274.891C45.1875 274.891 46.1152 275.73 46.1152 276.785C46.1152 277.762 45.6758 278.475 44.25 279.9L38.9375 285.018V287H49.1816V284.656H42.8242V284.598L46.2617 281.287C47.8145 279.744 48.9863 278.426 48.9863 276.668C48.9863 274.314 46.9453 272.596 43.9766 272.596C40.9004 272.596 38.7715 274.48 38.7715 277.146ZM56.4668 287.312C60.0117 287.312 62.1602 284.471 62.1602 279.92C62.1602 275.369 59.9922 272.586 56.4668 272.586C52.9414 272.586 50.7637 275.379 50.7637 279.93C50.7637 284.49 52.9219 287.312 56.4668 287.312ZM56.4668 284.949C54.7871 284.949 53.7617 283.133 53.7617 279.93C53.7617 276.756 54.8066 274.949 56.4668 274.949C58.1367 274.949 59.1621 276.746 59.1621 279.93C59.1621 283.143 58.1465 284.949 56.4668 284.949ZM67.5898 282.986C67.6777 285.633 69.8359 287.244 73.2246 287.244C76.7207 287.244 78.9375 285.516 78.9375 282.781C78.9375 280.633 77.707 279.422 74.8848 278.816L73.1758 278.455C71.5547 278.084 70.8711 277.596 70.8711 276.727C70.8711 275.682 71.8477 274.988 73.3027 274.988C74.7773 274.988 75.8223 275.711 75.9199 276.902H78.6836C78.6348 274.354 76.5742 272.664 73.293 272.664C70.1484 272.664 67.9023 274.383 67.9023 276.98C67.9023 279.041 69.1816 280.359 71.7793 280.916L73.6152 281.316C75.3145 281.697 75.9883 282.205 75.9883 283.123C75.9883 284.158 74.9141 284.91 73.3418 284.91C71.7793 284.91 70.5684 284.148 70.4316 282.986H67.5898ZM85.207 278.416C86.4766 278.416 87.3457 279.334 87.4043 280.672H82.9609C83.0586 279.363 83.957 278.416 85.207 278.416ZM87.4434 283.797C87.1797 284.598 86.3789 285.115 85.334 285.115C83.8789 285.115 82.9316 284.09 82.9316 282.596V282.42H90.1484V281.551C90.1484 278.367 88.2246 276.307 85.1777 276.307C82.082 276.307 80.1289 278.475 80.1289 281.814C80.1289 285.164 82.0625 287.225 85.2852 287.225C87.873 287.225 89.748 285.848 90.0605 283.797H87.4434ZM97.7363 276.365C96.2227 276.365 95.0605 277.127 94.4941 278.357H94.4355V276.531H91.623V290.418H94.4746V285.242H94.5332C95.0898 286.424 96.2617 287.166 97.7852 287.166C100.402 287.166 102.023 285.135 102.023 281.766C102.023 278.387 100.393 276.365 97.7363 276.365ZM96.7793 284.871C95.3828 284.871 94.4648 283.66 94.4648 281.766C94.4648 279.891 95.3828 278.65 96.7793 278.65C98.2051 278.65 99.1035 279.871 99.1035 281.766C99.1035 283.67 98.2051 284.871 96.7793 284.871ZM104.26 274.119V276.531H102.785V278.68H104.26V284.178C104.26 286.219 105.217 287.039 107.678 287.039C108.254 287.039 108.742 286.99 109.035 286.922V284.822C108.859 284.852 108.596 284.871 108.342 284.871C107.502 284.871 107.111 284.49 107.111 283.689V278.68H109.045V276.531H107.111V274.119H104.26ZM115.148 278.416C116.418 278.416 117.287 279.334 117.346 280.672H112.902C113 279.363 113.898 278.416 115.148 278.416ZM117.385 283.797C117.121 284.598 116.32 285.115 115.275 285.115C113.82 285.115 112.873 284.09 112.873 282.596V282.42H120.09V281.551C120.09 278.367 118.166 276.307 115.119 276.307C112.023 276.307 110.07 278.475 110.07 281.814C110.07 285.164 112.004 287.225 115.227 287.225C117.814 287.225 119.689 285.848 120.002 283.797H117.385ZM121.564 287H124.416V280.682C124.416 279.51 125.148 278.689 126.232 278.689C127.287 278.689 127.922 279.354 127.922 280.477V287H130.666V280.643C130.666 279.48 131.379 278.689 132.463 278.689C133.566 278.689 134.172 279.354 134.172 280.564V287H137.023V279.852C137.023 277.742 135.646 276.336 133.596 276.336C132.062 276.336 130.812 277.166 130.344 278.484H130.285C129.934 277.117 128.879 276.336 127.365 276.336C125.939 276.336 124.816 277.166 124.377 278.426H124.318V276.531H121.564V287ZM145.051 287.166C147.688 287.166 149.299 285.135 149.299 281.766C149.299 278.387 147.678 276.365 145.041 276.365C143.547 276.365 142.385 277.107 141.809 278.348H141.75V272.908H138.898V287H141.711V285.203H141.77C142.346 286.424 143.518 287.166 145.051 287.166ZM144.064 278.65C145.48 278.65 146.379 279.861 146.379 281.766C146.379 283.68 145.49 284.871 144.064 284.871C142.678 284.871 141.74 283.66 141.74 281.766C141.74 279.891 142.688 278.65 144.064 278.65ZM155.48 278.416C156.75 278.416 157.619 279.334 157.678 280.672H153.234C153.332 279.363 154.23 278.416 155.48 278.416ZM157.717 283.797C157.453 284.598 156.652 285.115 155.607 285.115C154.152 285.115 153.205 284.09 153.205 282.596V282.42H160.422V281.551C160.422 278.367 158.498 276.307 155.451 276.307C152.355 276.307 150.402 278.475 150.402 281.814C150.402 285.164 152.336 287.225 155.559 287.225C158.146 287.225 160.021 285.848 160.334 283.797H157.717ZM161.896 287H164.748V281.15C164.748 279.676 165.568 278.816 166.975 278.816C167.385 278.816 167.775 278.885 168.01 278.982V276.473C167.814 276.414 167.531 276.365 167.199 276.365C165.969 276.365 165.08 277.088 164.709 278.416H164.65V276.531H161.896V287ZM176.34 275.213H178.85C180.314 275.213 181.232 276.092 181.232 277.459C181.232 278.855 180.363 279.705 178.879 279.705H176.34V275.213ZM176.34 281.844H178.703L181.33 287H184.67L181.701 281.404C183.322 280.77 184.26 279.207 184.26 277.4C184.26 274.617 182.404 272.908 179.162 272.908H173.391V287H176.34V281.844ZM186.008 287H188.859V276.531H186.008V287ZM187.434 275.379C188.293 275.379 188.957 274.725 188.957 273.904C188.957 273.074 188.293 272.43 187.434 272.43C186.574 272.43 185.91 273.074 185.91 273.904C185.91 274.725 186.574 275.379 187.434 275.379ZM200.275 280.428C200.148 278.055 198.352 276.307 195.52 276.307C192.385 276.307 190.383 278.396 190.383 281.756C190.383 285.174 192.385 287.225 195.539 287.225C198.293 287.225 200.139 285.633 200.285 283.162H197.629C197.453 284.305 196.711 284.988 195.568 284.988C194.152 284.988 193.273 283.816 193.273 281.756C193.273 279.734 194.152 278.543 195.559 278.543C196.73 278.543 197.463 279.324 197.629 280.428H200.275ZM204.621 280.73H204.582V272.908H201.73V287H204.582V283.543L205.324 282.742L208.322 287H211.604L207.414 281.023L211.408 276.531H208.176L204.621 280.73ZM212.473 287H215.324V276.531H212.473V287ZM213.898 275.379C214.758 275.379 215.422 274.725 215.422 273.904C215.422 273.074 214.758 272.43 213.898 272.43C213.039 272.43 212.375 273.074 212.375 273.904C212.375 274.725 213.039 275.379 213.898 275.379ZM221.926 278.416C223.195 278.416 224.064 279.334 224.123 280.672H219.68C219.777 279.363 220.676 278.416 221.926 278.416ZM224.162 283.797C223.898 284.598 223.098 285.115 222.053 285.115C220.598 285.115 219.65 284.09 219.65 282.596V282.42H226.867V281.551C226.867 278.367 224.943 276.307 221.896 276.307C218.801 276.307 216.848 278.475 216.848 281.814C216.848 285.164 218.781 287.225 222.004 287.225C224.592 287.225 226.467 285.848 226.779 283.797H224.162ZM228.166 279.607C228.166 281.15 229.182 282.186 231.164 282.635L233.098 283.064C234.035 283.289 234.387 283.582 234.387 284.109C234.387 284.793 233.732 285.223 232.648 285.223C231.516 285.223 230.822 284.715 230.686 283.836H227.902C228.059 285.877 229.777 287.225 232.57 287.225C235.334 287.225 237.229 285.867 237.229 283.807C237.229 282.244 236.379 281.414 234.279 280.945L232.277 280.516C231.359 280.301 230.91 279.949 230.91 279.432C230.91 278.758 231.555 278.309 232.541 278.309C233.596 278.309 234.27 278.826 234.328 279.666H236.955C236.916 277.635 235.207 276.307 232.58 276.307C229.895 276.307 228.166 277.615 228.166 279.607Z" fill="#BB271A"/><path d="M111.713 198.813L112.981 199.187C114.573 198.475 117.775 199.576 119.473 200.114C116.346 196.648 111.635 191.557 108.24 188.348C107.126 184.462 107.602 180.553 107.841 176.586L107.889 176.258C106.551 179.433 104.853 182.52 103.941 185.862C102.873 190.371 108.687 195.236 110.942 198.024L111.713 198.813ZM208.629 217.883C199.902 217.636 196.064 217.658 191.62 210.349L188.156 210.449C184.124 210.27 185.805 210.351 183.115 210.217C178.618 210.042 179.338 205.769 178.547 203.511C177.281 195.848 180.222 188.145 180.129 180.48C180.096 177.759 176.246 168.128 174.87 164.684C170.558 165.496 166.223 165.651 161.848 165.869C151.765 165.844 141.749 164.609 131.807 163.041C129.869 171.045 124.11 182.248 128.87 190.383C134.649 198.797 138.704 201.128 144.989 201.636C151.274 202.142 152.693 209.239 151.173 211.773C149.827 213.525 147.461 213.843 145.451 214.267L141.431 214.456C138.268 214.35 135.44 213.495 132.621 212.178C127.913 209.55 123.051 204.087 119.439 200.165C120.28 201.731 120.782 204.789 120.019 206.212C117.883 209.237 108.646 209.219 104.415 207.339C99.6097 205.203 87.9974 190.21 86.202 178.98C90.9784 169.947 97.9366 162.079 101.457 152.244C93.7835 147.348 89.6737 139.377 90.2072 130.349L90.3998 129.303C82.8495 130.717 86.7649 130.191 78.6427 130.805C52.7763 130.726 30.0288 113.188 42.8376 85.9302C43.6705 84.3162 44.4629 82.8487 45.8749 83.5495C47.0083 84.1119 46.8455 86.3677 46.2754 88.8693C38.9537 121.439 74.7377 121.688 96.7347 115.661C98.9179 115.063 103.26 111.033 106.268 109.698C111.184 107.514 116.521 106.629 121.817 105.99C134.989 104.489 150.82 111.428 158.864 111.655C166.908 111.882 178.35 109.729 185.375 110.182C190.471 110.415 195.476 111.335 200.393 112.646C203.576 97.1362 203.802 85.7052 211.347 83.0588C215.776 83.7583 219.188 89.7933 221.714 93.0178L221.725 93.016C226.869 92.8131 231.765 94.1182 236.632 95.5668C245.444 94.3162 252.839 89.3676 260.621 85.518C260.597 85.6393 260.469 85.6804 260.394 85.762C252.735 91.9558 251.665 102.429 252.566 112.115C252.902 117.141 251.481 122.597 249.726 127.743C246.44 136.126 240.096 144.963 232.731 144.51C229.948 144.422 228.33 142.846 226.261 141.163C225.86 144.572 224.282 147.613 222.762 150.628C219.25 157.313 210.073 160.258 201.575 167.396C193.079 174.533 204.294 200.025 207.014 204.669C209.733 209.314 217.323 211.014 214.378 215.206C213.477 216.591 212.099 217.086 210.627 217.623L208.629 217.883Z" fill="#fff"/></g><defs><clipPath id="clip0"><rect width="300" height="300" fill="#fff"/></clipPath></defs></svg>