<svg fill="none" height="300" viewBox="0 0 300 300" width="300" xmlns="http://www.w3.org/2000/svg" xmlns:xlink="http://www.w3.org/1999/xlink"><clipPath id="a"><path d="m0 0h300v300h-300z"/></clipPath><g clip-path="url(#a)"><path d="m0 0h300v300h-300z" fill="#000"/><path d="m13.8301 17.1465v.0488h2.7344v-.0488c0-1.2988 1.0058-2.2559 2.373-2.2559 1.3086 0 2.2363.8399 2.2363 1.8946 0 .9765-.4394 1.6894-1.8652 3.1152l-5.3125 5.1172v1.9824h10.2441v-2.3438h-6.3574v-.0585l3.4375-3.3106c1.5527-1.543 2.7246-2.8613 2.7246-4.6191 0-2.3535-2.041-4.0723-5.0097-4.0723-3.0762 0-5.2051 1.8848-5.2051 4.5508zm17.6953 10.166c3.5449 0 5.6934-2.8418 5.6934-7.3926s-2.168-7.334-5.6934-7.334-5.7031 2.793-5.7031 7.3438c0 4.5605 2.1582 7.3828 5.7031 7.3828zm0-2.3633c-1.6797 0-2.7051-1.8164-2.7051-5.0195 0-3.1738 1.0449-4.9805 2.7051-4.9805 1.6699 0 2.6953 1.7969 2.6953 4.9805 0 3.2129-1.0156 5.0195-2.6953 5.0195zm10.9375 2.0508h2.9199v-14.0918h-2.9297l-3.6426 2.5293v2.6563l3.5938-2.4805h.0586zm6.8164 0h3.0957l5.8789-11.7188v-2.373h-10.0781v2.3438h7.168v.0585zm24.082 0h3.1348l-4.9023-14.0918h-3.4668l-4.8926 14.0918h3.0273l1.0742-3.418h4.9512zm-3.584-11.3965h.0684l1.8066 5.7715h-3.6816zm7.92 11.3965h2.8515v-6.0059c0-1.3574.8106-2.2949 2.0899-2.2949s1.9238.7813 1.9238 2.1485v6.1523h2.8516v-6.748c0-2.4512-1.3086-3.9161-3.6329-3.9161-1.6113 0-2.7148.7618-3.2714 2.0606h-.0586v-1.8653h-2.7539zm11.5234 0h2.8516v-6.0059c0-1.3574.8105-2.2949 2.0898-2.2949s1.9238.7813 1.9238 2.1485v6.1523h2.8516v-6.748c0-2.4512-1.3086-3.9161-3.6328-3.9161-1.6113 0-2.7149.7618-3.2715 2.0606h-.0586v-1.8653h-2.7539zm21.1913-10.4688h-2.851v5.9961c0 1.3868-.791 2.295-2.061 2.295-1.26 0-1.953-.7422-1.953-2.1387v-6.1524h-2.852v6.7481c0 2.4414 1.504 3.916 3.77 3.916 1.582 0 2.617-.7617 3.135-2.0801h.058v1.8848h2.754zm5.899 8.5743c-.967 0-1.612-.4883-1.612-1.2696 0-.7421.606-1.2207 1.67-1.2988l2.207-.1367v.7617c0 1.1328-1.025 1.9434-2.265 1.9434zm-.938 2.0605c1.309 0 2.607-.6543 3.193-1.7676h.059v1.6016h2.754v-7.1973c0-2.1093-1.748-3.4961-4.434-3.4961-2.773 0-4.502 1.3965-4.609 3.4278h2.607c.137-.7715.811-1.2989 1.875-1.2989 1.075 0 1.758.5665 1.758 1.543v.6934l-2.637.1562c-2.607.1563-4.072 1.2598-4.072 3.1641 0 1.8848 1.514 3.1738 3.506 3.1738zm7.92-.166h2.852v-14.0918h-2.852zm8.984-14.0918v14.0918h2.95v-4.4434h2.636c2.969 0 5.03-1.9336 5.03-4.8242 0-2.9004-1.993-4.8242-4.883-4.8242zm2.95 2.334h2.002c1.689 0 2.666.8984 2.666 2.5 0 1.6113-.987 2.5098-2.676 2.5098h-1.992zm9.169 11.7578h2.852v-5.8496c0-1.4746.82-2.334 2.227-2.334.41 0 .8.0684 1.035.166v-2.5097c-.196-.0586-.479-.1075-.811-.1075-1.23 0-2.119.7227-2.49 2.0508h-.059v-1.8848h-2.754zm11.631-8.584c1.27 0 2.139.918 2.198 2.2559h-4.444c.098-1.3086.996-2.2559 2.246-2.2559zm2.237 5.3809c-.264.8008-1.065 1.3183-2.11 1.3183-1.455 0-2.402-1.0254-2.402-2.5195v-.1758h7.217v-.8691c0-3.1836-1.924-5.2442-4.971-5.2442-3.096 0-5.049 2.168-5.049 5.5079 0 3.3496 1.934 5.4101 5.156 5.4101 2.588 0 4.463-1.3769 4.776-3.4277zm8.066 3.3691c1.543 0 2.754-.8105 3.262-1.9629h.049v1.7969h2.812v-14.0918h-2.851v5.4199h-.059c-.508-1.1621-1.68-1.9629-3.193-1.9629-2.627 0-4.288 2.0606-4.288 5.3809 0 3.3496 1.651 5.4199 4.268 5.4199zm.967-8.5156c1.416 0 2.324 1.2109 2.324 3.1152 0 1.9141-.908 3.1055-2.324 3.1055-1.436 0-2.315-1.1816-2.315-3.1055 0-1.914.879-3.1152 2.315-3.1152zm7.109 8.3496h2.852v-10.4688h-2.852zm1.426-11.6211c.859 0 1.523-.6543 1.523-1.4746 0-.8301-.664-1.4746-1.523-1.4746s-1.523.6445-1.523 1.4746c0 .8203.664 1.4746 1.523 1.4746zm12.842 5.0488c-.127-2.373-1.924-4.1211-4.756-4.1211-3.135 0-5.137 2.0899-5.137 5.4493 0 3.4179 2.002 5.4687 5.157 5.4687 2.753 0 4.599-1.5918 4.746-4.0625h-2.657c-.175 1.1426-.918 1.8262-2.06 1.8262-1.416 0-2.295-1.1719-2.295-3.2324 0-2.0215.879-3.2129 2.285-3.2129 1.172 0 1.904.7812 2.07 1.8847zm2.148-6.3086v2.4121h-1.474v2.1485h1.474v5.498c0 2.0411.957 2.8614 3.418 2.8614.576 0 1.065-.0489 1.358-.1172v-2.0996c-.176.0293-.44.0488-.694.0488-.84 0-1.23-.3809-1.23-1.1816v-5.0098h1.933v-2.1485h-1.933v-2.4121zm6.397 12.8809h2.851v-10.4688h-2.851zm1.426-11.6211c.859 0 1.523-.6543 1.523-1.4746 0-.8301-.664-1.4746-1.523-1.4746-.86 0-1.524.6445-1.524 1.4746 0 .8203.664 1.4746 1.524 1.4746zm8.134 11.8457c3.164 0 5.186-2.0215 5.186-5.4687 0-3.3985-2.051-5.4493-5.186-5.4493-3.134 0-5.185 2.0606-5.185 5.4493 0 3.4375 2.021 5.4687 5.185 5.4687zm0-2.1777c-1.406 0-2.295-1.1817-2.295-3.2813 0-2.0801.909-3.2812 2.295-3.2812 1.387 0 2.285 1.2011 2.285 3.2812 0 2.0996-.888 3.2813-2.285 3.2813zm6.66 1.9531h2.852v-6.0059c0-1.3574.811-2.2949 2.09-2.2949s1.924.7813 1.924 2.1485v6.1523h2.851v-6.748c0-2.4512-1.308-3.9161-3.633-3.9161-1.611 0-2.714.7618-3.271 2.0606h-.059v-1.8653h-2.754zm11.348-7.3926c0 1.543 1.016 2.5781 2.998 3.0274l1.934.4297c.937.2246 1.289.5175 1.289 1.0449 0 .6836-.654 1.1133-1.738 1.1133-1.133 0-1.827-.5079-1.963-1.3868h-2.784c.157 2.0411 1.875 3.3887 4.668 3.3887 2.764 0 4.659-1.3574 4.659-3.418 0-1.5625-.85-2.3925-2.95-2.8613l-2.002-.4297c-.918-.2148-1.367-.5664-1.367-1.084 0-.6738.645-1.123 1.631-1.123 1.055 0 1.729.5176 1.787 1.3574h2.627c-.039-2.0312-1.748-3.3594-4.375-3.3594-2.685 0-4.414 1.3086-4.414 3.3008zm-210.9569 23.5391v.0488h2.7344v-.0488c0-1.2988 1.0058-2.2559 2.373-2.2559 1.3086 0 2.2363.8399 2.2363 1.8946 0 .9765-.4394 1.6894-1.8652 3.1152l-5.3125 5.1172v1.9824h10.2441v-2.3438h-6.3574v-.0585l3.4375-3.3106c1.5527-1.543 2.7246-2.8613 2.7246-4.6191 0-2.3535-2.041-4.0723-5.0097-4.0723-3.0762 0-5.2051 1.8848-5.2051 4.5508zm17.6953 10.166c3.5449 0 5.6934-2.8418 5.6934-7.3926s-2.168-7.334-5.6934-7.334-5.7031 2.793-5.7031 7.3438c0 4.5605 2.1582 7.3828 5.7031 7.3828zm0-2.3633c-1.6797 0-2.7051-1.8164-2.7051-5.0195 0-3.1738 1.0449-4.9805 2.7051-4.9805 1.6699 0 2.6953 1.7969 2.6953 4.9805 0 3.2129-1.0156 5.0195-2.6953 5.0195zm10.9375 2.0508h2.9199v-14.0918h-2.9297l-3.6426 2.5293v2.6563l3.5938-2.4805h.0586zm11.6113.3125c3.3887 0 5.7129-1.6797 5.7129-4.1211 0-1.8555-1.3379-3.291-3.3105-3.623v-.0586c1.6406-.3907 2.7343-1.6504 2.7343-3.1836 0-2.168-2.1093-3.7305-5.1367-3.7305-3.0176 0-5.1465 1.5723-5.1465 3.7207 0 1.5527 1.1035 2.8125 2.7442 3.1934v.0586c-1.9629.3222-3.3106 1.7578-3.3106 3.6132 0 2.4414 2.2949 4.1309 5.7129 4.1309zm0-2.1484c-1.5527 0-2.6367-.9278-2.6367-2.1973s1.084-2.1973 2.6367-2.1973c1.5528 0 2.627.9278 2.627 2.1973s-1.0742 2.1973-2.627 2.1973zm0-6.543c-1.3086 0-2.2265-.8203-2.2265-1.9434 0-1.123.9179-1.9531 2.2265-1.9531 1.2988 0 2.2266.8203 2.2266 1.9531 0 1.1231-.9278 1.9434-2.2266 1.9434zm20.8887 8.3789h3.1348l-4.9024-14.0918h-3.4668l-4.8926 14.0918h3.0274l1.0742-3.418h4.9512zm-3.584-11.3965h.0684l1.8066 5.7715h-3.6816zm7.9199 11.3965h2.8516v-6.0059c0-1.3574.8105-2.2949 2.0898-2.2949s1.9239.7813 1.9239 2.1485v6.1523h2.8515v-6.748c0-2.4512-1.3086-3.9161-3.6328-3.9161-1.6113 0-2.7148.7618-3.2715 2.0606h-.0586v-1.8653h-2.7539zm11.5235 0h2.8515v-6.0059c0-1.3574.8106-2.2949 2.0899-2.2949s1.9238.7813 1.9238 2.1485v6.1523h2.8515v-6.748c0-2.4512-1.3085-3.9161-3.6328-3.9161-1.6113 0-2.7148.7618-3.2714 2.0606h-.0586v-1.8653h-2.7539zm21.1917-10.4688h-2.852v5.9961c0 1.3868-.791 2.295-2.06 2.295-1.26 0-1.954-.7422-1.954-2.1387v-6.1524h-2.851v6.7481c0 2.4414 1.504 3.916 3.769 3.916 1.582 0 2.618-.7617 3.135-2.0801h.059v1.8848h2.754zm5.898 8.5743c-.967 0-1.611-.4883-1.611-1.2696 0-.7421.605-1.2207 1.67-1.2988l2.207-.1367v.7617c0 1.1328-1.026 1.9434-2.266 1.9434zm-.937 2.0605c1.308 0 2.607-.6543 3.193-1.7676h.059v1.6016h2.753v-7.1973c0-2.1093-1.748-3.4961-4.433-3.4961-2.774 0-4.502 1.3965-4.609 3.4278h2.607c.137-.7715.81-1.2989 1.875-1.2989 1.074 0 1.758.5665 1.758 1.543v.6934l-2.637.1562c-2.607.1563-4.072 1.2598-4.072 3.1641 0 1.8848 1.513 3.1738 3.506 3.1738zm7.92-.166h2.851v-14.0918h-2.851zm8.984-14.0918v14.0918h2.949v-4.4434h2.637c2.969 0 5.029-1.9336 5.029-4.8242 0-2.9004-1.992-4.8242-4.883-4.8242zm2.949 2.334h2.002c1.69 0 2.666.8984 2.666 2.5 0 1.6113-.986 2.5098-2.676 2.5098h-1.992zm9.17 11.7578h2.852v-5.8496c0-1.4746.82-2.334 2.226-2.334.41 0 .801.0684 1.035.166v-2.5097c-.195-.0586-.478-.1075-.81-.1075-1.231 0-2.119.7227-2.49 2.0508h-.059v-1.8848h-2.754zm11.631-8.584c1.269 0 2.139.918 2.197 2.2559h-4.443c.097-1.3086.996-2.2559 2.246-2.2559zm2.236 5.3809c-.263.8008-1.064 1.3183-2.109 1.3183-1.455 0-2.402-1.0254-2.402-2.5195v-.1758h7.216v-.8691c0-3.1836-1.924-5.2442-4.97-5.2442-3.096 0-5.049 2.168-5.049 5.5079 0 3.3496 1.933 5.4101 5.156 5.4101 2.588 0 4.463-1.3769 4.775-3.4277zm8.067 3.3691c1.543 0 2.754-.8105 3.261-1.9629h.049v1.7969h2.813v-14.0918h-2.852v5.4199h-.058c-.508-1.1621-1.68-1.9629-3.194-1.9629-2.627 0-4.287 2.0606-4.287 5.3809 0 3.3496 1.65 5.4199 4.268 5.4199zm.966-8.5156c1.416 0 2.325 1.2109 2.325 3.1152 0 1.9141-.909 3.1055-2.325 3.1055-1.435 0-2.314-1.1816-2.314-3.1055 0-1.914.879-3.1152 2.314-3.1152zm7.11 8.3496h2.851v-10.4688h-2.851zm1.426-11.6211c.859 0 1.523-.6543 1.523-1.4746 0-.8301-.664-1.4746-1.523-1.4746-.86 0-1.524.6445-1.524 1.4746 0 .8203.664 1.4746 1.524 1.4746zm12.841 5.0488c-.127-2.373-1.923-4.1211-4.755-4.1211-3.135 0-5.137 2.0899-5.137 5.4493 0 3.4179 2.002 5.4687 5.156 5.4687 2.754 0 4.6-1.5918 4.746-4.0625h-2.656c-.176 1.1426-.918 1.8262-2.061 1.8262-1.416 0-2.295-1.1719-2.295-3.2324 0-2.0215.879-3.2129 2.286-3.2129 1.171 0 1.904.7812 2.07 1.8847zm2.149-6.3086v2.4121h-1.475v2.1485h1.475v5.498c0 2.0411.957 2.8614 3.418 2.8614.576 0 1.064-.0489 1.357-.1172v-2.0996c-.176.0293-.439.0488-.693.0488-.84 0-1.231-.3809-1.231-1.1816v-5.0098h1.934v-2.1485h-1.934v-2.4121zm6.396 12.8809h2.852v-10.4688h-2.852zm1.426-11.6211c.859 0 1.524-.6543 1.524-1.4746 0-.8301-.665-1.4746-1.524-1.4746s-1.523.6445-1.523 1.4746c0 .8203.664 1.4746 1.523 1.4746zm8.135 11.8457c3.164 0 5.185-2.0215 5.185-5.4687 0-3.3985-2.05-5.4493-5.185-5.4493s-5.186 2.0606-5.186 5.4493c0 3.4375 2.022 5.4687 5.186 5.4687zm0-2.1777c-1.406 0-2.295-1.1817-2.295-3.2813 0-2.0801.908-3.2812 2.295-3.2812s2.285 1.2011 2.285 3.2812c0 2.0996-.889 3.2813-2.285 3.2813zm6.66 1.9531h2.852v-6.0059c0-1.3574.81-2.2949 2.089-2.2949 1.28 0 1.924.7813 1.924 2.1485v6.1523h2.852v-6.748c0-2.4512-1.309-3.9161-3.633-3.9161-1.611 0-2.715.7618-3.271 2.0606h-.059v-1.8653h-2.754zm11.348-7.3926c0 1.543 1.015 2.5781 2.998 3.0274l1.933.4297c.938.2246 1.289.5175 1.289 1.0449 0 .6836-.654 1.1133-1.738 1.1133-1.133 0-1.826-.5079-1.963-1.3868h-2.783c.156 2.0411 1.875 3.3887 4.668 3.3887 2.764 0 4.658-1.3574 4.658-3.418 0-1.5625-.849-2.3925-2.949-2.8613l-2.002-.4297c-.918-.2148-1.367-.5664-1.367-1.084 0-.6738.644-1.123 1.631-1.123 1.054 0 1.728.5176 1.787 1.3574h2.627c-.039-2.0312-1.748-3.3594-4.375-3.3594-2.686 0-4.414 1.3086-4.414 3.3008zm-202.9886 33.3926h3.1348l-4.9024-14.0918h-3.4668l-4.8926 14.0918h3.0274l1.0742-3.418h4.9512zm-3.584-11.3965h.0684l1.8066 5.7715h-3.6816zm17.2363.9277h-2.8515v5.9961c0 1.3868-.791 2.295-2.0606 2.295-1.2597 0-1.9531-.7422-1.9531-2.1387v-6.1524h-2.8516v6.7481c0 2.4414 1.5039 3.916 3.7696 3.916 1.582 0 2.6172-.7617 3.1347-2.0801h.0586v1.8848h2.7539zm5.7422 10.6348c1.543 0 2.7539-.8105 3.2617-1.9629h.0489v1.7969h2.8125v-14.0918h-2.8516v5.4199h-.0586c-.5078-1.1621-1.6797-1.9629-3.1933-1.9629-2.627 0-4.2872 2.0606-4.2872 5.3809 0 3.3496 1.6504 5.4199 4.2676 5.4199zm.9668-8.5156c1.416 0 2.3242 1.2109 2.3242 3.1152 0 1.9141-.9082 3.1055-2.3242 3.1055-1.4355 0-2.3144-1.1816-2.3144-3.1055 0-1.914.8789-3.1152 2.3144-3.1152zm7.1094 8.3496h2.8516v-10.4688h-2.8516zm1.4258-11.6211c.8593 0 1.5234-.6543 1.5234-1.4746 0-.8301-.6641-1.4746-1.5234-1.4746-.8594 0-1.5235.6445-1.5235 1.4746 0 .8203.6641 1.4746 1.5235 1.4746zm8.1347 11.8457c3.1641 0 5.1856-2.0215 5.1856-5.4687 0-3.3985-2.0508-5.4493-5.1856-5.4493-3.1347 0-5.1855 2.0606-5.1855 5.4493 0 3.4375 2.0215 5.4687 5.1855 5.4687zm0-2.1777c-1.4062 0-2.2949-1.1817-2.2949-3.2813 0-2.0801.9082-3.2812 2.2949-3.2812 1.3868 0 2.2852 1.2011 2.2852 3.2812 0 2.0996-.8887 3.2813-2.2852 3.2813zm10.8692-12.1387v14.0918h2.9492v-4.4434h2.6367c2.9688 0 5.0293-1.9336 5.0293-4.8242 0-2.9004-1.9922-4.8242-4.8828-4.8242zm2.9492 2.334h2.002c1.6894 0 2.666.8984 2.666 2.5 0 1.6113-.9864 2.5098-2.6758 2.5098h-1.9922zm9.1699 11.7578h2.8516v-5.8496c0-1.4746.8203-2.334 2.2265-2.334.4102 0 .8008.0684 1.0352.166v-2.5097c-.1953-.0586-.4785-.1075-.8105-.1075-1.2305 0-2.1192.7227-2.4903 2.0508h-.0586v-1.8848h-2.7539zm11.6309-8.584c1.2695 0 2.1387.918 2.1972 2.2559h-4.4433c.0976-1.3086.9961-2.2559 2.2461-2.2559zm2.2363 5.3809c-.2637.8008-1.0644 1.3183-2.1094 1.3183-1.455 0-2.4023-1.0254-2.4023-2.5195v-.1758h7.2168v-.8691c0-3.1836-1.9238-5.2442-4.9707-5.2442-3.0957 0-5.0488 2.168-5.0488 5.5079 0 3.3496 1.9335 5.4101 5.1562 5.4101 2.5879 0 4.4629-1.3769 4.7754-3.4277zm8.0669 3.3691c1.542 0 2.753-.8105 3.261-1.9629h.049v1.7969h2.813v-14.0918h-2.852v5.4199h-.059c-.507-1.1621-1.679-1.9629-3.193-1.9629-2.627 0-4.287 2.0606-4.287 5.3809 0 3.3496 1.65 5.4199 4.268 5.4199zm.966-8.5156c1.416 0 2.325 1.2109 2.325 3.1152 0 1.9141-.909 3.1055-2.325 3.1055-1.435 0-2.314-1.1816-2.314-3.1055 0-1.914.879-3.1152 2.314-3.1152zm7.11 8.3496h2.851v-10.4688h-2.851zm1.425-11.6211c.86 0 1.524-.6543 1.524-1.4746 0-.8301-.664-1.4746-1.524-1.4746-.859 0-1.523.6445-1.523 1.4746 0 .8203.664 1.4746 1.523 1.4746zm12.842 5.0488c-.127-2.373-1.924-4.1211-4.756-4.1211-3.134 0-5.136 2.0899-5.136 5.4493 0 3.4179 2.002 5.4687 5.156 5.4687 2.754 0 4.6-1.5918 4.746-4.0625h-2.656c-.176 1.1426-.918 1.8262-2.061 1.8262-1.416 0-2.295-1.1719-2.295-3.2324 0-2.0215.879-3.2129 2.285-3.2129 1.172 0 1.905.7812 2.071 1.8847zm2.149-6.3086v2.4121h-1.475v2.1485h1.475v5.498c0 2.0411.957 2.8614 3.418 2.8614.576 0 1.064-.0489 1.357-.1172v-2.0996c-.176.0293-.439.0488-.693.0488-.84 0-1.231-.3809-1.231-1.1816v-5.0098h1.934v-2.1485h-1.934v-2.4121zm6.396 12.8809h2.852v-10.4688h-2.852zm1.426-11.6211c.859 0 1.523-.6543 1.523-1.4746 0-.8301-.664-1.4746-1.523-1.4746s-1.523.6445-1.523 1.4746c0 .8203.664 1.4746 1.523 1.4746zm8.135 11.8457c3.164 0 5.185-2.0215 5.185-5.4687 0-3.3985-2.05-5.4493-5.185-5.4493s-5.186 2.0606-5.186 5.4493c0 3.4375 2.022 5.4687 5.186 5.4687zm0-2.1777c-1.407 0-2.295-1.1817-2.295-3.2813 0-2.0801.908-3.2812 2.295-3.2812 1.386 0 2.285 1.2011 2.285 3.2812 0 2.0996-.889 3.2813-2.285 3.2813zm6.66 1.9531h2.851v-6.0059c0-1.3574.811-2.2949 2.09-2.2949 1.28 0 1.924.7813 1.924 2.1485v6.1523h2.852v-6.748c0-2.4512-1.309-3.9161-3.633-3.9161-1.611 0-2.715.7618-3.272 2.0606h-.058v-1.8653h-2.754zm11.348-7.3926c0 1.543 1.015 2.5781 2.998 3.0274l1.933.4297c.938.2246 1.289.5175 1.289 1.0449 0 .6836-.654 1.1133-1.738 1.1133-1.133 0-1.826-.5079-1.963-1.3868h-2.783c.156 2.0411 1.875 3.3887 4.668 3.3887 2.764 0 4.658-1.3574 4.658-3.418 0-1.5625-.85-2.3925-2.949-2.8613l-2.002-.4297c-.918-.2148-1.367-.5664-1.367-1.084 0-.6738.644-1.123 1.631-1.123 1.054 0 1.728.5176 1.787 1.3574h2.627c-.039-2.0312-1.748-3.3594-4.375-3.3594-2.686 0-4.414 1.3086-4.414 3.3008zm-143.3208 33.3926v-11.6602h4.0821v-2.4316h-11.1035v2.4316h4.0722v11.6602zm5.5371 0h2.8516v-5.9766c0-1.3769.791-2.3242 2.1387-2.3242 1.2988 0 1.9629.8203 1.9629 2.168v6.1328h2.8515v-6.7383c0-2.4219-1.3281-3.9258-3.6523-3.9258-1.5918 0-2.7344.7422-3.291 2.0606h-.0586v-5.4883h-2.8028zm16.3282-8.584c1.2695 0 2.1386.918 2.1972 2.2559h-4.4433c.0976-1.3086.9961-2.2559 2.2461-2.2559zm2.2363 5.381c-.2637.801-1.0645 1.318-2.1094 1.318-1.4551 0-2.4023-1.025-2.4023-2.519v-.176h7.2168v-.8692c0-3.1836-1.9239-5.2442-4.9707-5.2442-3.0957 0-5.0489 2.168-5.0489 5.5079 0 3.3495 1.9336 5.4105 5.1563 5.4105 2.5879 0 4.4629-1.377 4.7754-3.428zm17.6172 3.203h3.1348l-4.9024-14.0918h-3.4668l-4.8926 14.0918h3.0274l1.0742-3.418h4.9512zm-3.584-11.3965h.0684l1.8066 5.7715h-3.6816zm7.9688 11.3965h2.8515v-10.4688h-2.8515zm1.4257-11.6211c.8594 0 1.5235-.6543 1.5235-1.4746 0-.8301-.6641-1.4746-1.5235-1.4746-.8593 0-1.5234.6445-1.5234 1.4746 0 .8203.6641 1.4746 1.5234 1.4746zm3.3301 11.6211h2.8516v-5.8496c0-1.4746.8203-2.334 2.2265-2.334.4102 0 .8008.0684 1.0352.166v-2.5097c-.1953-.0586-.4785-.1075-.8106-.1075-1.2304 0-2.1191.7227-2.4902 2.0508h-.0586v-1.8848h-2.7539zm7.5293-14.0918v14.0918h2.9492v-4.443h2.6367c2.9688 0 5.0293-1.934 5.0293-4.8246 0-2.9004-1.9921-4.8242-4.8828-4.8242zm2.9492 2.334h2.002c1.6894 0 2.666.8984 2.666 2.5 0 1.6113-.9863 2.5098-2.6758 2.5098h-1.9922zm13.6231 11.9828c3.164 0 5.1858-2.022 5.1858-5.4691 0-3.3985-2.0511-5.4493-5.1858-5.4493-3.1348 0-5.1856 2.0606-5.1856 5.4493 0 3.4371 2.0215 5.4691 5.1856 5.4691zm0-2.178c-1.4063 0-2.295-1.182-2.295-3.2814 0-2.0801.9083-3.2812 2.295-3.2812s2.2851 1.2011 2.2851 3.2812c0 2.0994-.8886 3.2814-2.2851 3.2814zm21.2498-8.5158h-2.812l-1.592 7.7638h-.059l-1.865-7.7638h-2.734l-1.856 7.7638h-.058l-1.582-7.7638h-2.872l2.784 10.4688h2.998l1.885-7.4023h.058l1.895 7.4023h3.037zm5.654 1.8848c1.27 0 2.139.918 2.198 2.2559h-4.444c.098-1.3086.996-2.2559 2.246-2.2559zm2.237 5.381c-.264.801-1.065 1.318-2.11 1.318-1.455 0-2.402-1.025-2.402-2.519v-.176h7.217v-.8692c0-3.1836-1.924-5.2442-4.971-5.2442-3.096 0-5.049 2.168-5.049 5.5079 0 3.3495 1.934 5.4105 5.157 5.4105 2.587 0 4.462-1.377 4.775-3.428zm4.179 3.203h2.852v-5.8496c0-1.4746.82-2.334 2.227-2.334.41 0 .8.0684 1.035.166v-2.5097c-.196-.0586-.479-.1075-.811-.1075-1.23 0-2.119.7227-2.49 2.0508h-.059v-1.8848h-2.754zm24.092-5.918v-1.5918h-5.937v2.1485h3.066l-.01.2246c-.058 1.7477-1.396 2.9297-3.32 2.9297-2.344 0-3.828-1.865-3.828-4.9219 0-2.9981 1.396-4.7656 3.721-4.7656 1.591 0 2.793.8789 3.222 2.3535h2.959c-.42-2.8516-2.9-4.7949-6.191-4.7949-4.141 0-6.719 2.7343-6.719 7.2461 0 4.5798 2.578 7.3338 6.787 7.3338 3.926 0 6.25-2.324 6.25-6.162zm5.655 4.023c-.967 0-1.612-.488-1.612-1.269 0-.742.606-1.221 1.67-1.299l2.207-.137v.762c0 1.133-1.025 1.943-2.265 1.943zm-.938 2.061c1.309 0 2.608-.654 3.193-1.768h.059v1.602h2.754v-7.1973c0-2.1093-1.748-3.4961-4.434-3.4961-2.773 0-4.502 1.3965-4.609 3.4278h2.607c.137-.7715.811-1.2989 1.875-1.2989 1.075 0 1.758.5665 1.758 1.543v.6934l-2.637.1562c-2.607.1563-4.072 1.2599-4.072 3.1639 0 1.885 1.514 3.174 3.506 3.174zm7.852-.166h2.851v-6.3184c0-1.1718.733-1.9921 1.817-1.9921 1.054 0 1.689.664 1.689 1.7871v6.5234h2.744v-6.3574c0-1.1621.713-1.9531 1.797-1.9531 1.104 0 1.709.664 1.709 1.875v6.4355h2.852v-7.1484c0-2.1094-1.377-3.5157-3.428-3.5157-1.533 0-2.783.8301-3.252 2.1485h-.059c-.351-1.3672-1.406-2.1485-2.92-2.1485-1.425 0-2.548.8301-2.988 2.0899h-.058v-1.8946h-2.754zm21.963-8.584c1.269 0 2.138.918 2.197 2.2559h-4.444c.098-1.3086.997-2.2559 2.247-2.2559zm2.236 5.381c-.264.801-1.065 1.318-2.11 1.318-1.455 0-2.402-1.025-2.402-2.519v-.176h7.217v-.8692c0-3.1836-1.924-5.2442-4.971-5.2442-3.095 0-5.049 2.168-5.049 5.5079 0 3.3495 1.934 5.4105 5.157 5.4105 2.588 0 4.463-1.377 4.775-3.428zm-175.8009 19.349v.049h2.7344v-.049c0-1.298 1.0058-2.255 2.373-2.255 1.3086 0 2.2363.839 2.2363 1.894 0 .977-.4394 1.69-1.8652 3.115l-5.3125 5.118v1.982h10.2441v-2.344h-6.3574v-.058l3.4375-3.311c1.5527-1.543 2.7246-2.861 2.7246-4.619 0-2.354-2.041-4.072-5.0097-4.072-3.0762 0-5.2051 1.884-5.2051 4.55zm17.6953 10.166c3.5449 0 5.6934-2.841 5.6934-7.392s-2.168-7.334-5.6934-7.334-5.7031 2.793-5.7031 7.344c0 4.56 2.1582 7.382 5.7031 7.382zm0-2.363c-1.6797 0-2.7051-1.816-2.7051-5.019 0-3.174 1.0449-4.981 2.7051-4.981 1.6699 0 2.6953 1.797 2.6953 4.981 0 3.213-1.0156 5.019-2.6953 5.019zm10.9375 2.051h2.9199v-14.092h-2.9297l-3.6426 2.53v2.656l3.5938-2.481h.0586zm11.6113.312c3.3887 0 5.7129-1.679 5.7129-4.121 0-1.855-1.3379-3.291-3.3105-3.623v-.058c1.6406-.391 2.7343-1.651 2.7343-3.184 0-2.168-2.1093-3.73-5.1367-3.73-3.0176 0-5.1465 1.572-5.1465 3.72 0 1.553 1.1035 2.813 2.7442 3.194v.058c-1.9629.323-3.3106 1.758-3.3106 3.614 0 2.441 2.2949 4.13 5.7129 4.13zm0-2.148c-1.5527 0-2.6367-.928-2.6367-2.197 0-1.27 1.084-2.197 2.6367-2.197 1.5528 0 2.627.927 2.627 2.197 0 1.269-1.0742 2.197-2.627 2.197zm0-6.543c-1.3086 0-2.2265-.82-2.2265-1.943s.9179-1.953 2.2265-1.953c1.2988 0 2.2266.82 2.2266 1.953 0 1.123-.9278 1.943-2.2266 1.943zm11.4649 8.379h2.8515v-10.469h-2.8515zm1.4257-11.621c.8594 0 1.5235-.654 1.5235-1.475 0-.83-.6641-1.474-1.5235-1.474-.8593 0-1.5234.644-1.5234 1.474 0 .821.6641 1.475 1.5234 1.475zm3.5743-2.471v14.092h2.9492v-4.443h2.6367c2.9688 0 5.0293-1.934 5.0293-4.825 0-2.9-1.9922-4.824-4.8828-4.824zm2.9492 2.334h2.0019c1.6895 0 2.666.899 2.666 2.5 0 1.612-.9863 2.51-2.6757 2.51h-1.9922zm9.2383 11.758h2.8515v-5.977c0-1.377.791-2.324 2.1387-2.324 1.2988 0 1.9629.821 1.9629 2.168v6.133h2.8515v-6.738c0-2.422-1.3281-3.926-3.6523-3.926-1.5918 0-2.7344.742-3.291 2.06h-.0586v-5.488h-2.8027zm16.4355.225c3.1639 0 5.1859-2.022 5.1859-5.469 0-3.399-2.051-5.449-5.1859-5.449-3.1348 0-5.1855 2.06-5.1855 5.449 0 3.437 2.0214 5.469 5.1855 5.469zm0-2.178c-1.4062 0-2.2949-1.182-2.2949-3.281 0-2.08.9082-3.282 2.2949-3.282 1.3869 0 2.2849 1.202 2.2849 3.282 0 2.099-.888 3.281-2.2849 3.281zm6.6599 1.953h2.852v-6.006c0-1.357.81-2.295 2.09-2.295 1.279 0 1.924.781 1.924 2.149v6.152h2.851v-6.748c0-2.451-1.309-3.916-3.633-3.916-1.611 0-2.715.762-3.271 2.06h-.059v-1.865h-2.754zm16.221-8.584c1.269 0 2.139.918 2.197 2.256h-4.443c.098-1.309.996-2.256 2.246-2.256zm2.236 5.381c-.263.801-1.064 1.318-2.109 1.318-1.455 0-2.402-1.025-2.402-2.519v-.176h7.216v-.869c0-3.184-1.923-5.244-4.97-5.244-3.096 0-5.049 2.168-5.049 5.507 0 3.35 1.933 5.411 5.156 5.411 2.588 0 4.463-1.377 4.775-3.428zm17.725.762h-6.387v-3.555h6.026v-2.266h-6.026v-3.398h6.387v-2.432h-9.336v14.092h9.336zm11.455-8.028h-2.979l-2.168 7.949h-.058l-2.178-7.949h-3.056l3.623 10.469h3.222zm5.4 1.885c1.27 0 2.139.918 2.198 2.256h-4.444c.098-1.309.996-2.256 2.246-2.256zm2.237 5.381c-.264.801-1.065 1.318-2.11 1.318-1.455 0-2.402-1.025-2.402-2.519v-.176h7.217v-.869c0-3.184-1.924-5.244-4.971-5.244-3.096 0-5.049 2.168-5.049 5.507 0 3.35 1.934 5.411 5.157 5.411 2.587 0 4.462-1.377 4.775-3.428zm4.179 3.203h2.852v-6.006c0-1.357.811-2.295 2.09-2.295s1.924.781 1.924 2.149v6.152h2.851v-6.748c0-2.451-1.308-3.916-3.633-3.916-1.611 0-2.714.762-3.271 2.06h-.059v-1.865h-2.754zm12.286-12.881v2.412h-1.475v2.149h1.475v5.498c0 2.041.957 2.861 3.418 2.861.576 0 1.064-.049 1.357-.117v-2.1c-.176.03-.44.049-.693.049-.84 0-1.231-.381-1.231-1.182v-5.009h1.934v-2.149h-1.934v-2.412zm10.556-1.211v14.092h2.949v-4.443h2.637c2.969 0 5.029-1.934 5.029-4.825 0-2.9-1.992-4.824-4.882-4.824zm2.949 2.334h2.002c1.69 0 2.666.899 2.666 2.5 0 1.612-.986 2.51-2.675 2.51h-1.993zm9.17 11.758h2.852v-5.85c0-1.474.82-2.334 2.226-2.334.411 0 .801.069 1.036.166v-2.509c-.196-.059-.479-.108-.811-.108-1.23 0-2.119.723-2.49 2.051h-.059v-1.885h-2.754zm11.631-8.584c1.27 0 2.139.918 2.197 2.256h-4.443c.098-1.309.996-2.256 2.246-2.256zm2.237 5.381c-.264.801-1.065 1.318-2.11 1.318-1.455 0-2.402-1.025-2.402-2.519v-.176h7.217v-.869c0-3.184-1.924-5.244-4.971-5.244-3.096 0-5.049 2.168-5.049 5.507 0 3.35 1.934 5.411 5.156 5.411 2.588 0 4.463-1.377 4.776-3.428zm8.066 3.369c1.543 0 2.754-.811 3.262-1.963h.048v1.797h2.813v-14.092h-2.852v5.42h-.058c-.508-1.162-1.68-1.963-3.194-1.963-2.627 0-4.287 2.061-4.287 5.381 0 3.35 1.651 5.42 4.268 5.42zm.967-8.516c1.416 0 2.324 1.211 2.324 3.116 0 1.914-.908 3.105-2.324 3.105-1.436 0-2.315-1.182-2.315-3.105 0-1.914.879-3.116 2.315-3.116zm7.109 8.35h2.852v-10.469h-2.852zm1.426-11.621c.859 0 1.523-.654 1.523-1.475 0-.83-.664-1.474-1.523-1.474-.86 0-1.524.644-1.524 1.474 0 .821.664 1.475 1.524 1.475zm12.842 5.049c-.127-2.373-1.924-4.121-4.756-4.121-3.135 0-5.137 2.089-5.137 5.449 0 3.418 2.002 5.469 5.156 5.469 2.754 0 4.6-1.592 4.746-4.063h-2.656c-.176 1.143-.918 1.826-2.06 1.826-1.416 0-2.295-1.172-2.295-3.232 0-2.022.879-3.213 2.285-3.213 1.172 0 1.904.781 2.07 1.885zm2.148-6.309v2.412h-1.474v2.149h1.474v5.498c0 2.041.957 2.861 3.418 2.861.576 0 1.065-.049 1.358-.117v-2.1c-.176.03-.44.049-.694.049-.84 0-1.23-.381-1.23-1.182v-5.009h1.933v-2.149h-1.933v-2.412zm6.397 12.881h2.851v-10.469h-2.851zm1.425-11.621c.86 0 1.524-.654 1.524-1.475 0-.83-.664-1.474-1.524-1.474-.859 0-1.523.644-1.523 1.474 0 .821.664 1.475 1.523 1.475zm8.135 11.846c3.164 0 5.186-2.022 5.186-5.469 0-3.399-2.051-5.449-5.186-5.449s-5.185 2.06-5.185 5.449c0 3.437 2.021 5.469 5.185 5.469zm0-2.178c-1.406 0-2.295-1.182-2.295-3.281 0-2.08.908-3.282 2.295-3.282s2.285 1.202 2.285 3.282c0 2.099-.888 3.281-2.285 3.281zm6.66 1.953h2.852v-6.006c0-1.357.81-2.295 2.09-2.295 1.279 0 1.924.781 1.924 2.149v6.152h2.851v-6.748c0-2.451-1.308-3.916-3.633-3.916-1.611 0-2.715.762-3.271 2.06h-.059v-1.865h-2.754zm11.348-7.393c0 1.543 1.016 2.579 2.998 3.028l1.934.429c.937.225 1.289.518 1.289 1.045 0 .684-.655 1.114-1.739 1.114-1.132 0-1.826-.508-1.963-1.387h-2.783c.157 2.041 1.875 3.389 4.668 3.389 2.764 0 4.658-1.358 4.658-3.418 0-1.563-.849-2.393-2.949-2.862l-2.002-.429c-.918-.215-1.367-.567-1.367-1.084 0-.674.645-1.123 1.631-1.123 1.055 0 1.728.517 1.787 1.357h2.627c-.039-2.031-1.748-3.359-4.375-3.359-2.686 0-4.414 1.308-4.414 3.3zm-266.7969 23.539v.049h2.7344v-.049c0-1.298 1.0058-2.255 2.373-2.255 1.3086 0 2.2363.839 2.2363 1.894 0 .977-.4394 1.69-1.8652 3.115l-5.3125 5.118v1.982h10.2441v-2.344h-6.3574v-.058l3.4375-3.311c1.5527-1.543 2.7246-2.861 2.7246-4.619 0-2.354-2.041-4.072-5.0097-4.072-3.0762 0-5.2051 1.884-5.2051 4.55zm17.6953 10.166c3.5449 0 5.6934-2.841 5.6934-7.392s-2.168-7.334-5.6934-7.334-5.7031 2.793-5.7031 7.344c0 4.56 2.1582 7.382 5.7031 7.382zm0-2.363c-1.6797 0-2.7051-1.816-2.7051-5.019 0-3.174 1.0449-4.981 2.7051-4.981 1.6699 0 2.6953 1.797 2.6953 4.981 0 3.213-1.0156 5.019-2.6953 5.019zm10.9375 2.051h2.9199v-14.092h-2.9297l-3.6426 2.53v2.656l3.5938-2.481h.0586zm11.1914.312c3.7109 0 5.918-2.812 5.918-7.48 0-1.885-.4004-3.467-1.1817-4.668-.9765-1.67-2.666-2.578-4.6972-2.578-3.1446 0-5.4297 2.07-5.4297 4.971 0 2.675 2.0215 4.648 4.6777 4.648 1.8555 0 3.2422-.928 3.75-2.305h.0098.0195.0293c.0781 3.233-1.1035 5.079-3.0469 5.079-1.1328 0-2.0605-.625-2.3437-1.573h-2.9102c.3906 2.305 2.5098 3.906 5.2051 3.906zm.0586-7.324c-1.4649 0-2.5684-1.074-2.5684-2.519 0-1.416 1.1426-2.53 2.5879-2.53 1.4356 0 2.5586 1.114 2.5586 2.549 0 1.426-1.1133 2.5-2.5781 2.5zm21.0547 7.012h3.1347l-4.9023-14.092h-3.4668l-4.8926 14.092h3.0274l1.0742-3.418h4.9512zm-3.584-11.396h.0684l1.8066 5.771h-3.6816zm7.9199 11.396h2.8516v-6.006c0-1.357.8105-2.295 2.0898-2.295s1.9239.781 1.9239 2.149v6.152h2.8515v-6.748c0-2.451-1.3086-3.916-3.6328-3.916-1.6113 0-2.7148.762-3.2715 2.06h-.0586v-1.865h-2.7539zm11.5235 0h2.8515v-6.006c0-1.357.8106-2.295 2.0899-2.295s1.9238.781 1.9238 2.149v6.152h2.8518v-6.748c0-2.451-1.3088-3.916-3.6331-3.916-1.6113 0-2.7148.762-3.2714 2.06h-.0586v-1.865h-2.7539zm21.191-10.469h-2.851v5.996c0 1.387-.791 2.295-2.061 2.295-1.26 0-1.953-.742-1.953-2.138v-6.153h-2.851v6.748c0 2.442 1.503 3.916 3.769 3.916 1.582 0 2.617-.761 3.135-2.08h.058v1.885h2.754zm5.899 8.574c-.967 0-1.612-.488-1.612-1.269 0-.742.606-1.221 1.67-1.299l2.207-.137v.762c0 1.133-1.025 1.943-2.265 1.943zm-.938 2.061c1.309 0 2.608-.654 3.194-1.768h.058v1.602h2.754v-7.197c0-2.11-1.748-3.496-4.433-3.496-2.774 0-4.502 1.396-4.61 3.427h2.608c.136-.771.81-1.298 1.875-1.298 1.074 0 1.757.566 1.757 1.543v.693l-2.636.156c-2.608.156-4.073 1.26-4.073 3.164 0 1.885 1.514 3.174 3.506 3.174zm7.92-.166h2.852v-14.092h-2.852zm8.985-14.092v14.092h2.949v-4.443h2.637c2.968 0 5.029-1.934 5.029-4.825 0-2.9-1.992-4.824-4.883-4.824zm2.949 2.334h2.002c1.689 0 2.666.899 2.666 2.5 0 1.612-.987 2.51-2.676 2.51h-1.992zm9.17 11.758h2.851v-5.85c0-1.474.821-2.334 2.227-2.334.41 0 .801.069 1.035.166v-2.509c-.195-.059-.478-.108-.811-.108-1.23 0-2.119.723-2.49 2.051h-.058v-1.885h-2.754zm11.631-8.584c1.269 0 2.138.918 2.197 2.256h-4.443c.097-1.309.996-2.256 2.246-2.256zm2.236 5.381c-.264.801-1.065 1.318-2.109 1.318-1.456 0-2.403-1.025-2.403-2.519v-.176h7.217v-.869c0-3.184-1.924-5.244-4.971-5.244-3.095 0-5.049 2.168-5.049 5.507 0 3.35 1.934 5.411 5.157 5.411 2.588 0 4.463-1.377 4.775-3.428zm8.066 3.369c1.543 0 2.754-.811 3.262-1.963h.049v1.797h2.812v-14.092h-2.851v5.42h-.059c-.508-1.162-1.679-1.963-3.193-1.963-2.627 0-4.287 2.061-4.287 5.381 0 3.35 1.65 5.42 4.267 5.42zm.967-8.516c1.416 0 2.324 1.211 2.324 3.116 0 1.914-.908 3.105-2.324 3.105-1.435 0-2.314-1.182-2.314-3.105 0-1.914.879-3.116 2.314-3.116zm7.109 8.35h2.852v-10.469h-2.852zm1.426-11.621c.86 0 1.524-.654 1.524-1.475 0-.83-.664-1.474-1.524-1.474-.859 0-1.523.644-1.523 1.474 0 .821.664 1.475 1.523 1.475zm12.842 5.049c-.127-2.373-1.924-4.121-4.756-4.121-3.135 0-5.136 2.089-5.136 5.449 0 3.418 2.001 5.469 5.156 5.469 2.754 0 4.599-1.592 4.746-4.063h-2.656c-.176 1.143-.918 1.826-2.061 1.826-1.416 0-2.295-1.172-2.295-3.232 0-2.022.879-3.213 2.285-3.213 1.172 0 1.905.781 2.071 1.885zm2.149-6.309v2.412h-1.475v2.149h1.475v5.498c0 2.041.957 2.861 3.417 2.861.577 0 1.065-.049 1.358-.117v-2.1c-.176.03-.44.049-.693.049-.84 0-1.231-.381-1.231-1.182v-5.009h1.934v-2.149h-1.934v-2.412zm6.396 12.881h2.852v-10.469h-2.852zm1.426-11.621c.859 0 1.523-.654 1.523-1.475 0-.83-.664-1.474-1.523-1.474-.86 0-1.524.644-1.524 1.474 0 .821.664 1.475 1.524 1.475zm8.135 11.846c3.164 0 5.185-2.022 5.185-5.469 0-3.399-2.051-5.449-5.185-5.449-3.135 0-5.186 2.06-5.186 5.449 0 3.437 2.021 5.469 5.186 5.469zm0-2.178c-1.407 0-2.295-1.182-2.295-3.281 0-2.08.908-3.282 2.295-3.282 1.386 0 2.285 1.202 2.285 3.282 0 2.099-.889 3.281-2.285 3.281zm6.66 1.953h2.851v-6.006c0-1.357.811-2.295 2.09-2.295s1.924.781 1.924 2.149v6.152h2.851v-6.748c0-2.451-1.308-3.916-3.632-3.916-1.612 0-2.715.762-3.272 2.06h-.058v-1.865h-2.754zm11.347-7.393c0 1.543 1.016 2.579 2.998 3.028l1.934.429c.937.225 1.289.518 1.289 1.045 0 .684-.654 1.114-1.738 1.114-1.133 0-1.826-.508-1.963-1.387h-2.783c.156 2.041 1.875 3.389 4.668 3.389 2.763 0 4.658-1.358 4.658-3.418 0-1.563-.85-2.393-2.949-2.862l-2.002-.429c-.918-.215-1.367-.567-1.367-1.084 0-.674.644-1.123 1.63-1.123 1.055 0 1.729.517 1.787 1.357h2.627c-.039-2.031-1.748-3.359-4.375-3.359-2.685 0-4.414 1.308-4.414 3.3zm-212.3629 23.539v.049h2.7344v-.049c0-1.298 1.0058-2.255 2.373-2.255 1.3086 0 2.2363.839 2.2363 1.894 0 .977-.4394 1.69-1.8652 3.115l-5.3125 5.118v1.982h10.2441v-2.344h-6.3574v-.058l3.4375-3.311c1.5527-1.543 2.7246-2.861 2.7246-4.619 0-2.354-2.041-4.072-5.0097-4.072-3.0762 0-5.2051 1.884-5.2051 4.55zm17.6953 10.166c3.5449 0 5.6934-2.841 5.6934-7.392s-2.168-7.334-5.6934-7.334-5.7031 2.793-5.7031 7.344c0 4.56 2.1582 7.382 5.7031 7.382zm0-2.363c-1.6797 0-2.7051-1.816-2.7051-5.019 0-3.174 1.0449-4.981 2.7051-4.981 1.6699 0 2.6953 1.797 2.6953 4.981 0 3.213-1.0156 5.019-2.6953 5.019zm10.9375 2.051h2.9199v-14.092h-2.9297l-3.6426 2.53v2.656l3.5938-2.481h.0586zm11.1914.312c3.7109 0 5.918-2.812 5.918-7.48 0-1.885-.4004-3.467-1.1817-4.668-.9765-1.67-2.666-2.578-4.6972-2.578-3.1446 0-5.4297 2.07-5.4297 4.971 0 2.675 2.0215 4.648 4.6777 4.648 1.8555 0 3.2422-.928 3.75-2.305h.0098.0195.0293c.0781 3.233-1.1035 5.079-3.0469 5.079-1.1328 0-2.0605-.625-2.3437-1.573h-2.9102c.3906 2.305 2.5098 3.906 5.2051 3.906zm.0586-7.324c-1.4649 0-2.5684-1.074-2.5684-2.519 0-1.416 1.1426-2.53 2.5879-2.53 1.4356 0 2.5586 1.114 2.5586 2.549 0 1.426-1.1133 2.5-2.5781 2.5zm26.748 7.012v-14.092h-3.4179l-4.0039 9.99h-.0782l-4.0039-9.99h-3.4179v14.092h2.6269v-9.512h.0781l3.8282 9.375h1.8554l3.8282-9.375h.0781v9.512zm6.7969-8.584c1.2695 0 2.1387.918 2.1973 2.256h-4.4434c.0977-1.309.9961-2.256 2.2461-2.256zm2.2363 5.381c-.2636.801-1.0644 1.318-2.1093 1.318-1.4551 0-2.4024-1.025-2.4024-2.519v-.176h7.2168v-.869c0-3.184-1.9238-5.244-4.9707-5.244-3.0957 0-5.0488 2.168-5.0488 5.507 0 3.35 1.9336 5.411 5.1562 5.411 2.5879 0 4.4629-1.377 4.7754-3.428zm8.0664 3.369c1.543 0 2.7535-.811 3.2615-1.963h.049v1.797h2.813v-14.092h-2.852v5.42h-.059c-.507-1.162-1.6792-1.963-3.1929-1.963-2.627 0-4.2871 2.061-4.2871 5.381 0 3.35 1.6504 5.42 4.2675 5.42zm.9668-8.516c1.4161 0 2.3247 1.211 2.3247 3.116 0 1.914-.9086 3.105-2.3247 3.105-1.4355 0-2.3144-1.182-2.3144-3.105 0-1.914.8789-3.116 2.3144-3.116zm7.1097 8.35h2.851v-10.469h-2.851zm1.425-11.621c.86 0 1.524-.654 1.524-1.475 0-.83-.664-1.474-1.524-1.474-.859 0-1.523.644-1.523 1.474 0 .821.664 1.475 1.523 1.475zm7.374 9.726c-.967 0-1.612-.488-1.612-1.269 0-.742.606-1.221 1.67-1.299l2.207-.137v.762c0 1.133-1.025 1.943-2.265 1.943zm-.938 2.061c1.309 0 2.607-.654 3.193-1.768h.059v1.602h2.754v-7.197c0-2.11-1.748-3.496-4.434-3.496-2.773 0-4.502 1.396-4.609 3.427h2.607c.137-.771.811-1.298 1.875-1.298 1.075 0 1.758.566 1.758 1.543v.693l-2.637.156c-2.607.156-4.072 1.26-4.072 3.164 0 1.885 1.514 3.174 3.506 3.174zm21.397-2.607h-6.387v-3.555h6.025v-2.266h-6.025v-3.398h6.387v-2.432h-9.336v14.092h9.336zm11.455-8.028h-2.979l-2.168 7.949h-.058l-2.178-7.949h-3.057l3.623 10.469h3.223zm5.4 1.885c1.27 0 2.139.918 2.197 2.256h-4.443c.098-1.309.996-2.256 2.246-2.256zm2.236 5.381c-.263.801-1.064 1.318-2.109 1.318-1.455 0-2.402-1.025-2.402-2.519v-.176h7.216v-.869c0-3.184-1.923-5.244-4.97-5.244-3.096 0-5.049 2.168-5.049 5.507 0 3.35 1.933 5.411 5.156 5.411 2.588 0 4.463-1.377 4.776-3.428zm4.18 3.203h2.852v-6.006c0-1.357.81-2.295 2.089-2.295 1.28 0 1.924.781 1.924 2.149v6.152h2.852v-6.748c0-2.451-1.309-3.916-3.633-3.916-1.611 0-2.715.762-3.271 2.06h-.059v-1.865h-2.754zm12.285-12.881v2.412h-1.474v2.149h1.474v5.498c0 2.041.957 2.861 3.418 2.861.576 0 1.065-.049 1.358-.117v-2.1c-.176.03-.44.049-.694.049-.84 0-1.23-.381-1.23-1.182v-5.009h1.933v-2.149h-1.933v-2.412zm10.557-1.211v14.092h2.949v-4.443h2.637c2.968 0 5.029-1.934 5.029-4.825 0-2.9-1.992-4.824-4.883-4.824zm2.949 2.334h2.002c1.689 0 2.666.899 2.666 2.5 0 1.612-.986 2.51-2.676 2.51h-1.992zm9.17 11.758h2.852v-5.85c0-1.474.82-2.334 2.226-2.334.41 0 .801.069 1.035.166v-2.509c-.195-.059-.478-.108-.81-.108-1.231 0-2.119.723-2.491 2.051h-.058v-1.885h-2.754zm11.631-8.584c1.269 0 2.138.918 2.197 2.256h-4.443c.097-1.309.996-2.256 2.246-2.256zm2.236 5.381c-.264.801-1.064 1.318-2.109 1.318-1.455 0-2.403-1.025-2.403-2.519v-.176h7.217v-.869c0-3.184-1.924-5.244-4.97-5.244-3.096 0-5.049 2.168-5.049 5.507 0 3.35 1.933 5.411 5.156 5.411 2.588 0 4.463-1.377 4.775-3.428zm8.067 3.369c1.543 0 2.753-.811 3.261-1.963h.049v1.797h2.813v-14.092h-2.852v5.42h-.059c-.507-1.162-1.679-1.963-3.193-1.963-2.627 0-4.287 2.061-4.287 5.381 0 3.35 1.65 5.42 4.268 5.42zm.966-8.516c1.416 0 2.325 1.211 2.325 3.116 0 1.914-.909 3.105-2.325 3.105-1.435 0-2.314-1.182-2.314-3.105 0-1.914.879-3.116 2.314-3.116zm7.11 8.35h2.851v-10.469h-2.851zm1.425-11.621c.86 0 1.524-.654 1.524-1.475 0-.83-.664-1.474-1.524-1.474-.859 0-1.523.644-1.523 1.474 0 .821.664 1.475 1.523 1.475zm12.842 5.049c-.127-2.373-1.924-4.121-4.756-4.121-3.134 0-5.136 2.089-5.136 5.449 0 3.418 2.002 5.469 5.156 5.469 2.754 0 4.6-1.592 4.746-4.063h-2.656c-.176 1.143-.918 1.826-2.061 1.826-1.416 0-2.295-1.172-2.295-3.232 0-2.022.879-3.213 2.286-3.213 1.171 0 1.904.781 2.07 1.885zm2.149-6.309v2.412h-1.475v2.149h1.475v5.498c0 2.041.957 2.861 3.418 2.861.576 0 1.064-.049 1.357-.117v-2.1c-.176.03-.439.049-.693.049-.84 0-1.231-.381-1.231-1.182v-5.009h1.934v-2.149h-1.934v-2.412zm6.396 12.881h2.852v-10.469h-2.852zm1.426-11.621c.859 0 1.523-.654 1.523-1.475 0-.83-.664-1.474-1.523-1.474s-1.523.644-1.523 1.474c0 .821.664 1.475 1.523 1.475zm8.135 11.846c3.164 0 5.185-2.022 5.185-5.469 0-3.399-2.05-5.449-5.185-5.449s-5.186 2.06-5.186 5.449c0 3.437 2.022 5.469 5.186 5.469zm0-2.178c-1.406 0-2.295-1.182-2.295-3.281 0-2.08.908-3.282 2.295-3.282 1.386 0 2.285 1.202 2.285 3.282 0 2.099-.889 3.281-2.285 3.281zm6.66 1.953h2.851v-6.006c0-1.357.811-2.295 2.09-2.295 1.28 0 1.924.781 1.924 2.149v6.152h2.852v-6.748c0-2.451-1.309-3.916-3.633-3.916-1.611 0-2.715.762-3.272 2.06h-.058v-1.865h-2.754zm11.348-7.393c0 1.543 1.015 2.579 2.998 3.028l1.933.429c.938.225 1.289.518 1.289 1.045 0 .684-.654 1.114-1.738 1.114-1.133 0-1.826-.508-1.963-1.387h-2.783c.156 2.041 1.875 3.389 4.668 3.389 2.764 0 4.658-1.358 4.658-3.418 0-1.563-.85-2.393-2.949-2.862l-2.002-.429c-.918-.215-1.367-.567-1.367-1.084 0-.674.644-1.123 1.631-1.123 1.054 0 1.728.517 1.787 1.357h2.627c-.039-2.031-1.748-3.359-4.375-3.359-2.686 0-4.414 1.308-4.414 3.3zm-259.6879 23.539v.049h2.7344v-.049c0-1.298 1.0058-2.255 2.373-2.255 1.3086 0 2.2363.839 2.2363 1.894 0 .977-.4394 1.69-1.8652 3.115l-5.3125 5.118v1.982h10.2441v-2.344h-6.3574v-.058l3.4375-3.311c1.5527-1.543 2.7246-2.861 2.7246-4.619 0-2.354-2.041-4.072-5.0097-4.072-3.0762 0-5.2051 1.884-5.2051 4.55zm17.6953 10.166c3.5449 0 5.6934-2.841 5.6934-7.392s-2.168-7.334-5.6934-7.334-5.7031 2.793-5.7031 7.344c0 4.56 2.1582 7.382 5.7031 7.382zm0-2.363c-1.6797 0-2.7051-1.816-2.7051-5.019 0-3.174 1.0449-4.981 2.7051-4.981 1.6699 0 2.6953 1.797 2.6953 4.981 0 3.213-1.0156 5.019-2.6953 5.019zm10.9375 2.051h2.9199v-14.092h-2.9297l-3.6426 2.53v2.656l3.5938-2.481h.0586zm11.1914.312c3.7109 0 5.918-2.812 5.918-7.48 0-1.885-.4004-3.467-1.1817-4.668-.9765-1.67-2.666-2.578-4.6972-2.578-3.1446 0-5.4297 2.07-5.4297 4.971 0 2.675 2.0215 4.648 4.6777 4.648 1.8555 0 3.2422-.928 3.75-2.305h.0098.0195.0293c.0781 3.233-1.1035 5.079-3.0469 5.079-1.1328 0-2.0605-.625-2.3437-1.573h-2.9102c.3906 2.305 2.5098 3.906 5.2051 3.906zm.0586-7.324c-1.4649 0-2.5684-1.074-2.5684-2.519 0-1.416 1.1426-2.53 2.5879-2.53 1.4356 0 2.5586 1.114 2.5586 2.549 0 1.426-1.1133 2.5-2.5781 2.5zm20.2637-2.617h.0879l2.6757 9.629h2.7832l3.7403-14.092h-3.0567l-2.2265 10.205h-.0782l-2.6367-10.205h-2.4902l-2.6367 10.205h-.0782l-2.2167-10.205h-3.0567l3.7305 14.092h2.7832zm19.3164 0h.0879l2.6757 9.629h2.7832l3.7402-14.092h-3.0566l-2.2265 10.205h-.0781l-2.6368-10.205h-2.4902l-2.6367 10.205h-.0781l-2.2168-10.205h-3.0567l3.7305 14.092h2.7832zm10.879-4.463v14.092h5.381c4.228 0 6.718-2.627 6.718-7.1 0-4.472-2.49-6.992-6.718-6.992zm2.949 2.432h2.08c2.598 0 4.063 1.621 4.063 4.57 0 3.047-1.426 4.649-4.063 4.649h-2.08zm17.285 11.904c3.457 0 5.869-1.992 6.201-5.137h-2.871c-.312 1.67-1.572 2.696-3.32 2.696-2.256 0-3.672-1.856-3.672-4.864 0-2.968 1.436-4.834 3.662-4.834 1.719 0 3.047 1.133 3.321 2.862h2.871c-.225-3.155-2.803-5.303-6.192-5.303-4.082 0-6.67 2.744-6.67 7.285 0 4.551 2.569 7.295 6.67 7.295zm11.992-14.336v14.092h2.95v-4.443h2.636c2.969 0 5.03-1.934 5.03-4.825 0-2.9-1.993-4.824-4.883-4.824zm2.95 2.334h2.002c1.689 0 2.666.899 2.666 2.5 0 1.612-.987 2.51-2.676 2.51h-1.992zm9.17 11.758h2.851v-5.85c0-1.474.82-2.334 2.227-2.334.41 0 .8.069 1.035.166v-2.509c-.195-.059-.479-.108-.811-.108-1.23 0-2.119.723-2.49 2.051h-.059v-1.885h-2.753zm11.63-8.584c1.27 0 2.139.918 2.198 2.256h-4.444c.098-1.309.996-2.256 2.246-2.256zm2.237 5.381c-.264.801-1.065 1.318-2.11 1.318-1.455 0-2.402-1.025-2.402-2.519v-.176h7.217v-.869c0-3.184-1.924-5.244-4.971-5.244-3.096 0-5.049 2.168-5.049 5.507 0 3.35 1.934 5.411 5.157 5.411 2.587 0 4.462-1.377 4.775-3.428zm8.066 3.369c1.543 0 2.754-.811 3.262-1.963h.049v1.797h2.812v-14.092h-2.851v5.42h-.059c-.508-1.162-1.68-1.963-3.193-1.963-2.627 0-4.287 2.061-4.287 5.381 0 3.35 1.65 5.42 4.267 5.42zm.967-8.516c1.416 0 2.324 1.211 2.324 3.116 0 1.914-.908 3.105-2.324 3.105-1.436 0-2.314-1.182-2.314-3.105 0-1.914.878-3.116 2.314-3.116zm7.109 8.35h2.852v-10.469h-2.852zm1.426-11.621c.859 0 1.524-.654 1.524-1.475 0-.83-.665-1.474-1.524-1.474s-1.523.644-1.523 1.474c0 .821.664 1.475 1.523 1.475zm12.842 5.049c-.127-2.373-1.924-4.121-4.756-4.121-3.135 0-5.137 2.089-5.137 5.449 0 3.418 2.002 5.469 5.157 5.469 2.753 0 4.599-1.592 4.746-4.063h-2.657c-.175 1.143-.918 1.826-2.06 1.826-1.416 0-2.295-1.172-2.295-3.232 0-2.022.879-3.213 2.285-3.213 1.172 0 1.904.781 2.07 1.885zm2.148-6.309v2.412h-1.474v2.149h1.474v5.498c0 2.041.957 2.861 3.418 2.861.577 0 1.065-.049 1.358-.117v-2.1c-.176.03-.44.049-.694.049-.839 0-1.23-.381-1.23-1.182v-5.009h1.934v-2.149h-1.934v-2.412zm6.397 12.881h2.851v-10.469h-2.851zm1.426-11.621c.859 0 1.523-.654 1.523-1.475 0-.83-.664-1.474-1.523-1.474-.86 0-1.524.644-1.524 1.474 0 .821.664 1.475 1.524 1.475zm8.134 11.846c3.164 0 5.186-2.022 5.186-5.469 0-3.399-2.051-5.449-5.186-5.449-3.134 0-5.185 2.06-5.185 5.449 0 3.437 2.021 5.469 5.185 5.469zm0-2.178c-1.406 0-2.295-1.182-2.295-3.281 0-2.08.909-3.282 2.295-3.282 1.387 0 2.286 1.202 2.286 3.282 0 2.099-.889 3.281-2.286 3.281zm6.661 1.953h2.851v-6.006c0-1.357.811-2.295 2.09-2.295s1.924.781 1.924 2.149v6.152h2.851v-6.748c0-2.451-1.308-3.916-3.632-3.916-1.612 0-2.715.762-3.272 2.06h-.059v-1.865h-2.753zm11.347-7.393c0 1.543 1.016 2.579 2.998 3.028l1.934.429c.937.225 1.289.518 1.289 1.045 0 .684-.654 1.114-1.738 1.114-1.133 0-1.827-.508-1.963-1.387h-2.783c.156 2.041 1.875 3.389 4.667 3.389 2.764 0 4.659-1.358 4.659-3.418 0-1.563-.85-2.393-2.95-2.862l-2.001-.429c-.918-.215-1.368-.567-1.368-1.084 0-.674.645-1.123 1.631-1.123 1.055 0 1.729.517 1.787 1.357h2.627c-.039-2.031-1.748-3.359-4.375-3.359-2.685 0-4.414 1.308-4.414 3.3zm10.391-2.461v.049h2.734v-.049c0-1.298 1.006-2.255 2.373-2.255 1.309 0 2.237.839 2.237 1.894 0 .977-.44 1.69-1.866 3.115l-5.312 5.118v1.982h10.244v-2.344h-6.357v-.058l3.437-3.311c1.553-1.543 2.725-2.861 2.725-4.619 0-2.354-2.041-4.072-5.01-4.072-3.076 0-5.205 1.884-5.205 4.55zm17.695 10.166c3.545 0 5.694-2.841 5.694-7.392s-2.168-7.334-5.694-7.334c-3.525 0-5.703 2.793-5.703 7.344 0 4.56 2.158 7.382 5.703 7.382zm0-2.363c-1.68 0-2.705-1.816-2.705-5.019 0-3.174 1.045-4.981 2.705-4.981 1.67 0 2.695 1.797 2.695 4.981 0 3.213-1.015 5.019-2.695 5.019zm10.938 2.051h2.92v-14.092h-2.93l-3.643 2.53v2.656l3.594-2.481h.059zm11.191.312c3.711 0 5.918-2.812 5.918-7.48 0-1.885-.4-3.467-1.182-4.668-.976-1.67-2.666-2.578-4.697-2.578-3.144 0-5.43 2.07-5.43 4.971 0 2.675 2.022 4.648 4.678 4.648 1.856 0 3.242-.928 3.75-2.305h.01.019.03c.078 3.233-1.104 5.079-3.047 5.079-1.133 0-2.061-.625-2.344-1.573h-2.91c.391 2.305 2.51 3.906 5.205 3.906zm.059-7.324c-1.465 0-2.569-1.074-2.569-2.519 0-1.416 1.143-2.53 2.588-2.53 1.436 0 2.559 1.114 2.559 2.549 0 1.426-1.114 2.5-2.578 2.5zm14.775 7.012v-5.547h5.732v-2.334h-5.732v-3.779h6.279v-2.432h-9.228v14.092zm11.377-1.895c-.967 0-1.611-.488-1.611-1.269 0-.742.605-1.221 1.67-1.299l2.207-.137v.762c0 1.133-1.026 1.943-2.266 1.943zm-.938 2.061c1.309 0 2.608-.654 3.194-1.768h.058v1.602h2.754v-7.197c0-2.11-1.748-3.496-4.433-3.496-2.774 0-4.502 1.396-4.61 3.427h2.608c.137-.771.81-1.298 1.875-1.298 1.074 0 1.758.566 1.758 1.543v.693l-2.637.156c-2.608.156-4.072 1.26-4.072 3.164 0 1.885 1.513 3.174 3.505 3.174zm7.92-.166h2.852v-14.092h-2.852zm4.844 0h2.852v-14.092h-2.852zm11.934-11.787h2.51c1.464 0 2.382.879 2.382 2.246 0 1.396-.869 2.246-2.353 2.246h-2.539zm0 6.631h2.363l2.627 5.156h3.34l-2.969-5.596c1.621-.634 2.559-2.197 2.559-4.004 0-2.783-1.856-4.492-5.098-4.492h-5.771v14.092h2.949zm9.668 5.156h2.851v-10.469h-2.851zm1.426-11.621c.859 0 1.523-.654 1.523-1.475 0-.83-.664-1.474-1.523-1.474-.86 0-1.524.644-1.524 1.474 0 .821.664 1.475 1.524 1.475zm12.841 5.049c-.127-2.373-1.924-4.121-4.756-4.121-3.134 0-5.136 2.089-5.136 5.449 0 3.418 2.002 5.469 5.156 5.469 2.754 0 4.6-1.592 4.746-4.063h-2.656c-.176 1.143-.918 1.826-2.061 1.826-1.416 0-2.295-1.172-2.295-3.232 0-2.022.879-3.213 2.285-3.213 1.172 0 1.905.781 2.071 1.885zm4.346.302h-.039v-7.822h-2.852v14.092h2.852v-3.457l.742-.801 2.998 4.258h3.281l-4.189-5.977 3.994-4.492h-3.232zm7.852 6.27h2.851v-10.469h-2.851zm1.425-11.621c.86 0 1.524-.654 1.524-1.475 0-.83-.664-1.474-1.524-1.474-.859 0-1.523.644-1.523 1.474 0 .821.664 1.475 1.523 1.475zm8.028 3.037c1.269 0 2.138.918 2.197 2.256h-4.443c.097-1.309.996-2.256 2.246-2.256zm2.236 5.381c-.264.801-1.064 1.318-2.109 1.318-1.455 0-2.403-1.025-2.403-2.519v-.176h7.217v-.869c0-3.184-1.924-5.244-4.971-5.244-3.095 0-5.048 2.168-5.048 5.507 0 3.35 1.933 5.411 5.156 5.411 2.588 0 4.463-1.377 4.775-3.428zm4.004-4.19c0 1.543 1.016 2.579 2.998 3.028l1.934.429c.937.225 1.289.518 1.289 1.045 0 .684-.655 1.114-1.739 1.114-1.132 0-1.826-.508-1.963-1.387h-2.783c.156 2.041 1.875 3.389 4.668 3.389 2.764 0 4.658-1.358 4.658-3.418 0-1.563-.849-2.393-2.949-2.862l-2.002-.429c-.918-.215-1.367-.567-1.367-1.084 0-.674.645-1.123 1.631-1.123 1.055 0 1.728.517 1.787 1.357h2.627c-.039-2.031-1.748-3.359-4.375-3.359-2.686 0-4.414 1.308-4.414 3.3zm-367.0899 23.539v.049h2.7344v-.049c0-1.298 1.0058-2.255 2.373-2.255 1.3086 0 2.2363.839 2.2363 1.894 0 .977-.4394 1.69-1.8652 3.115l-5.3125 5.118v1.982h10.2441v-2.344h-6.3574v-.058l3.4375-3.311c1.5527-1.543 2.7246-2.861 2.7246-4.619 0-2.354-2.041-4.072-5.0097-4.072-3.0762 0-5.2051 1.884-5.2051 4.55zm17.6953 10.166c3.5449 0 5.6934-2.841 5.6934-7.392s-2.168-7.334-5.6934-7.334-5.7031 2.793-5.7031 7.344c0 4.56 2.1582 7.382 5.7031 7.382zm0-2.363c-1.6797 0-2.7051-1.816-2.7051-5.019 0-3.174 1.0449-4.981 2.7051-4.981 1.6699 0 2.6953 1.797 2.6953 4.981 0 3.213-1.0156 5.019-2.6953 5.019zm7.2461-7.803v.049h2.7344v-.049c0-1.298 1.0058-2.255 2.373-2.255 1.3086 0 2.2363.839 2.2363 1.894 0 .977-.4394 1.69-1.8652 3.115l-5.3125 5.118v1.982h10.2441v-2.344h-6.3574v-.058l3.4375-3.311c1.5528-1.543 2.7246-2.861 2.7246-4.619 0-2.354-2.041-4.072-5.0097-4.072-3.0762 0-5.2051 1.884-5.2051 4.55zm17.6953 10.166c3.5449 0 5.6934-2.841 5.6934-7.392s-2.168-7.334-5.6934-7.334-5.7031 2.793-5.7031 7.344c0 4.56 2.1582 7.382 5.7031 7.382zm0-2.363c-1.6797 0-2.7051-1.816-2.7051-5.019 0-3.174 1.0449-4.981 2.7051-4.981 1.6699 0 2.6953 1.797 2.6953 4.981 0 3.213-1.0156 5.019-2.6953 5.019zm20.8789 2.051h3.1348l-4.9024-14.092h-3.4668l-4.8925 14.092h3.0273l1.0742-3.418h4.9512zm-3.584-11.396h.0684l1.8066 5.771h-3.6816zm7.9199 11.396h2.8516v-6.006c0-1.357.8106-2.295 2.0898-2.295 1.2793 0 1.9239.781 1.9239 2.149v6.152h2.8515v-6.748c0-2.451-1.3086-3.916-3.6328-3.916-1.6113 0-2.7148.762-3.2715 2.06h-.0586v-1.865h-2.7539zm11.5235 0h2.8515v-6.006c0-1.357.8106-2.295 2.0899-2.295s1.9235.781 1.9235 2.149v6.152h2.852v-6.748c0-2.451-1.309-3.916-3.6329-3.916-1.6114 0-2.7149.762-3.2715 2.06h-.0586v-1.865h-2.7539zm21.1909-10.469h-2.851v5.996c0 1.387-.791 2.295-2.061 2.295-1.259 0-1.953-.742-1.953-2.138v-6.153h-2.851v6.748c0 2.442 1.504 3.916 3.769 3.916 1.582 0 2.617-.761 3.135-2.08h.059v1.885h2.753zm5.899 8.574c-.967 0-1.611-.488-1.611-1.269 0-.742.605-1.221 1.67-1.299l2.207-.137v.762c0 1.133-1.026 1.943-2.266 1.943zm-.938 2.061c1.309 0 2.608-.654 3.194-1.768h.058v1.602h2.754v-7.197c0-2.11-1.748-3.496-4.433-3.496-2.774 0-4.502 1.396-4.61 3.427h2.608c.136-.771.81-1.298 1.875-1.298 1.074 0 1.758.566 1.758 1.543v.693l-2.637.156c-2.608.156-4.072 1.26-4.072 3.164 0 1.885 1.513 3.174 3.505 3.174zm7.92-.166h2.852v-14.092h-2.852zm11.934-11.787h2.51c1.465 0 2.383.879 2.383 2.246 0 1.396-.87 2.246-2.354 2.246h-2.539zm0 6.631h2.363l2.627 5.156h3.34l-2.969-5.596c1.621-.634 2.559-2.197 2.559-4.004 0-2.783-1.856-4.492-5.098-4.492h-5.771v14.092h2.949zm9.668 5.156h2.851v-10.469h-2.851zm1.426-11.621c.859 0 1.523-.654 1.523-1.475 0-.83-.664-1.474-1.523-1.474-.86 0-1.524.644-1.524 1.474 0 .821.664 1.475 1.524 1.475zm12.841 5.049c-.126-2.373-1.923-4.121-4.755-4.121-3.135 0-5.137 2.089-5.137 5.449 0 3.418 2.002 5.469 5.156 5.469 2.754 0 4.6-1.592 4.746-4.063h-2.656c-.176 1.143-.918 1.826-2.061 1.826-1.416 0-2.294-1.172-2.294-3.232 0-2.022.878-3.213 2.285-3.213 1.172 0 1.904.781 2.07 1.885zm4.346.302h-.039v-7.822h-2.851v14.092h2.851v-3.457l.742-.801 2.998 4.258h3.282l-4.19-5.977 3.994-4.492h-3.232zm7.852 6.27h2.851v-10.469h-2.851zm1.426-11.621c.859 0 1.523-.654 1.523-1.475 0-.83-.664-1.474-1.523-1.474-.86 0-1.524.644-1.524 1.474 0 .821.664 1.475 1.524 1.475zm8.027 3.037c1.269 0 2.139.918 2.197 2.256h-4.443c.097-1.309.996-2.256 2.246-2.256zm2.236 5.381c-.263.801-1.064 1.318-2.109 1.318-1.455 0-2.403-1.025-2.403-2.519v-.176h7.217v-.869c0-3.184-1.924-5.244-4.97-5.244-3.096 0-5.049 2.168-5.049 5.507 0 3.35 1.933 5.411 5.156 5.411 2.588 0 4.463-1.377 4.775-3.428zm4.004-4.19c0 1.543 1.016 2.579 2.998 3.028l1.934.429c.937.225 1.289.518 1.289 1.045 0 .684-.654 1.114-1.738 1.114-1.133 0-1.827-.508-1.963-1.387h-2.784c.157 2.041 1.875 3.389 4.668 3.389 2.764 0 4.659-1.358 4.659-3.418 0-1.563-.85-2.393-2.95-2.862l-2.002-.429c-.918-.215-1.367-.567-1.367-1.084 0-.674.645-1.123 1.631-1.123 1.055 0 1.729.517 1.787 1.357h2.627c-.039-2.031-1.748-3.359-4.375-3.359-2.685 0-4.414 1.308-4.414 3.3zm-177.2069 23.539v.049h2.7344v-.049c0-1.298 1.0058-2.255 2.373-2.255 1.3086 0 2.2363.839 2.2363 1.894 0 .977-.4394 1.69-1.8652 3.115l-5.3125 5.118v1.982h10.2441v-2.344h-6.3574v-.058l3.4375-3.311c1.5527-1.543 2.7246-2.861 2.7246-4.619 0-2.354-2.041-4.072-5.0097-4.072-3.0762 0-5.2051 1.884-5.2051 4.55zm17.6953 10.166c3.5449 0 5.6934-2.841 5.6934-7.392s-2.168-7.334-5.6934-7.334-5.7031 2.793-5.7031 7.344c0 4.56 2.1582 7.382 5.7031 7.382zm0-2.363c-1.6797 0-2.7051-1.816-2.7051-5.019 0-3.174 1.0449-4.981 2.7051-4.981 1.6699 0 2.6953 1.797 2.6953 4.981 0 3.213-1.0156 5.019-2.6953 5.019zm7.2461-7.803v.049h2.7344v-.049c0-1.298 1.0058-2.255 2.373-2.255 1.3086 0 2.2363.839 2.2363 1.894 0 .977-.4394 1.69-1.8652 3.115l-5.3125 5.118v1.982h10.2441v-2.344h-6.3574v-.058l3.4375-3.311c1.5528-1.543 2.7246-2.861 2.7246-4.619 0-2.354-2.041-4.072-5.0097-4.072-3.0762 0-5.2051 1.884-5.2051 4.55zm17.6953 10.166c3.5449 0 5.6934-2.841 5.6934-7.392s-2.168-7.334-5.6934-7.334-5.7031 2.793-5.7031 7.344c0 4.56 2.1582 7.382 5.7031 7.382zm0-2.363c-1.6797 0-2.7051-1.816-2.7051-5.019 0-3.174 1.0449-4.981 2.7051-4.981 1.6699 0 2.6953 1.797 2.6953 4.981 0 3.213-1.0156 5.019-2.6953 5.019zm11.123-1.963c.0879 2.647 2.2461 4.258 5.6348 4.258 3.4961 0 5.7129-1.728 5.7129-4.463 0-2.148-1.2305-3.359-4.0527-3.965l-1.709-.361c-1.6211-.371-2.3047-.859-2.3047-1.728 0-1.045.9766-1.739 2.4316-1.739 1.4746 0 2.5196.723 2.6172 1.914h2.7637c-.0488-2.548-2.1094-4.238-5.3906-4.238-3.1446 0-5.3907 1.719-5.3907 4.316 0 2.061 1.2793 3.379 3.877 3.936l1.8359.4c1.6993.381 2.3731.889 2.3731 1.807 0 1.035-1.0742 1.787-2.6465 1.787-1.5625 0-2.7734-.762-2.9102-1.924zm22.5879-6.455h-2.8515v5.996c0 1.387-.791 2.295-2.0606 2.295-1.2597 0-1.9531-.742-1.9531-2.138v-6.153h-2.8516v6.748c0 2.442 1.5039 3.916 3.7696 3.916 1.582 0 2.6172-.761 3.1347-2.08h.0586v1.885h2.7539zm1.8555 10.469h2.8516v-6.318c0-1.172.7324-1.993 1.8164-1.993 1.0547 0 1.6894.665 1.6894 1.788v6.523h2.7444v-6.357c0-1.163.713-1.954 1.797-1.954 1.103 0 1.709.665 1.709 1.875v6.436h2.851v-7.148c0-2.11-1.377-3.516-3.428-3.516-1.533 0-2.783.83-3.252 2.148h-.058c-.352-1.367-1.4063-2.148-2.92-2.148-1.4258 0-2.5488.83-2.9883 2.09h-.0586v-1.895h-2.7539zm17.2658 0h2.851v-6.318c0-1.172.733-1.993 1.817-1.993 1.054 0 1.689.665 1.689 1.788v6.523h2.744v-6.357c0-1.163.713-1.954 1.797-1.954 1.104 0 1.709.665 1.709 1.875v6.436h2.852v-7.148c0-2.11-1.377-3.516-3.428-3.516-1.533 0-2.783.83-3.252 2.148h-.058c-.352-1.367-1.407-2.148-2.92-2.148-1.426 0-2.549.83-2.989 2.09h-.058v-1.895h-2.754zm21.963-8.584c1.269 0 2.138.918 2.197 2.256h-4.443c.097-1.309.996-2.256 2.246-2.256zm2.236 5.381c-.264.801-1.064 1.318-2.109 1.318-1.455 0-2.403-1.025-2.403-2.519v-.176h7.217v-.869c0-3.184-1.924-5.244-4.971-5.244-3.095 0-5.048 2.168-5.048 5.507 0 3.35 1.933 5.411 5.156 5.411 2.588 0 4.463-1.377 4.775-3.428zm4.18 3.203h2.851v-5.85c0-1.474.821-2.334 2.227-2.334.41 0 .801.069 1.035.166v-2.509c-.195-.059-.479-.108-.811-.108-1.23 0-2.119.723-2.49 2.051h-.058v-1.885h-2.754zm14.443-11.787h2.51c1.465 0 2.383.879 2.383 2.246 0 1.396-.869 2.246-2.354 2.246h-2.539zm0 6.631h2.363l2.627 5.156h3.34l-2.969-5.596c1.622-.634 2.559-2.197 2.559-4.004 0-2.783-1.855-4.492-5.098-4.492h-5.771v14.092h2.949zm9.668 5.156h2.852v-10.469h-2.852zm1.426-11.621c.859 0 1.523-.654 1.523-1.475 0-.83-.664-1.474-1.523-1.474-.86 0-1.524.644-1.524 1.474 0 .821.664 1.475 1.524 1.475zm12.842 5.049c-.127-2.373-1.924-4.121-4.756-4.121-3.135 0-5.137 2.089-5.137 5.449 0 3.418 2.002 5.469 5.156 5.469 2.754 0 4.6-1.592 4.746-4.063h-2.656c-.176 1.143-.918 1.826-2.06 1.826-1.416 0-2.295-1.172-2.295-3.232 0-2.022.879-3.213 2.285-3.213 1.172 0 1.904.781 2.07 1.885zm4.345.302h-.039v-7.822h-2.851v14.092h2.851v-3.457l.742-.801 2.999 4.258h3.281l-4.19-5.977 3.994-4.492h-3.232zm7.852 6.27h2.851v-10.469h-2.851zm1.426-11.621c.859 0 1.523-.654 1.523-1.475 0-.83-.664-1.474-1.523-1.474-.86 0-1.524.644-1.524 1.474 0 .821.664 1.475 1.524 1.475zm8.027 3.037c1.27 0 2.139.918 2.197 2.256h-4.443c.098-1.309.996-2.256 2.246-2.256zm2.236 5.381c-.263.801-1.064 1.318-2.109 1.318-1.455 0-2.402-1.025-2.402-2.519v-.176h7.216v-.869c0-3.184-1.923-5.244-4.97-5.244-3.096 0-5.049 2.168-5.049 5.507 0 3.35 1.933 5.411 5.156 5.411 2.588 0 4.463-1.377 4.776-3.428zm4.004-4.19c0 1.543 1.016 2.579 2.998 3.028l1.934.429c.937.225 1.289.518 1.289 1.045 0 .684-.654 1.114-1.738 1.114-1.133 0-1.826-.508-1.963-1.387h-2.783c.156 2.041 1.875 3.389 4.668 3.389 2.763 0 4.658-1.358 4.658-3.418 0-1.563-.85-2.393-2.949-2.862l-2.002-.429c-.918-.215-1.368-.567-1.368-1.084 0-.674.645-1.123 1.631-1.123 1.055 0 1.729.517 1.787 1.357h2.627c-.039-2.031-1.748-3.359-4.375-3.359-2.685 0-4.414 1.308-4.414 3.3zm-190.1169 23.539v.049h2.7344v-.049c0-1.298 1.0058-2.255 2.373-2.255 1.3086 0 2.2363.839 2.2363 1.894 0 .977-.4394 1.69-1.8652 3.115l-5.3125 5.118v1.982h10.2441v-2.344h-6.3574v-.058l3.4375-3.311c1.5527-1.543 2.7246-2.861 2.7246-4.619 0-2.354-2.041-4.072-5.0097-4.072-3.0762 0-5.2051 1.884-5.2051 4.55zm17.6953 10.166c3.5449 0 5.6934-2.841 5.6934-7.392s-2.168-7.334-5.6934-7.334-5.7031 2.793-5.7031 7.344c0 4.56 2.1582 7.382 5.7031 7.382zm0-2.363c-1.6797 0-2.7051-1.816-2.7051-5.019 0-3.174 1.0449-4.981 2.7051-4.981 1.6699 0 2.6953 1.797 2.6953 4.981 0 3.213-1.0156 5.019-2.6953 5.019zm7.2461-7.803v.049h2.7344v-.049c0-1.298 1.0058-2.255 2.373-2.255 1.3086 0 2.2363.839 2.2363 1.894 0 .977-.4394 1.69-1.8652 3.115l-5.3125 5.118v1.982h10.2441v-2.344h-6.3574v-.058l3.4375-3.311c1.5528-1.543 2.7246-2.861 2.7246-4.619 0-2.354-2.041-4.072-5.0097-4.072-3.0762 0-5.2051 1.884-5.2051 4.55zm17.6953 10.166c3.5449 0 5.6934-2.841 5.6934-7.392s-2.168-7.334-5.6934-7.334-5.7031 2.793-5.7031 7.344c0 4.56 2.1582 7.382 5.7031 7.382zm0-2.363c-1.6797 0-2.7051-1.816-2.7051-5.019 0-3.174 1.0449-4.981 2.7051-4.981 1.6699 0 2.6953 1.797 2.6953 4.981 0 3.213-1.0156 5.019-2.6953 5.019zm11.123-1.963c.0879 2.647 2.2461 4.258 5.6348 4.258 3.4961 0 5.7129-1.728 5.7129-4.463 0-2.148-1.2305-3.359-4.0527-3.965l-1.709-.361c-1.6211-.371-2.3047-.859-2.3047-1.728 0-1.045.9766-1.739 2.4316-1.739 1.4746 0 2.5196.723 2.6172 1.914h2.7637c-.0488-2.548-2.1094-4.238-5.3906-4.238-3.1446 0-5.3907 1.719-5.3907 4.316 0 2.061 1.2793 3.379 3.877 3.936l1.8359.4c1.6993.381 2.3731.889 2.3731 1.807 0 1.035-1.0742 1.787-2.6465 1.787-1.5625 0-2.7734-.762-2.9102-1.924zm17.6172-4.57c1.2696 0 2.1387.918 2.1973 2.256h-4.4434c.0977-1.309.9961-2.256 2.2461-2.256zm2.2364 5.381c-.2637.801-1.0645 1.318-2.1094 1.318-1.4551 0-2.4024-1.025-2.4024-2.519v-.176h7.2168v-.869c0-3.184-1.9238-5.244-4.9707-5.244-3.0957 0-5.0488 2.168-5.0488 5.507 0 3.35 1.9336 5.411 5.1563 5.411 2.5878 0 4.4628-1.377 4.7753-3.428zm10.2929-7.432c-1.5136 0-2.6758.762-3.2422 1.992h-.0586v-1.826h-2.8125v13.887h2.8516v-5.176h.0586c.5566 1.182 1.7285 1.924 3.252 1.924 2.6168 0 4.2378-2.031 4.2378-5.4 0-3.379-1.63-5.401-4.2867-5.401zm-.957 8.506c-1.3965 0-2.3145-1.211-2.3145-3.105 0-1.875.918-3.116 2.3145-3.116 1.4258 0 2.3242 1.221 2.3242 3.116 0 1.904-.8984 3.105-2.3242 3.105zm7.4807-10.752v2.412h-1.475v2.149h1.475v5.498c0 2.041.957 2.861 3.418 2.861.576 0 1.064-.049 1.357-.117v-2.1c-.176.03-.439.049-.693.049-.84 0-1.231-.381-1.231-1.182v-5.009h1.934v-2.149h-1.934v-2.412zm10.888 4.297c1.27 0 2.139.918 2.198 2.256h-4.444c.098-1.309.996-2.256 2.246-2.256zm2.237 5.381c-.264.801-1.065 1.318-2.11 1.318-1.455 0-2.402-1.025-2.402-2.519v-.176h7.217v-.869c0-3.184-1.924-5.244-4.971-5.244-3.096 0-5.049 2.168-5.049 5.507 0 3.35 1.934 5.411 5.157 5.411 2.587 0 4.462-1.377 4.775-3.428zm4.179 3.203h2.852v-6.318c0-1.172.732-1.993 1.816-1.993 1.055 0 1.69.665 1.69 1.788v6.523h2.744v-6.357c0-1.163.713-1.954 1.797-1.954 1.103 0 1.709.665 1.709 1.875v6.436h2.851v-7.148c0-2.11-1.377-3.516-3.427-3.516-1.534 0-2.784.83-3.252 2.148h-.059c-.351-1.367-1.406-2.148-2.92-2.148-1.426 0-2.549.83-2.988 2.09h-.059v-1.895h-2.754zm23.487.166c2.637 0 4.248-2.031 4.248-5.4 0-3.379-1.621-5.401-4.258-5.401-1.494 0-2.656.742-3.232 1.983h-.059v-5.44h-2.852v14.092h2.813v-1.797h.059c.576 1.221 1.748 1.963 3.281 1.963zm-.987-8.516c1.416 0 2.315 1.211 2.315 3.116 0 1.914-.889 3.105-2.315 3.105-1.386 0-2.324-1.211-2.324-3.105 0-1.875.948-3.116 2.324-3.116zm11.416-.234c1.27 0 2.139.918 2.198 2.256h-4.444c.098-1.309.996-2.256 2.246-2.256zm2.237 5.381c-.264.801-1.065 1.318-2.11 1.318-1.455 0-2.402-1.025-2.402-2.519v-.176h7.217v-.869c0-3.184-1.924-5.244-4.971-5.244-3.096 0-5.049 2.168-5.049 5.507 0 3.35 1.934 5.411 5.157 5.411 2.587 0 4.462-1.377 4.775-3.428zm4.179 3.203h2.852v-5.85c0-1.474.82-2.334 2.227-2.334.41 0 .8.069 1.035.166v-2.509c-.196-.059-.479-.108-.811-.108-1.23 0-2.119.723-2.49 2.051h-.059v-1.885h-2.754zm14.444-11.787h2.51c1.464 0 2.382.879 2.382 2.246 0 1.396-.869 2.246-2.353 2.246h-2.539zm0 6.631h2.363l2.627 5.156h3.34l-2.969-5.596c1.621-.634 2.559-2.197 2.559-4.004 0-2.783-1.856-4.492-5.098-4.492h-5.771v14.092h2.949zm9.668 5.156h2.851v-10.469h-2.851zm1.426-11.621c.859 0 1.523-.654 1.523-1.475 0-.83-.664-1.474-1.523-1.474-.86 0-1.524.644-1.524 1.474 0 .821.664 1.475 1.524 1.475zm12.841 5.049c-.127-2.373-1.923-4.121-4.755-4.121-3.135 0-5.137 2.089-5.137 5.449 0 3.418 2.002 5.469 5.156 5.469 2.754 0 4.6-1.592 4.746-4.063h-2.656c-.176 1.143-.918 1.826-2.061 1.826-1.416 0-2.295-1.172-2.295-3.232 0-2.022.879-3.213 2.286-3.213 1.171 0 1.904.781 2.07 1.885zm4.346.302h-.039v-7.822h-2.852v14.092h2.852v-3.457l.742-.801 2.998 4.258h3.282l-4.19-5.977 3.994-4.492h-3.232zm7.852 6.27h2.851v-10.469h-2.851zm1.425-11.621c.86 0 1.524-.654 1.524-1.475 0-.83-.664-1.474-1.524-1.474-.859 0-1.523.644-1.523 1.474 0 .821.664 1.475 1.523 1.475zm8.028 3.037c1.269 0 2.138.918 2.197 2.256h-4.443c.097-1.309.996-2.256 2.246-2.256zm2.236 5.381c-.264.801-1.064 1.318-2.109 1.318-1.455 0-2.403-1.025-2.403-2.519v-.176h7.217v-.869c0-3.184-1.924-5.244-4.971-5.244-3.095 0-5.048 2.168-5.048 5.507 0 3.35 1.933 5.411 5.156 5.411 2.588 0 4.463-1.377 4.775-3.428zm4.004-4.19c0 1.543 1.016 2.579 2.998 3.028l1.934.429c.937.225 1.289.518 1.289 1.045 0 .684-.655 1.114-1.739 1.114-1.132 0-1.826-.508-1.962-1.387h-2.784c.157 2.041 1.875 3.389 4.668 3.389 2.764 0 4.659-1.358 4.659-3.418 0-1.563-.85-2.393-2.95-2.862l-2.002-.429c-.918-.215-1.367-.567-1.367-1.084 0-.674.645-1.123 1.631-1.123 1.055 0 1.729.517 1.787 1.357h2.627c-.039-2.031-1.748-3.359-4.375-3.359-2.685 0-4.414 1.308-4.414 3.3z" fill="#bb271a"/><path d="m111.713 198.813 1.268.374c1.592-.712 4.794.389 6.492.927-3.127-3.466-7.838-8.557-11.233-11.766-1.114-3.886-.638-7.795-.399-11.762l.048-.328c-1.338 3.175-3.036 6.262-3.948 9.604-1.068 4.509 4.746 9.374 7.001 12.162zm96.916 19.07c-8.727-.247-12.565-.225-17.009-7.534l-3.464.1c-4.032-.179-2.351-.098-5.041-.232-4.497-.175-3.777-4.448-4.568-6.706-1.266-7.663 1.675-15.366 1.582-23.031-.033-2.721-3.883-12.352-5.259-15.796-4.312.812-8.647.967-13.022 1.185-10.083-.025-20.099-1.26-30.041-2.828-1.938 8.004-7.697 19.207-2.937 27.342 5.779 8.414 9.834 10.745 16.119 11.253 6.285.506 7.704 7.603 6.184 10.137-1.346 1.752-3.712 2.07-5.722 2.494l-4.02.189c-3.163-.106-5.991-.961-8.81-2.278-4.708-2.628-9.57-8.091-13.182-12.013.841 1.566 1.343 4.624.58 6.047-2.136 3.025-11.373 3.007-15.604 1.127-4.8053-2.136-16.4176-17.129-18.213-28.359 4.7764-9.033 11.7346-16.901 15.255-26.736-7.6735-4.896-11.7833-12.867-11.2498-21.895l.1926-1.046c-7.5503 1.414-3.6349.888-11.7571 1.502-25.8664-.079-48.6139-17.617-35.8051-44.8748.8329-1.614 1.6253-3.0815 3.0373-2.3807 1.1334.5624.9706 2.8182.4005 5.3198-7.3217 32.5697 28.4623 32.8187 50.4593 26.7917 2.1832-.598 6.5253-4.628 9.5333-5.963 4.916-2.184 10.253-3.069 15.549-3.708 13.172-1.501 29.003 5.438 37.047 5.665s19.486-1.926 26.511-1.473c5.096.233 10.101 1.153 15.018 2.464 3.183-15.5098 3.409-26.9408 10.954-29.5872 4.429.6995 7.841 6.7345 10.367 9.959l.011-.0018c5.144-.2029 10.04 1.1022 14.907 2.5508 8.812-1.2506 16.207-6.1992 23.989-10.0488-.024.1213-.152.1624-.227.244-7.659 6.1938-8.729 16.667-7.828 26.353.336 5.026-1.085 10.482-2.84 15.628-3.286 8.383-9.63 17.22-16.995 16.767-2.783-.088-4.401-1.664-6.47-3.347-.401 3.409-1.979 6.45-3.499 9.465-3.512 6.685-12.689 9.63-21.187 16.768-8.496 7.137 2.719 32.629 5.439 37.273 2.719 4.645 10.309 6.345 7.364 10.537-.901 1.385-2.279 1.88-3.751 2.417z" fill="#fff"/></g></svg>