<svg fill="none" height="300" viewBox="0 0 300 300" width="300" xmlns="http://www.w3.org/2000/svg"><g fill="#fff"><path d="m240 206.25c-.014 8.947-3.574 17.523-9.901 23.849-6.326 6.327-14.902 9.887-23.849 9.901h-97.664c5.971-7.174 11.523-14.687 16.629-22.5h81.035c2.984 0 5.845-1.185 7.955-3.295s3.295-4.971 3.295-7.955-1.185-5.845-3.295-7.955-4.971-3.295-7.955-3.295h-33.75c-8.951 0-17.536-3.556-23.865-9.885s-9.885-14.914-9.885-23.865 3.556-17.536 9.885-23.865 14.914-9.885 23.865-9.885h15.905c5.561 7.799 11.517 15.309 17.845 22.5h-33.75c-2.984 0-5.845 1.185-7.955 3.295s-3.295 4.971-3.295 7.955 1.185 5.845 3.295 7.955 4.971 3.295 7.955 3.295h33.75c8.947.014 17.523 3.574 23.849 9.901 6.327 6.326 9.887 14.902 9.901 23.849z" opacity=".4"/><path d="m93.75 150c-8.9511 0-17.5355 3.556-23.8649 9.885-6.3293 6.329-9.8851 14.914-9.8851 23.865 0 18.633 33.75 56.25 33.75 56.25s33.75-37.617 33.75-56.25c0-8.951-3.556-17.536-9.885-23.865s-14.914-9.885-23.865-9.885zm0 45c-2.225 0-4.4001-.66-6.2502-1.896-1.85-1.236-3.292-2.993-4.1434-5.049-.8515-2.055-1.0743-4.317-.6402-6.5.434-2.182 1.5055-4.187 3.0788-5.76 1.5734-1.573 3.5779-2.645 5.7602-3.079s4.4443-.211 6.5.64c2.0558.852 3.8128 2.294 5.0488 4.144s1.896 4.025 1.896 6.25c0 2.984-1.185 5.845-3.295 7.955-2.1098 2.11-4.9713 3.295-7.955 3.295zm112.5-135c-8.951 0-17.536 3.5558-23.865 9.8851-6.329 6.3294-9.885 14.9138-9.885 23.8649 0 18.633 33.75 56.25 33.75 56.25s33.75-37.617 33.75-56.25c0-8.9511-3.556-17.5355-9.885-23.8649-6.329-6.3293-14.914-9.8851-23.865-9.8851zm0 45c-2.225 0-4.4-.66-6.25-1.896s-3.292-2.993-4.144-5.0488c-.851-2.0557-1.074-4.3177-.64-6.5s1.506-4.1868 3.079-5.7602c1.573-1.5733 3.578-2.6448 5.76-3.0788 2.183-.4341 4.445-.2113 6.5.6402 2.056.8514 3.813 2.2934 5.049 4.1434 1.236 1.8501 1.896 4.0252 1.896 6.2502 0 2.9837-1.185 5.8452-3.295 7.955-2.11 2.11-4.971 3.295-7.955 3.295z"/></g></svg>