<svg fill="none" height="40" viewBox="0 0 40 40" width="40" xmlns="http://www.w3.org/2000/svg"><path d="m0 20c0-11.04569 8.95431-20 20-20 11.0457 0 20 8.95431 20 20 0 11.0457-8.9543 20-20 20-11.04569 0-20-8.9543-20-20z" fill="#fff"/><path d="m30.1719 16.875-.8907-.9375c-.2343-.2344-.6093-.2344-.7968 0l-8.4844 8.4844-8.5312-8.4844c-.1876-.2344-.5626-.2344-.7969 0l-.89065.9375c-.23437.1875-.23437.5625 0 .7969l9.79685 9.7969c.2344.2343.5625.2343.7969 0l9.7969-9.7969c.2343-.2344.2343-.6094 0-.7969z" fill="currentColor"/></svg>