<svg fill="none" height="40" viewBox="0 0 40 40" width="40" xmlns="http://www.w3.org/2000/svg"><path d="m0 20c0-11.04569 8.95431-20 20-20 11.0457 0 20 8.95431 20 20 0 11.0457-8.9543 20-20 20-11.04569 0-20-8.9543-20-20z" fill="#fff"/><path d="m21.8047 20.5 5.6328-5.5781 1.1484-1.1485c.1641-.164.1641-.4375 0-.6562l-1.2031-1.2031c-.2187-.1641-.4922-.1641-.6562 0l-6.7266 6.7812-6.7812-6.7812c-.1641-.1641-.4376-.1641-.6563 0l-1.2031 1.2031c-.1641.2187-.1641.4922 0 .6562l6.7812 6.7266-6.7812 6.7812c-.1641.1641-.1641.4376 0 .6563l1.2031 1.2031c.2187.1641.4922.1641.6563 0l6.7812-6.7812 5.5781 5.6328 1.1485 1.1484c.164.1641.4375.1641.6562 0l1.2031-1.2031c.1641-.2187.1641-.4922 0-.6563z" fill="currentColor"/></svg>