<svg fill="none" height="40" viewBox="0 0 40 40" width="40" xmlns="http://www.w3.org/2000/svg"><path d="m0 20c0-11.04569 8.95431-20 20-20 11.0457 0 20 8.95431 20 20 0 11.0457-8.9543 20-20 20-11.04569 0-20-8.9543-20-20z" fill="#fff"/><path d="m20.2344 30.2188.9375-.8907c.2343-.2343.2343-.6093 0-.7969l-7.2657-7.3124h16.0313c.2813 0 .5625-.2344.5625-.5626v-1.3124c0-.2813-.2812-.5626-.5625-.5626h-16.0313l7.2657-7.2656c.2343-.1875.2343-.5625 0-.7968l-.9375-.89068c-.1875-.23437-.5625-.23437-.7969 0l-9.79688 9.79688c-.23437.2344-.23437.5625 0 .7969l9.79688 9.7969c.2344.2343.6094.2343.7969 0z" fill="currentColor"/></svg>