<svg fill="none" height="34" viewBox="0 0 34 34" width="34" xmlns="http://www.w3.org/2000/svg"><g fill="currentColor"><path d="m26.9375 12.8126c.2813 0 .5625-.2344.5625-.5625v-1.5c0-.2813-.2812-.5625-.5625-.5625h-19.875c-.32812 0-.5625.2812-.5625.5625v1.5c0 .3281.23438.5625.5625.5625zm-2 6.5c.2813 0 .5625-.2344.5625-.5625v-1.5c0-.2813-.2812-.5625-.5625-.5625h-15.875c-.32812 0-.5625.2812-.5625.5625v1.5c0 .3281.23438.5625.5625.5625zm-2 6.5c.2813 0 .5625-.2344.5625-.5625v-1.5c0-.2813-.2812-.5625-.5625-.5625h-11.875c-.3281 0-.5625.2812-.5625.5625v1.5c0 .3281.2344.5625.5625.5625z"/><path clip-rule="evenodd" d="m17 31.6259c8.0776 0 14.6258-6.5482 14.6258-14.6258 0-8.07763-6.5482-14.62582-14.6258-14.62582s-14.62579 6.54819-14.62579 14.62582c0 8.0776 6.54819 14.6258 14.62579 14.6258zm0 2.24c9.3147 0 16.8658-7.5511 16.8658-16.8658 0-9.31475-7.5511-16.865823-16.8658-16.865823-9.31472 0-16.865791 7.551073-16.865791 16.865823 0 9.3147 7.551071 16.8658 16.865791 16.8658z" fill-rule="evenodd"/></g></svg>