<svg width="40" height="40" viewBox="0 0 40 40" fill="none" xmlns="http://www.w3.org/2000/svg"><path d="M0 20C0 8.95431 8.95431 0 20 0V0C31.0457 0 40 8.95431 40 20V20C40 31.0457 31.0457 40 20 40V40C8.95431 40 0 31.0457 0 20V20Z" fill="#fff"/><path d="M28.75 9H15.75C14.4844 9 13.5 10.0312 13.5 11.25V13.5H11.25C9.98438 13.5 9 14.5312 9 15.75V28.75C9 30.0156 9.98438 31 11.25 31H24.25C25.4688 31 26.5 30.0156 26.5 28.75V26.5H28.75C29.9688 26.5 31 25.5156 31 24.25V11.25C31 10.0312 29.9688 9 28.75 9ZM23.9688 28.75H11.5312C11.3438 28.75 11.25 28.6562 11.25 28.4688V16.0312C11.25 15.8906 11.3438 15.75 11.5312 15.75H13.5V24.25C13.5 25.5156 14.4844 26.5 15.75 26.5H24.25V28.4688C24.25 28.6562 24.1094 28.75 23.9688 28.75ZM28.4688 24.25H16.0312C15.8438 24.25 15.75 24.1562 15.75 23.9688V11.5312C15.75 11.3906 15.8438 11.25 16.0312 11.25H28.4688C28.6094 11.25 28.75 11.3906 28.75 11.5312V23.9688C28.75 24.1562 28.6094 24.25 28.4688 24.25Z" fill="currentColor"/></svg>