<svg fill="none" height="40" viewBox="0 0 40 40" width="40" xmlns="http://www.w3.org/2000/svg"><path d="m0 20c0-11.04569 8.95431-20 20-20 11.0457 0 20 8.95431 20 20 0 11.0457-8.9543 20-20 20-11.04569 0-20-8.9543-20-20z" fill="#fff"/><path d="m31.2476 12.5435c.1309.0628.2412.1693.3118.3091.0038.0064.0064.0129.0102.0193.0065.0154.0129.0308.018.0462.0321.0833.0462.1693.0436.254v4.7761c0 .3772-.3053.6838-.6837.6838-.3785 0-.6838-.3066-.6838-.6838v-3.6832l-3.1148 1.5575c-.3387.1693-.7492.032-.9186-.3054-.1693-.3386-.0321-.7491.3053-.9185l2.8814-1.4407-2.8814-1.4406c-.3374-.1681-.4746-.5799-.3053-.9173.1693-.3387.5799-.4747.9186-.3066zm.3836 14.2848c.0026.1013-.0179.2027-.0615.3002-.0347.0731-.0809.1398-.1373.1963-.0577.0577-.1193.1-.1847.1321l-4.0987 2.0501c-.3387.1693-.7492.032-.9185-.3054-.1694-.3386-.0321-.7492.3053-.9185l2.8813-1.4407-2.8813-1.4407c-.3374-.1693-.4747-.5798-.3053-.9185.1693-.3374.5798-.4747.9185-.3053l3.1148 1.5574v-3.6819c0-.3784.3054-.685.6838-.685s.6838.3066.6838.685zm-21.0482.0141 2.8813 1.4407c.3374.1693.4747.5798.3053.9185-.168.3374-.5798.4747-.9172.3054l-4.09869-2.0501c-.13085-.0629-.24246-.168-.31302-.3079-.00257-.0077-.00641-.0141-.00898-.0205-.0077-.0154-.01283-.0295-.01924-.0449-.03079-.0847-.0449-.1706-.04362-.2553v-4.7749c0-.3784.30661-.685.68376-.685.37844 0 .68505.3066.68505.685v3.6819l3.11484-1.5574c.3374-.1693.7492-.0321.9173.3053.1693.3387.032.7492-.3054.9186zm-.84545-12.5774v3.6832c0 .3772-.3066.6838-.68504.6838-.37716 0-.68377-.3066-.68377-.6838v-4.7762c-.00256-.1.01796-.2027.06287-.3002.03335-.0718.07954-.1385.13598-.1962.05773-.0565.11931-.1001.18602-.1322l4.09869-2.05c.3373-.1681.7491-.0321.9172.3066.1694.3374.0321.7492-.3053.9173l-2.8813 1.4406 2.8813 1.4407c.3374.1693.4747.5798.3053.9185-.168.3374-.5798.4747-.9172.3054zm9.94485-7.18674c.0949-.05004.2027-.07826.3181-.07826.1142 0 .2232.02822.3182.07826l4.0924 2.04748c.3386.16806.4746.57985.3066.91726-.1694.3387-.5799.4747-.9186.3066l-3.1148-1.5574v3.6819c0 .3784-.3066.6837-.6838.6837-.3784 0-.685-.3053-.685-.6837v-3.6819l-3.1149 1.5574c-.3373.1681-.7491.0321-.9172-.3066-.1694-.33737-.0321-.74918.3053-.91726zm.6363 25.84344c-.095.0501-.204.0783-.3182.0783-.1154 0-.2232-.0282-.3181-.0783l-4.0938-2.0462c-.3373-.1693-.4746-.5798-.3053-.9185.1681-.3374.5799-.4747.9173-.3053l3.1148 1.5574v-3.6832c0-.3772.3066-.6838.6851-.6838.3771 0 .6837.3066.6837.6838v3.6832l3.1149-1.5574c.3386-.1694.7492-.0321.9185.3053.1681.3387.0321.7492-.3066.9185zm.3656-13.8667v3.6819c0 .3784-.3066.6837-.6838.6837-.3784 0-.685-.3053-.685-.6837v-3.6819l-3.7269-1.8641c-.3374-.1693-.4747-.5798-.3053-.9185.168-.3374.5798-.4747.9172-.3053l3.7998 1.8999 3.7985-1.8999c.3387-.1694.7492-.0321.9186.3053.168.3387.032.7492-.3066.9185z" fill="#106dc6"/></svg>