<svg width="40" height="40" viewBox="0 0 40 40" fill="none" xmlns="http://www.w3.org/2000/svg">
<rect width="40" height="40" fill="white"/>
<path d="M28.25 18.5H21.5V11.75C21.5 11.375 21.125 11 20.75 11H19.25C18.8281 11 18.5 11.375 18.5 11.75V18.5H11.75C11.3281 18.5 11 18.875 11 19.25V20.75C11 21.1719 11.3281 21.5 11.75 21.5H18.5V28.25C18.5 28.6719 18.8281 29 19.25 29H20.75C21.125 29 21.5 28.6719 21.5 28.25V21.5H28.25C28.625 21.5 29 21.1719 29 20.75V19.25C29 18.875 28.625 18.5 28.25 18.5Z" fill="currentColor"/>
</svg>
