<svg width="40" height="40" viewBox="0 0 40 40" fill="none" xmlns="http://www.w3.org/2000/svg"><path d="M0 20C0 8.95431 8.95431 0 20 0V0C31.0457 0 40 8.95431 40 20V20C40 31.0457 31.0457 40 20 40V40C8.95431 40 0 31.0457 0 20V20Z" fill="#fff"/><path d="M23.6094 17.5938C23.4219 17.4062 23.1406 17.4062 22.9531 17.5938L18.8281 21.6719L17.0469 19.8906C16.8594 19.7031 16.5312 19.7031 16.3906 19.8906L15.2656 20.9688C15.0781 21.1562 15.0781 21.4375 15.2656 21.625L18.4531 24.8594C18.6406 25.0469 18.9688 25.0469 19.1094 24.9062L24.6875 19.375C24.875 19.1875 24.875 18.9062 24.6875 18.7188L23.6094 17.5938ZM26.75 10H23C23 8.35938 21.6406 7 20 7C18.3125 7 17 8.35938 17 10H13.25C11.9844 10 11 11.0312 11 12.25V28.75C11 30.0156 11.9844 31 13.25 31H26.75C27.9688 31 29 30.0156 29 28.75V12.25C29 11.0312 27.9688 10 26.75 10ZM20 9.25C20.375 9.25 20.75 9.625 20.75 10C20.75 10.4219 20.375 10.75 20 10.75C19.5781 10.75 19.25 10.4219 19.25 10C19.25 9.625 19.5781 9.25 20 9.25ZM26.75 28.375C26.75 28.6094 26.5625 28.75 26.375 28.75H13.625C13.3906 28.75 13.25 28.6094 13.25 28.375V12.625C13.25 12.4375 13.3906 12.25 13.625 12.25H15.5V13.75C15.5 14.1719 15.8281 14.5 16.25 14.5H23.75C24.125 14.5 24.5 14.1719 24.5 13.75V12.25H26.375C26.5625 12.25 26.75 12.4375 26.75 12.625V28.375Z" fill="currentColor"/></svg>