<svg fill="none" height="34" viewBox="0 0 34 34" width="34" xmlns="http://www.w3.org/2000/svg"><path d="m27.3125 3.625h-20.625c-1.58203 0-2.8125 1.28906-2.8125 2.8125v20.625c0 1.582 1.23047 2.8125 2.8125 2.8125h20.625c1.5234 0 2.8125-1.2305 2.8125-2.8125v-20.625c0-1.52344-1.2891-2.8125-2.8125-2.8125z" fill="#106dc6"/><path d="m8.5625 18.3906c0 .4102.29297.7032.70312.7032h15.46878c.3515 0 .7031-.293.7031-.7032v-3.2812c0-.3516-.3516-.7032-.7031-.7032h-15.46878c-.41015 0-.70312.3516-.70312.7032z" fill="#fff"/></svg>