<svg fill="none" height="34" viewBox="0 0 34 34" width="34" xmlns="http://www.w3.org/2000/svg"><path d="m27.3125 3.625h-20.625c-1.58203 0-2.8125 1.28906-2.8125 2.8125v20.625c0 1.582 1.23047 2.8125 2.8125 2.8125h20.625c1.5234 0 2.8125-1.2305 2.8125-2.8125v-20.625c0-1.52344-1.2891-2.8125-2.8125-2.8125z" fill="#106dc6"/><path d="m24.5937 14.4087.2461-1.4063c.0703-.2812-.1406-.5273-.4219-.5273h-2.6015l.4921-2.84766c.0704-.28125-.1406-.52734-.4218-.52734h-1.4063c-.2109 0-.3867.17578-.4219.35156l-.5273 3.02344h-3.4805l.5274-2.84766c.0351-.28125-.1758-.52734-.4219-.52734h-1.4414c-.1758 0-.3867.17578-.4219.35156l-.5273 3.02344h-2.7774c-.2109 0-.3867.1758-.4218.3516l-.2461 1.4062c-.0352.2813.1406.4922.4218.4922h2.6368l-.8086 4.5h-2.77738c-.21093 0-.38671.1758-.42187.3516l-.24609 1.4062c-.07032.2813.14062.4922.42187.4922h2.60157l-.4922 2.8828c-.0703.2813.1406.4922.4219.4922h1.4062c.211 0 .3867-.1406.4219-.3164l.5273-3.0586h3.4805l-.5273 2.8828c-.0352.2813.1758.4922.4218.4922h1.4415c.1757 0 .3867-.1406.4218-.3164l.5274-3.0586h2.7773c.211 0 .3867-.1406.4219-.3164l.2461-1.4063c.0351-.2812-.1406-.5273-.4219-.5273h-2.6367l.8086-4.5h2.7773c.211 0 .3867-.1406.4219-.3164zm-6.293 4.8164h-3.4453l.8086-4.5h3.4453z" fill="#fff"/></svg>