<svg fill="none" height="25" viewBox="0 0 24 25" width="24" xmlns="http://www.w3.org/2000/svg"><path d="m14.7599 9.28125c2.3906 2.39065 2.5312 6.23435.4219 8.76565-.2813.375-.0938.1875-3.9375 4.0312-2.57816 2.5781-6.75004 2.5781-9.28129 0-2.578122-2.5312-2.578122-6.7031 0-9.2812 1.5-1.5 2.39063-2.3907 2.95313-2.95315.32812-.32813.9375-.09375.9375.37505.04687.5156.14062 1.3124.23437 1.7812.04688.1875 0 .375-.14062.5156l-2.15625 2.1563c-1.54688 1.5469-1.54688 4.0312 0 5.5781 1.54687 1.5469 4.03125 1.5469 5.57812 0l3.51564-3.5156c1.5469-1.5469 1.5469-4.0313 0-5.5782-.2344-.2812-.75-.6093-1.0781-.75-.1875-.1406-.3282-.375-.2813-.60932.0469-.51563.2813-1.03126.7031-1.40626l.1875-.1875c.1875-.1875.4219-.23437.6563-.14062.6094.32812 1.1719.70312 1.6875 1.21875zm7.3125-7.3125c2.5781 2.53125 2.5781 6.70313 0 9.28125-1.5 1.5-2.3906 2.3906-2.9531 2.9531-.3282.3281-.9375.0938-.9375-.375-.0469-.5156-.1407-1.3125-.2344-1.7812-.0469-.1875 0-.375.1406-.5157l2.1563-2.1562c1.5468-1.54688 1.5468-4.03125 0-5.57812-1.5469-1.54688-4.0313-1.54688-5.5782 0l-3.5156 3.51562c-1.54686 1.54688-1.54686 4.0313 0 5.5781.2344.2813.75.6094 1.0781.75.1875.1406.3282.375.2813.6094-.0469.5156-.2813 1.0312-.7031 1.4062l-.1875.1876c-.1875.1874-.4219.2343-.6563.1406-.6094-.3282-1.17186-.7032-1.68749-1.2188-2.39062-2.3906-2.53125-6.23435-.42187-8.7656.28125-.375.09375-.1875 3.93746-4.03125 2.5782-2.578125 6.75-2.578125 9.2813 0z" fill="currentColor"/></svg>