<svg fill="none" height="96" viewBox="0 0 96 96" width="96" xmlns="http://www.w3.org/2000/svg"><path d="m12.4922 32.1094v1.125c0 .8437.4219 1.4062 1.4062 1.4062h9.1407c.9843 0 1.4062-.5625 1.4062-1.4062v-1.125c0-.8438-.4219-1.2656-1.4062-1.2656h-2.3907v-12.9376c0-.8437-.5625-1.4062-1.4062-1.4062h-1.4063c-.7031 0-1.2656.2812-1.6875.7031l-3.2343 2.9531c-.5625.7032-.5625 1.2657 0 1.9688l.7031.7031c.5625.7031 1.2656.7031 1.8281.1407l.2813-.2813c.2812-.2813.5625-.8437.5625-.8437v1.4062 7.5938h-2.3907c-.9843 0-1.4062.4218-1.4062 1.2656zm-.2813 23.0625v.5625c0 .8437.7032 1.4062 1.5469 1.4062h9.5625c.8438 0 1.4063-.5625 1.4063-1.4062v-.9844c0-.9844-.5625-1.4062-1.4063-1.4062h-6.3281c.2812-2.25 7.4531-3.375 7.4531-8.8594 0-3.7969-3.2344-5.4844-6.0469-5.4844-2.9531 0-4.6406 1.5469-5.4843 2.6719-.5625.7031-.4219 1.2656.2812 1.8281l.9844.8438c.7031.5624 1.2656.2812 1.9687-.2813.4219-.4219.9844-.8437 1.8282-.8437.9843 0 1.9687.4218 1.9687 1.6874 0 2.5313-7.7344 3.6563-7.7344 10.2657zm.4219 20.9531c-.4219.7031-.4219 1.4062.2813 1.9688.9843.7031 2.6718 1.4062 5.0625 1.4062 4.5 0 6.6093-2.9531 6.6093-5.9062 0-2.5313-1.6875-4.6407-4.3593-5.2032l3.0937-3.375c.4219-.5625.5625-.9844.5625-1.6875v-.4219c0-.8437-.4219-1.4062-1.4062-1.4062h-8.4375c-.8438 0-1.2657.5625-1.2657 1.4062v.9844c0 .9844.4219 1.4063 1.2657 1.4063h2.9531c1.125 0 1.6875-.1407 1.6875-.1407s-.7031.7032-1.5469 1.6876l-1.6875 1.9687c-.4219.5625-.5625 1.2656-.2812 1.8281l.1406.1406c.2812.7032.7031.9844 1.5469.9844h.1406c1.8281 0 3.2344.5625 3.2344 1.9688 0 .9844-.9844 1.6875-2.5313 1.6875-.9844 0-1.8281-.2813-2.5312-.7031-.7032-.4219-1.4063-.4219-1.8282.4218zm71.1563-48.9375v-3.375c0-.4219-.4219-.8437-.8438-.8437h-52.3125c-.5625 0-.8437.4218-.8437.8437v3.375c0 .5625.2812.8437.8437.8437h52.3125c.4219 0 .8438-.2812.8438-.8437zm0 22.5v-3.375c0-.4219-.4219-.8437-.8438-.8437h-52.3125c-.5625 0-.8437.4218-.8437.8437v3.375c0 .5625.2812.8437.8437.8437h52.3125c.4219 0 .8438-.2812.8438-.8437zm0 22.5v-3.375c0-.4219-.4219-.8437-.8438-.8437h-52.3125c-.5625 0-.8437.4218-.8437.8437v3.375c0 .5625.2812.8437.8437.8437h52.3125c.4219 0 .8438-.2812.8438-.8437z" fill="#ef7b00"/></svg>