<svg fill="none" height="96" viewBox="0 0 96 96" width="96" xmlns="http://www.w3.org/2000/svg"><path d="m77.25 16.5h-58.5c-3.7969 0-6.75 3.0938-6.75 6.75v9c0 1.2656.9844 2.25 2.25 2.25h2.25v38.25c0 3.7969 2.9531 6.75 6.75 6.75h49.5c3.6562 0 6.75-2.9531 6.75-6.75v-38.25h2.25c1.125 0 2.25-.9844 2.25-2.25v-9c0-3.6562-3.0938-6.75-6.75-6.75zm-2.25 56.25c0 1.2656-1.125 2.25-2.25 2.25h-49.5c-1.2656 0-2.25-.9844-2.25-2.25v-38.25h54zm4.5-42.75h-63v-6.75c0-1.125.9844-2.25 2.25-2.25h58.5c1.125 0 2.25 1.125 2.25 2.25zm-38.8125 18h14.625c.8437 0 1.6875-.7031 1.6875-1.6875v-1.125c0-.8437-.8438-1.6875-1.6875-1.6875h-14.625c-.9844 0-1.6875.8438-1.6875 1.6875v1.125c0 .9844.7031 1.6875 1.6875 1.6875z" fill="#9d3489"/></svg>