<svg fill="none" height="16" viewBox="0 0 16 16" width="16" xmlns="http://www.w3.org/2000/svg" xmlns:xlink="http://www.w3.org/1999/xlink"><clipPath id="a"><path d="m0 0h16v16h-16z"/></clipPath><g clip-path="url(#a)"><path d="m15.875 14.6562-3.7812-3.7812c-.0938-.0625-.1876-.125-.2813-.125h-.4063c.9688-1.125 1.5938-2.625 1.5938-4.25 0-3.5625-2.9375-6.5-6.5-6.5-3.59375 0-6.5 2.9375-6.5 6.5 0 3.5938 2.90625 6.5 6.5 6.5 1.625 0 3.09375-.5938 4.25-1.5625v.4063c0 .0937.0312.1874.0938.2812l3.7812 3.7812c.1562.1563.4062.1563.5312 0l.7188-.7187c.1562-.125.1562-.375 0-.5313zm-9.375-3.1562c-2.78125 0-5-2.21875-5-5 0-2.75 2.21875-5 5-5 2.75 0 5 2.25 5 5 0 2.78125-2.25 5-5 5z" fill="#fff"/></g></svg>