<svg width="16" height="16" viewBox="0 0 16 16" fill="none" xmlns="http://www.w3.org/2000/svg"><path d="M3.09375 8.75C2.9375 8.90625 2.9375 9.15625 3.09375 9.28125L3.71875 9.90625C3.84375 10.0625 4.09375 10.0625 4.25 9.90625L7.1875 6.875V14.625C7.1875 14.8438 7.34375 15 7.5625 15H8.4375C8.625 15 8.8125 14.8438 8.8125 14.625V6.875L11.7188 9.90625C11.875 10.0625 12.125 10.0625 12.25 9.90625L12.875 9.28125C13.0312 9.15625 13.0312 8.90625 12.875 8.75L8.25 4.125C8.09375 3.96875 7.875 3.96875 7.71875 4.125L3.09375 8.75ZM2.375 2.625H13.625C13.8125 2.625 14 2.46875 14 2.25V1.375C14 1.1875 13.8125 1 13.625 1H2.375C2.15625 1 2 1.1875 2 1.375V2.25C2 2.46875 2.15625 2.625 2.375 2.625Z" fill="currentColor"/></svg>