<svg fill="none" height="16" viewBox="0 0 16 16" width="16" xmlns="http://www.w3.org/2000/svg"><path d="m8 15.75c4.2812 0 7.75-3.4688 7.75-7.75 0-4.28125-3.4688-7.75-7.75-7.75-4.28125 0-7.75 3.46875-7.75 7.75 0 4.2812 3.46875 7.75 7.75 7.75zm.875-4.4688c.3125.2813.3125.7813.03125 1.0626l-.34375.3437c-.28125.2813-.78125.2813-1.0625 0l-4.15625-4.15625c-.28125-.28125-.28125-.75 0-1.0625l4.15625-4.125c.28125-.3125.75-.3125 1.0625 0l.34375.34375c.28125.28125.28125.78125-.03125 1.0625l-2.34375 2.25h5.71875c.4062 0 .75.34375.75.75v.5c0 .4375-.3438.75-.75.75h-5.71875z" fill="#fff"/></svg>