<svg fill="none" height="40" viewBox="0 0 40 40" width="40" xmlns="http://www.w3.org/2000/svg"><path d="m0 20c0-11.04569 8.95431-20 20-20 11.0457 0 20 8.95431 20 20 0 11.0457-8.9543 20-20 20-11.04569 0-20-8.9543-20-20z" fill="#fff"/><g fill="currentColor"><path d="m14.8048 11.734.9375.9375c.2344.1875.5625.1875.7969-.0469l2.2421-2.3358v11.125c0 .3281.2343.5625.5625.5625h1.3125c.2812 0 .5625-.2344.5625-.5625v-11.125l2.1951 2.3358c.2344.2344.5625.2344.7969.0469l.9375-.9375c.1875-.2344.1875-.5625 0-.7969l-4.7733-4.77328c-.2344-.1875-.5625-.1875-.7969 0l-4.7733 4.77328c-.1875.2344-.1875.5625 0 .7969z"/><path d="m16.7812 16.3763c0-.2209-.179-.4-.4-.4h-1.1312c-1.2656 0-2.25 1.0313-2.25 2.25v9.5c0 1.2656.9844 2.25 2.25 2.25h9.5c1.2188 0 2.25-.9844 2.25-2.25v-9.5c0-1.2187-1.0312-2.25-2.25-2.25h-1.1313c-.2209 0-.3999.1791-.3999.4v1.45c0 .2209.179.4.3999.4h.8501c.1406 0 .2812.1406.2812.2813v8.9375c0 .1875-.1406.2812-.2812.2812h-8.9376c-.1874 0-.2812-.0937-.2812-.2812v-8.9375c0-.1407.0938-.2813.2812-.2813h.85c.221 0 .4-.1791.4-.4z"/></g></svg>