<svg fill="none" height="40" viewBox="0 0 40 40" width="40" xmlns="http://www.w3.org/2000/svg"><path d="m0 20c0-11.04569 8.95431-20 20-20 11.0457 0 20 8.95431 20 20 0 11.0457-8.9543 20-20 20-11.04569 0-20-8.9543-20-20z" fill="#fff"/><path d="m30.3926 18.0488-14.5-7.75c-1.3594-.7969-3.375 0-3.375 1.9219v15.5c0 1.7812 1.875 2.8593 3.375 1.9687l14.5-7.75c1.4531-.8906 1.4531-3 0-3.8906zm-15.625 9.2031v-14.5156c0-.2344.2344-.375.4219-.2344l13.6562 7.2344c.1875.1406.1875.375 0 .5156l-13.6562 7.2344c-.1875.0937-.4219 0-.4219-.2344z" fill="#543404"/></svg>