<svg width="16" height="16" viewBox="0 0 16 16" fill="none" xmlns="http://www.w3.org/2000/svg">
<path fill-rule="evenodd" clip-rule="evenodd" d="M7.99995 15.8C12.3078 15.8 15.8 12.3078 15.8 7.99995C15.8 3.69213 12.3078 0.199951 7.99995 0.199951C3.69213 0.199951 0.199951 3.69213 0.199951 7.99995C0.199951 12.3078 3.69213 15.8 7.99995 15.8ZM3.9375 7.72095C3.78125 7.5647 3.78125 7.3147 3.9375 7.1897L7.71875 3.3772C7.875 3.22095 8.09375 3.22095 8.25 3.3772L12.0312 7.1897C12.1875 7.3147 12.1875 7.5647 12.0312 7.72095L11.4375 8.3147C11.2812 8.47095 11.0312 8.47095 10.9062 8.3147L8.8125 6.1272V12.1272C8.8125 12.3459 8.625 12.5022 8.4375 12.5022H7.5625C7.34375 12.5022 7.1875 12.3459 7.1875 12.1272V6.1272L5.0625 8.3147C4.9375 8.47095 4.6875 8.47095 4.53125 8.3147L3.9375 7.72095Z" fill="white"/>
</svg>
