<svg class="pause" fill="none" height="40" viewBox="0 0 40 40" width="40" xmlns="http://www.w3.org/2000/svg"><path d="m0 20c0-11.04569 8.95431-20 20-20 11.0457 0 20 8.95431 20 20 0 11.0457-8.9543 20-20 20-11.04569 0-20-8.9543-20-20z" fill="#fff"/><path d="m18.5 12.75c0-1.2188-1.0312-2.25-2.25-2.25h-2.5c-1.2656 0-2.25 1.0312-2.25 2.25v14.5c0 1.2656.9844 2.25 2.25 2.25h2.5c1.2188 0 2.25-.9844 2.25-2.25zm-2.25 14.2188c0 .1874-.1406.2812-.2812.2812h-1.9376c-.1874 0-.2812-.0938-.2812-.2812v-13.9376c0-.1406.0938-.2812.2812-.2812h1.9376c.1406 0 .2812.1406.2812.2812zm12.25-14.2188c0-1.2188-1.0312-2.25-2.25-2.25h-2.5c-1.2656 0-2.25 1.0312-2.25 2.25v14.5c0 1.2656.9844 2.25 2.25 2.25h2.5c1.2188 0 2.25-.9844 2.25-2.25zm-2.25 14.2188c0 .1874-.1406.2812-.2812.2812h-1.9376c-.1874 0-.2812-.0938-.2812-.2812v-13.9376c0-.1406.0938-.2812.2812-.2812h1.9376c.1406 0 .2812.1406.2812.2812z" fill="currentColor"/></svg>
