<svg fill="none" height="40" viewBox="0 0 40 40" width="40" xmlns="http://www.w3.org/2000/svg"><path d="m0 20c0-11.04569 8.95431-20 20-20 11.0457 0 20 8.95431 20 20 0 11.0457-8.9543 20-20 20-11.04569 0-20-8.9543-20-20z" fill="#fff"/><path d="m31.8125 29.9844-5.6719-5.6719c-.1406-.0937-.2812-.1875-.4218-.1875h-.6094c1.4531-1.6875 2.3906-3.9375 2.3906-6.375 0-5.3438-4.4062-9.75-9.75-9.75-5.3906 0-9.75 4.4062-9.75 9.75 0 5.3906 4.3594 9.75 9.75 9.75 2.4375 0 4.6406-.8906 6.375-2.3438v.6094c0 .1406.0469.2813.1406.4219l5.6719 5.6719c.2344.2344.6094.2344.7969 0l1.0781-1.0782c.2344-.1874.2344-.5624 0-.7968zm-14.0625-4.7344c-4.1719 0-7.5-3.3281-7.5-7.5 0-4.125 3.3281-7.5 7.5-7.5 4.125 0 7.5 3.375 7.5 7.5 0 4.1719-3.375 7.5-7.5 7.5z" fill="currentColor"/></svg>