<svg fill="none" height="16" viewBox="0 0 16 16" width="16" xmlns="http://www.w3.org/2000/svg"><path clip-rule="evenodd" d="m7.99995 15.8c4.30785 0 7.80005-3.4922 7.80005-7.80005 0-4.30782-3.4922-7.799999-7.80005-7.799999-4.30782 0-7.799999 3.492179-7.799999 7.799999 0 4.30785 3.492179 7.80005 7.799999 7.80005zm-.17573-3.872c-.15625.1562-.40625.1562-.53125 0l-3.8125-3.78127c-.15625-.15625-.15625-.375 0-.53125l3.8125-3.78125c.125-.15625.375-.15625.53125 0l.59375.59375c.15625.15625.15625.40625 0 .53125l-2.1875 2.09375h6.00003c.2187 0 .375.1875.375.375v.875c0 .21875-.1563.375-.375.375h-6.00003l2.1875 2.12502c.15625.125.15625.375 0 .5312z" fill="#fff" fill-rule="evenodd"/></svg>