<svg fill="none" height="16" viewBox="0 0 16 16" width="16" xmlns="http://www.w3.org/2000/svg"><path d="m.25 8c0 4.2812 3.46875 7.75 7.75 7.75 4.2812 0 7.75-3.4688 7.75-7.75 0-4.28125-3.4688-7.75-7.75-7.75-4.28125 0-7.75 3.46875-7.75 7.75zm4.46875.90625c-.28125.3125-.78125.3125-1.0625.03125l-.34375-.34375c-.3125-.3125-.3125-.78125 0-1.0625l4.15625-4.15625c.28125-.28125.75-.28125 1.0625 0l4.12495 4.15625c.3126.28125.3126.75 0 1.0625l-.3437.34375c-.2813.28125-.7813.28125-1.0625-.03125l-2.25-2.34375v5.6875c0 .4375-.34375.75-.75.75h-.5c-.4375 0-.75-.3125-.75-.75v-5.6875z" fill="#fff"/></svg>