<svg fill="none" height="16" viewBox="0 0 16 16" width="16" xmlns="http://www.w3.org/2000/svg"><path clip-rule="evenodd" d="m7.99995 15.8c4.30785 0 7.80005-3.4922 7.80005-7.80005 0-4.30782-3.4922-7.799999-7.80005-7.799999-4.30782 0-7.799999 3.492179-7.799999 7.799999 0 4.30785 3.492179 7.80005 7.799999 7.80005zm-4.06245-8.07905c-.15625-.15625-.15625-.40625 0-.53125l3.78125-3.8125c.15625-.15625.375-.15625.53125 0l3.7812 3.8125c.1563.125.1563.375 0 .53125l-.5937.59375c-.1563.15625-.4063.15625-.5313 0l-2.0937-2.1875v6c0 .2187-.1875.375-.375.375h-.875c-.21875 0-.375-.1563-.375-.375v-6l-2.125 2.1875c-.125.15625-.375.15625-.53125 0z" fill="#fff" fill-rule="evenodd"/></svg>