<svg fill="none" height="34" viewBox="0 0 34 34" width="34" xmlns="http://www.w3.org/2000/svg"><path clip-rule="evenodd" d="m17 33.8659c9.3147 0 16.8658-7.5511 16.8658-16.8658 0-9.31475-7.5511-16.865823-16.8658-16.865823-9.31472 0-16.865795 7.551073-16.865795 16.865823 0 9.3147 7.551075 16.8658 16.865795 16.8658zm10.5-21.6159c0 .3281-.2812.5625-.5625.5625h-19.875c-.32812 0-.5625-.2344-.5625-.5625v-1.5c0-.2812.23438-.5625.5625-.5625h19.875c.2813 0 .5625.2813.5625.5625zm-2 6.5c0 .3281-.2812.5625-.5625.5625h-15.875c-.32812 0-.5625-.2344-.5625-.5625v-1.5c0-.2812.23438-.5625.5625-.5625h15.875c.2813 0 .5625.2813.5625.5625zm-2 6.5c0 .3281-.2812.5625-.5625.5625h-11.875c-.3281 0-.5625-.2344-.5625-.5625v-1.5c0-.2812.2344-.5625.5625-.5625h11.875c.2813 0 .5625.2813.5625.5625z" fill="#106dc6" fill-rule="evenodd"/></svg>