<svg width="2500" height="600" viewBox="0 0 2500 600" fill="none" xmlns="http://www.w3.org/2000/svg"><g clip-path="url(#clip0)"><rect opacity=".27" x="2282.48" y="117.624" width="9" height="9" transform="rotate(112 2282.48 117.624)" fill="#9D3489"/><rect opacity=".3" x="330.615" y="588.222" width="10" height="10" transform="rotate(-68 330.615 588.222)" fill="#EF7B00"/><rect opacity=".63" x="797.181" y="482.229" width="10" height="10" transform="rotate(-140 797.181 482.229)" fill="#0D87CA"/><rect opacity=".78" x="2438.56" y="308.128" width="9" height="9" transform="rotate(100 2438.56 308.128)" fill="#9D3489"/><rect opacity=".76" x="1827.97" y="466.255" width="8" height="8" transform="rotate(-143 1827.97 466.255)" fill="#E51F2E"/><rect opacity=".53" x="2210.37" y="500.062" width="9" height="9" transform="rotate(-93 2210.37 500.062)" fill="#EF7B00"/><rect opacity=".13" x="456.201" y="319.377" width="8" height="8" transform="rotate(-24 456.201 319.377)" fill="#449934"/><rect opacity=".47" x="722.938" y="567.578" width="9" height="9" transform="rotate(135 722.938 567.578)" fill="#0D87CA"/><rect opacity=".47" x="1633.12" y="20.516" width="9" height="9" transform="rotate(146 1633.12 20.5161)" fill="#E51F2E"/><rect opacity=".27" x="2016.93" y="400.882" width="8" height="8" transform="rotate(-65 2016.93 400.882)" fill="#FCC200"/><path opacity=".12" d="M942.078 220.015L949.665 222.882L941.883 229.953L934.296 227.085L942.078 220.015Z" fill="#EF7B00"/><path opacity=".41" d="M2203.61 346.293L2200.78 337.736L2212.33 339.511L2215.16 348.068L2203.61 346.293Z" fill="#0D87CA"/><path opacity=".27" d="M1930.68 327.963L1929.89 320.796L1938.63 324.106L1939.42 331.273L1930.68 327.963Z" fill="#FCC200"/><path opacity=".49" d="M2021.71 309.344L2017.1 314.891L2013.41 306.304L2018.02 300.757L2021.71 309.344Z" fill="#9D3489"/><path opacity=".26" d="M1808.93 373.461L1802.49 370.221L1810.02 364.693L1816.46 367.933L1808.93 373.461Z" fill="#E51F2E"/><path opacity=".54" d="M2359.73 25.9294L2358.74 16.9714L2369.67 21.1089L2370.65 30.0669L2359.73 25.9294Z" fill="#EF7B00"/><path opacity=".96" d="M2422.07 367.285L2431.08 367.553L2425.46 377.797L2416.45 377.528L2422.07 367.285Z" fill="#9D3489"/><path opacity=".34" d="M416.243 430.873L422.626 434.225L414.995 439.62L408.611 436.268L416.243 430.873Z" fill="#E51F2E"/><path opacity=".15" d="M2367.63 583.86L2366.04 575.906L2376.16 578.758L2377.75 586.712L2367.63 583.86Z" fill="#EF7B00"/><path opacity=".57" d="M1075.44 52.5699L1078.12 61.1747L1066.6 59.1979L1063.92 50.5931L1075.44 52.5699Z" fill="#449934"/><path opacity=".55" d="M551.414 145.082L546.854 137.733L552.714 129.455L557.275 136.804L551.414 145.082Z" fill="#EF7B00"/><path d="M1761.97 235.68L1768.58 241.26L1765.56 250.944L1758.95 245.364L1761.97 235.68Z" fill="#0D87CA"/><path opacity=".81" d="M2478.28 219.504L2480.55 212.969L2488.65 212.445L2486.37 218.98L2478.28 219.504Z" fill="#449934"/><path opacity=".32" d="M603.587 217.113L610.51 211.93L619.267 217.047L612.344 222.23L603.587 217.113Z" fill="#FCC200"/><path opacity=".53" d="M1573.55 438.446L1570.07 444.428L1562.02 443.397L1565.5 437.416L1573.55 438.446Z" fill="#449934"/><path opacity=".97" d="M1564.37 333.718L1561.43 340.926L1552.3 341.038L1555.24 333.83L1564.37 333.718Z" fill="#E51F2E"/><path opacity=".55" d="M1622.13 381.281L1620.27 373.722L1627.59 368.267L1629.45 375.825L1622.13 381.281Z" fill="#0D87CA"/><path opacity=".96" d="M1548.08 231.263L1553.67 235.347L1551.8 243.244L1546.22 239.159L1548.08 231.263Z" fill="#EF7B00"/><path opacity=".47" d="M1300.68 240.081L1293.58 245.02L1285 239.601L1292.1 234.662L1300.68 240.081Z" fill="#0D87CA"/><path opacity=".52" d="M2110.89 20.2177L2104.31 18.0592L2103.65 9.97244L2110.22 12.1309L2110.89 20.2177Z" fill="#449934"/><path opacity=".58" d="M1030.75 7.34479L1042.22 10.4922L1049.1 20.1929L1037.63 17.0455L1030.75 7.34479Z" fill="#EF7B00"/><path opacity=".51" d="M1998.19 541.399L1983.62 538.475L1974.19 526.978L1988.77 529.903L1998.19 541.399Z" fill="#E51F2E"/><path opacity=".78" d="M412.457 537.135L425.779 543.733L431.907 557.277L418.586 550.679L412.457 537.135Z" fill="#E51F2E"/><path opacity=".85" d="M852.431 349.151L857.766 359.78L855.161 371.384L849.826 360.755L852.431 349.151Z" fill="#E51F2E"/><path opacity=".91" d="M1788.63 88.233L1802.17 94.3615L1808.77 107.683L1795.23 101.555L1788.63 88.233Z" fill="#0D87CA"/><path opacity=".62" d="M1249.26 35.8948L1240.76 27.5818L1239.44 15.7619L1247.95 24.0749L1249.26 35.8948Z" fill="#449934"/><path opacity=".84" d="M1043.26 246.365L1032.15 256.245L1017.29 256.854L1028.4 246.973L1043.26 246.365Z" fill="#FCC200"/><path opacity=".58" d="M64.4849 409.209L52.8257 399.986L49.6471 385.463L61.3062 394.686L64.4849 409.209Z" fill="#449934"/><path opacity=".81" d="M2104.6 403.728L2091.82 411.308L2077.12 409.071L2089.91 401.491L2104.6 403.728Z" fill="#9D3489"/><path opacity=".93" d="M1293.87 405.291L1295.8 393.556L1304.73 385.699L1302.8 397.434L1293.87 405.291Z" fill="#449934"/><ellipse opacity=".25" cx="702.844" cy="214.289" rx="4.5" ry="7.393" transform="rotate(-106 702.844 214.289)" fill="#449934"/><ellipse opacity=".15" cx="2190.53" cy="189.036" rx="5" ry="8.214" transform="rotate(141 2190.53 189.036)" fill="#449934"/><ellipse opacity=".56" cx="841.646" cy="323.101" rx="4.5" ry="7.393" transform="rotate(-166 841.646 323.101)" fill="#9D3489"/><ellipse opacity=".96" cx="596.545" cy="275.117" rx="5" ry="8.214" transform="rotate(47 596.545 275.117)" fill="#9D3489"/><ellipse opacity=".29" cx="1899.46" cy="207.109" rx="5" ry="8.214" transform="rotate(-149 1899.46 207.109)" fill="#0D87CA"/><ellipse opacity=".61" cx="534.216" cy="248.31" rx="4" ry="6.571" transform="rotate(-107 534.216 248.31)" fill="#E51F2E"/><ellipse opacity=".33" cx="1042.49" cy="477.64" rx="4.5" ry="7.393" transform="rotate(-66 1042.49 477.64)" fill="#FCC200"/><ellipse opacity=".78" cx="674.039" cy="57.191" rx="4.5" ry="7.393" transform="rotate(103 674.039 57.191)" fill="#EF7B00"/><ellipse opacity=".73" cx="293.098" cy="405.055" rx="4.5" ry="7.393" transform="rotate(-69 293.098 405.055)" fill="#449934"/><ellipse opacity=".38" cx="851.136" cy="256.7" rx="5" ry="8.214" transform="rotate(153 851.136 256.7)" fill="#EF7B00"/><circle opacity=".67" cx="1824.62" cy="66.245" r="4" transform="rotate(25 1824.62 66.2446)" fill="#E51F2E"/><circle opacity=".54" cx="1753.72" cy="78.711" r="4" transform="rotate(-58 1753.72 78.7111)" fill="#0D87CA"/><circle opacity=".64" cx="1998.21" cy="466.964" r="5" transform="rotate(62 1998.21 466.964)" fill="#EF7B00"/><circle opacity=".43" cx="1665.09" cy="242.344" r="4" transform="rotate(-173 1665.09 242.344)" fill="#FCC200"/><circle opacity=".49" cx="1438.4" cy="19.186" r="4.5" transform="rotate(-85 1438.4 19.1862)" fill="#449934"/><circle opacity=".59" cx="2355.85" cy="172.142" r="4" transform="rotate(-80 2355.85 172.142)" fill="#FCC200"/><circle opacity=".26" cx="2208.14" cy="166.647" r="4.5" transform="rotate(39 2208.14 166.647)" fill="#E51F2E"/><circle opacity=".9" cx="739.824" cy="530.83" r="5" transform="rotate(-174 739.824 530.83)" fill="#E51F2E"/><circle opacity=".59" cx="528.721" cy="156.258" r="4.5" transform="rotate(65 528.721 156.258)" fill="#FCC200"/><circle opacity=".13" cx="1403.58" cy="513.89" r="5" transform="rotate(-177 1403.58 513.89)" fill="#FCC200"/><rect opacity=".52" x="1190.49" y="338.801" width="10" height="10" transform="rotate(-131 1190.49 338.801)" fill="#449934"/><rect opacity=".17" x="1264.1" y="531.916" width="8" height="8" transform="rotate(148 1264.1 531.916)" fill="#FCC200"/><rect opacity=".54" x="1803.99" y="588.291" width="10" height="10" transform="rotate(-131 1803.99 588.291)" fill="#EF7B00"/><rect opacity=".15" x="1645.13" y="554.469" width="9" height="9" transform="rotate(137 1645.13 554.469)" fill="#EF7B00"/><rect opacity=".63" x="2451.44" y="207.005" width="8" height="8" transform="rotate(-52 2451.44 207.005)" fill="#FCC200"/><rect opacity=".43" x="2247.33" y="233.357" width="10" height="10" transform="rotate(32 2247.33 233.357)" fill="#449934"/><rect opacity=".24" x="2173.45" y="254.216" width="9" height="9" transform="rotate(-136 2173.45 254.216)" fill="#0D87CA"/><rect opacity=".55" x="421.732" y="36.655" width="9" height="9" transform="rotate(-80 421.732 36.6552)" fill="#FCC200"/><rect opacity=".19" x="1919.54" y="207.505" width="10" height="10" transform="rotate(90 1919.54 207.505)" fill="#EF7B00"/><rect opacity=".55" x="1506.23" y="570.256" width="10" height="10" transform="rotate(-77 1506.23 570.256)" fill="#9D3489"/><path opacity=".14" d="M2074.78 467.948L2076.24 476.842L2065.11 473.282L2063.65 464.388L2074.78 467.948Z" fill="#EF7B00"/><path opacity=".57" d="M151.996 20.7051L145.555 17.4651L153.092 11.9375L159.532 15.1775L151.996 20.7051Z" fill="#449934"/><path opacity=".19" d="M1815.15 248.329L1819.2 240.278L1826.11 249.699L1822.06 257.75L1815.15 248.329Z" fill="#9D3489"/><path opacity=".92" d="M1474.08 452.536L1478.93 446.033L1483.58 455.462L1478.74 461.965L1474.08 452.536Z" fill="#0D87CA"/><path opacity=".62" d="M1245.82 550.639L1246.14 558.743L1236.59 554.343L1236.27 546.238L1245.82 550.639Z" fill="#E51F2E"/><path opacity=".92" d="M1337.81 52.2559L1334.57 58.6967L1329.04 51.1604L1332.28 44.7195L1337.81 52.2559Z" fill="#E51F2E"/><path opacity=".98" d="M1027.02 529.22L1019.39 526.485L1027.04 519.28L1034.68 522.014L1027.02 529.22Z" fill="#E51F2E"/><path opacity=".48" d="M1804.13 29.3162L1797.06 30.7284L1799.59 21.7327L1806.66 20.3206L1804.13 29.3162Z" fill="#0D87CA"/><path opacity=".47" d="M2390.21 336.622L2391.75 343.666L2382.71 341.288L2381.17 334.244L2390.21 336.622Z" fill="#EF7B00"/><path opacity=".56" d="M876.498 463.631L870.687 467.898L869.183 458.674L874.994 454.406L876.498 463.631Z" fill="#9D3489"/><path opacity=".71" d="M611.247 425.407L617.67 422.835L623.378 428.602L616.955 431.174L611.247 425.407Z" fill="#FCC200"/><path opacity=".52" d="M1851.32 518.977L1843.72 517.335L1842.02 508.365L1849.63 510.007L1851.32 518.977Z" fill="#E51F2E"/><path opacity=".74" d="M2151.87 286.121L2156.96 292.012L2152.91 300.195L2147.82 294.305L2151.87 286.121Z" fill="#449934"/><path d="M661.891 157.823L659.319 151.4L665.086 145.692L667.658 152.115L661.891 157.823Z" fill="#0D87CA"/><path opacity=".72" d="M355.956 447.405L358.115 440.831L366.202 440.166L364.043 446.739L355.956 447.405Z" fill="#E51F2E"/><path opacity=".4" d="M1232.18 77.7115L1224.71 73.3639L1225.99 63.3035L1233.47 67.6511L1232.18 77.7115Z" fill="#E51F2E"/><path opacity=".25" d="M1711.68 372.232L1707.16 366.996L1710.75 359.722L1715.27 364.958L1711.68 372.232Z" fill="#449934"/><path opacity=".84" d="M2423.22 319.885L2417.1 315.074L2419.51 306.269L2425.63 311.08L2423.22 319.885Z" fill="#E51F2E"/><path opacity=".74" d="M968.65 42.4707L970.344 35.7625L978.365 34.5348L976.67 41.243L968.65 42.4707Z" fill="#449934"/><path opacity=".7" d="M1262.4 187.668L1259.04 179.696L1266.13 172.437L1269.48 180.408L1262.4 187.668Z" fill="#E51F2E"/><path opacity=".64" d="M462.725 261.946L449.345 261.865L439.044 253.327L452.424 253.408L462.725 261.946Z" fill="#0D87CA"/><path opacity=".4" d="M609.813 467.069L621.682 466.311L631.346 473.244L619.477 474.001L609.813 467.069Z" fill="#0D87CA"/><path opacity=".31" d="M1027.22 568.902L1025.9 555.588L1033.32 544.451L1034.63 557.765L1027.22 568.902Z" fill="#449934"/><path d="M2073.11 74.3461L2074.84 62.5792L2083.63 54.568L2081.9 66.3349L2073.11 74.3461Z" fill="#E51F2E"/><path opacity=".56" d="M410.535 348.282L407.604 335.228L413.606 323.27L416.537 336.325L410.535 348.282Z" fill="#EF7B00"/><path opacity=".91" d="M2199.48 241.253L2204.99 229.064L2216.98 223.126L2211.47 235.316L2199.48 241.253Z" fill="#449934"/><path opacity=".83" d="M1628.13 338.555L1627.23 350.414L1619.02 359.018L1619.92 347.16L1628.13 338.555Z" fill="#EF7B00"/><path opacity=".16" d="M1293.4 417.303L1285.19 408.698L1284.29 396.84L1292.5 405.444L1293.4 417.303Z" fill="#9D3489"/><path opacity=".32" d="M1339.24 534.624L1327.63 543.909L1312.77 543.74L1324.38 534.454L1339.24 534.624Z" fill="#FCC200"/><path opacity=".43" d="M1049.82 539.529L1053.36 526.626L1064.28 518.886L1060.73 531.789L1049.82 539.529Z" fill="#E51F2E"/><ellipse opacity=".57" cx="2337" cy="248.664" rx="4.5" ry="7.393" transform="rotate(-138 2337 248.664)" fill="#0D87CA"/><ellipse opacity=".52" cx="1489.57" cy="354.292" rx="4" ry="6.571" transform="rotate(72 1489.57 354.292)" fill="#E51F2E"/><ellipse opacity=".15" cx="126.691" cy="535.821" rx="4" ry="6.571" transform="rotate(145 126.691 535.821)" fill="#FCC200"/><ellipse opacity=".28" cx="1244.89" cy="553.809" rx="5" ry="8.214" transform="rotate(96 1244.89 553.809)" fill="#EF7B00"/><ellipse opacity=".62" cx="849.738" cy="319.115" rx="4" ry="6.571" transform="rotate(141 849.738 319.115)" fill="#FCC200"/><ellipse opacity=".91" cx="2430.43" cy="325.154" rx="5" ry="8.214" transform="rotate(3 2430.43 325.154)" fill="#FCC200"/><ellipse opacity=".76" cx="1463.16" cy="249.058" rx="4.5" ry="7.393" transform="rotate(-64 1463.16 249.058)" fill="#E51F2E"/><ellipse opacity=".39" cx="358.514" cy="371.25" rx="4" ry="6.571" transform="rotate(-22 358.514 371.25)" fill="#EF7B00"/><ellipse opacity=".96" cx="1828.25" cy="415.976" rx="4.5" ry="7.393" transform="rotate(-52 1828.25 415.976)" fill="#0D87CA"/><ellipse opacity=".47" cx="1107.49" cy="283.042" rx="5" ry="8.214" transform="rotate(-140 1107.49 283.042)" fill="#E51F2E"/><circle opacity=".81" cx="726.263" cy="82.289" r="4" transform="rotate(-66 726.263 82.2886)" fill="#EF7B00"/><circle opacity=".21" cx="523.279" cy="295.004" r="4.5" transform="rotate(4 523.279 295.004)" fill="#9D3489"/><circle opacity=".6" cx="1897.93" cy="503.642" r="5" transform="rotate(-40 1897.93 503.642)" fill="#0D87CA"/><circle opacity=".34" cx="2073.42" cy="54.647" r="5" transform="rotate(-60 2073.42 54.6465)" fill="#449934"/><circle opacity=".82" cx="962.94" cy="354.033" r="4.5" transform="rotate(139 962.94 354.033)" fill="#FCC200"/><circle opacity=".96" cx="1401.55" cy="255.604" r="4" transform="rotate(-162 1401.55 255.604)" fill="#449934"/><circle opacity=".91" cx="275.861" cy="590.711" r="5" transform="rotate(-19 275.861 590.711)" fill="#0D87CA"/><circle opacity=".77" cx="2152.56" cy="593.353" r="5" transform="rotate(163 2152.56 593.353)" fill="#FCC200"/><circle opacity=".67" cx="1318.19" cy="332.051" r="5" transform="rotate(108 1318.19 332.051)" fill="#EF7B00"/><circle opacity=".61" cx="8.086" cy="307.151" r="4" transform="rotate(-11 8.08623 307.151)" fill="#0D87CA"/><rect opacity=".39" x="222.226" y="548.866" width="10" height="10" transform="rotate(74 222.226 548.866)" fill="#9D3489"/><rect opacity=".31" x="927.601" y="328.422" width="10" height="10" transform="rotate(-65 927.601 328.422)" fill="#E51F2E"/><rect opacity=".97" x="60.234" y="68.708" width="8" height="8" transform="rotate(95 60.2339 68.7077)" fill="#EF7B00"/><rect opacity=".96" x="1715.56" y="567.554" width="9" height="9" transform="rotate(72 1715.56 567.554)" fill="#0D87CA"/><rect opacity=".98" x="1399.05" y="425.407" width="9" height="9" transform="rotate(141 1399.05 425.407)" fill="#449934"/><rect opacity=".59" x="140.805" y="401.625" width="9" height="9" transform="rotate(-164 140.805 401.625)" fill="#FCC200"/><rect opacity=".48" x="1606.33" y="344.078" width="10" height="10" transform="rotate(42 1606.33 344.078)" fill="#EF7B00"/><rect opacity=".2" x="533.236" y="251.25" width="9" height="9" transform="rotate(-18 533.236 251.25)" fill="#FCC200"/><rect opacity=".33" x="1416.43" y="207.013" width="9" height="9" transform="rotate(-141 1416.43 207.013)" fill="#449934"/><rect opacity=".81" x="1083.64" y="534.093" width="9" height="9" transform="rotate(-150 1083.64 534.093)" fill="#FCC200"/><path opacity=".81" d="M1739.81 218.303L1741.95 225.187L1732.74 223.605L1730.6 216.721L1739.81 218.303Z" fill="#0D87CA"/><path opacity=".81" d="M994.351 392.874L987.522 390.562L994.216 384.039L1001.05 386.351L994.351 392.874Z" fill="#E51F2E"/><path opacity=".8" d="M779.222 540.174L771.362 542.177L773.681 531.922L781.541 529.919L779.222 540.174Z" fill="#FCC200"/><path opacity=".83" d="M218.118 9.21207L210.635 6.08134L218.659 -0.713496L226.142 2.41723L218.118 9.21207Z" fill="#E51F2E"/><path opacity=".34" d="M2128.35 529.56L2119.56 527.578L2127.03 518.595L2135.82 520.577L2128.35 529.56Z" fill="#0D87CA"/><path opacity=".11" d="M1631.8 144.804L1624.76 140.784L1633.55 135.018L1640.6 139.037L1631.8 144.804Z" fill="#EF7B00"/><path opacity=".31" d="M1874.96 579.095L1881.31 575.678L1881.51 585.022L1875.16 588.439L1874.96 579.095Z" fill="#0D87CA"/><path opacity=".12" d="M451.199 152.259L455.095 146.192L459.804 154.265L455.909 160.332L451.199 152.259Z" fill="#9D3489"/><path opacity=".96" d="M742.765 189.708L738.913 183.613L748.22 182.756L752.072 188.851L742.765 189.708Z" fill="#9D3489"/><path opacity=".19" d="M2376.37 145.663L2382.79 150.623L2373.28 155.11L2366.86 150.149L2376.37 145.663Z" fill="#449934"/><path opacity=".39" d="M2423.67 555.611L2427.07 547.66L2437.21 547.713L2433.81 555.663L2423.67 555.611Z" fill="#FCC200"/><path opacity=".34" d="M1052.83 352.309L1060.53 356.259L1059.77 366.373L1052.07 362.423L1052.83 352.309Z" fill="#FCC200"/><path opacity=".67" d="M938.338 397.855L938.613 406.5L929.399 410.738L929.124 402.094L938.338 397.855Z" fill="#0D87CA"/><path opacity=".62" d="M516.574 109.523L511.841 116.762L501.862 114.948L506.595 107.71L516.574 109.523Z" fill="#FCC200"/><path opacity=".78" d="M1604.75 426.817L1601.73 419.643L1608.11 413.109L1611.13 420.284L1604.75 426.817Z" fill="#EF7B00"/><path opacity=".72" d="M1907.97 441.385L1914.7 445.297L1913.54 454.352L1906.81 450.439L1907.97 441.385Z" fill="#E51F2E"/><path opacity=".19" d="M2348.73 373.34L2340.54 376.131L2333.79 368.558L2341.98 365.768L2348.73 373.34Z" fill="#EF7B00"/><path opacity=".57" d="M745.338 109.239L750.041 114.314L746.702 121.709L741.999 116.634L745.338 109.239Z" fill="#FCC200"/><path opacity=".98" d="M1055.92 69.7738L1061.23 65.3428L1068.44 69.064L1063.13 73.495L1055.92 69.7738Z" fill="#FCC200"/><path opacity=".28" d="M1841.64 58.085L1834.29 55.5279L1833.7 46.4187L1841.05 48.9757L1841.64 58.085Z" fill="#EF7B00"/><path opacity=".72" d="M2436.86 413.987L2428.69 422.636L2416.9 424.156L2425.06 415.508L2436.86 413.987Z" fill="#FCC200"/><path opacity=".11" d="M395.328 130.233L385.599 121.049L383.888 107.779L393.618 116.963L395.328 130.233Z" fill="#E51F2E"/><path opacity=".5" d="M1006.99 184.719L992.743 188.979L979.024 183.253L993.266 178.993L1006.99 184.719Z" fill="#E51F2E"/><path opacity=".46" d="M2124.78 341.258L2113.87 333.518L2110.33 320.616L2121.24 328.356L2124.78 341.258Z" fill="#E51F2E"/><path opacity=".73" d="M25.0235 273.719L12.4788 269.067L5.71915 257.52L18.2639 262.172L25.0235 273.719Z" fill="#EF7B00"/><path opacity=".23" d="M1226.76 52.3632L1217.52 42.6828L1216.51 29.3418L1225.75 39.0222L1226.76 52.3632Z" fill="#449934"/><path opacity=".53" d="M2328.98 576.065L2319.3 585.301L2305.96 586.315L2315.64 577.079L2328.98 576.065Z" fill="#E51F2E"/><path opacity=".37" d="M2326.6 494.589L2315.15 497.798L2304.26 493.026L2315.71 489.817L2326.6 494.589Z" fill="#9D3489"/><path opacity=".79" d="M2305.13 399.98L2291.97 397.577L2283.31 387.38L2296.47 389.783L2305.13 399.98Z" fill="#FCC200"/><path opacity=".72" d="M1385.67 305.335L1374.52 301.2L1368.52 290.936L1379.67 295.071L1385.67 305.335Z" fill="#E51F2E"/><ellipse opacity=".85" cx="590.251" cy="476.454" rx="4" ry="6.571" transform="rotate(54 590.251 476.454)" fill="#E51F2E"/><ellipse opacity=".22" cx="1254.95" cy="458.771" rx="4" ry="6.571" transform="rotate(75 1254.95 458.771)" fill="#9D3489"/><ellipse opacity=".88" cx="1398.6" cy="315.609" rx="5" ry="8.214" transform="rotate(118 1398.6 315.609)" fill="#9D3489"/><ellipse opacity=".77" cx="1567.47" cy="58.534" rx="5" ry="8.214" transform="rotate(-48 1567.47 58.534)" fill="#EF7B00"/><ellipse opacity=".89" cx="2416.52" cy="573.591" rx="4" ry="6.571" transform="rotate(-179 2416.52 573.591)" fill="#EF7B00"/><ellipse opacity=".53" cx="26.847" cy="81.646" rx="4" ry="6.571" transform="rotate(62 26.8471 81.6461)" fill="#EF7B00"/><ellipse opacity=".98" cx="511.08" cy="143.777" rx="4" ry="6.571" transform="rotate(165 511.08 143.777)" fill="#FCC200"/><ellipse opacity=".7" cx="1507.7" cy="106.517" rx="4.5" ry="7.393" transform="rotate(81 1507.7 106.517)" fill="#0D87CA"/><ellipse opacity=".79" cx="2082.65" cy="304.662" rx="4.5" ry="7.393" transform="rotate(-144 2082.65 304.662)" fill="#9D3489"/><ellipse opacity=".12" cx="188.428" cy="430.813" rx="4" ry="6.571" transform="rotate(-98 188.428 430.813)" fill="#0D87CA"/><circle opacity=".28" cx="2272.82" cy="131.899" r="4" transform="rotate(-90 2272.82 131.899)" fill="#EF7B00"/><circle opacity=".54" cx="1332.3" cy="138.837" r="4" transform="rotate(18 1332.3 138.837)" fill="#EF7B00"/><circle opacity=".63" cx="1807.72" cy="297.895" r="4.5" transform="rotate(126 1807.72 297.895)" fill="#9D3489"/><circle opacity=".76" cx="1120.11" cy="449.535" r="5" transform="rotate(-161 1120.11 449.535)" fill="#9D3489"/><circle opacity=".82" cx="1795.92" cy="61.929" r="4" transform="rotate(130 1795.92 61.9294)" fill="#449934"/><circle opacity=".95" cx="1491.32" cy="320.645" r="4.5" transform="rotate(-172 1491.32 320.645)" fill="#FCC200"/><circle opacity=".29" cx="1144.06" cy="307.931" r="4" transform="rotate(-20 1144.06 307.931)" fill="#E51F2E"/><circle opacity=".9" cx="1720.35" cy="456.755" r="4" transform="rotate(-135 1720.35 456.755)" fill="#FCC200"/><circle opacity=".98" cx="145.26" cy="421.148" r="4.5" transform="rotate(30 145.26 421.148)" fill="#EF7B00"/><circle opacity=".73" cx="787.454" cy="126.876" r="5" transform="rotate(176 787.454 126.876)" fill="#FCC200"/><rect opacity=".21" x="1180.55" y="372.432" width="8" height="8" transform="rotate(-14 1180.55 372.432)" fill="#9D3489"/><rect opacity=".34" x="141.29" y="221.806" width="10" height="10" transform="rotate(98 141.29 221.806)" fill="#0D87CA"/><rect opacity=".23" x="1613.23" y="405.541" width="10" height="10" transform="rotate(138 1613.23 405.541)" fill="#449934"/><rect opacity=".29" x="1192.54" y="297.172" width="8" height="8" transform="rotate(105 1192.54 297.172)" fill="#9D3489"/><rect opacity=".51" x="2315.09" y="132.532" width="10" height="10" transform="rotate(-127 2315.09 132.532)" fill="#449934"/><rect opacity=".94" x="422.709" y="458.537" width="8" height="8" transform="rotate(-102 422.709 458.537)" fill="#FCC200"/><rect opacity=".79" x="435.741" y="354.569" width="9" height="9" transform="rotate(-50 435.741 354.569)" fill="#EF7B00"/><rect opacity=".95" x="1960.79" y="45.067" width="10" height="10" transform="rotate(-174 1960.79 45.0673)" fill="#449934"/><rect opacity=".13" x="2443.57" y="103.349" width="9" height="9" transform="rotate(-1.99999 2443.57 103.349)" fill="#EF7B00"/><rect opacity=".51" x="217.323" y="17.264" width="8" height="8" transform="rotate(50 217.323 17.2635)" fill="#449934"/><path opacity=".49" d="M478.845 16.8483L480.503 23.865L471.425 21.6449L469.767 14.6282L478.845 16.8483Z" fill="#9D3489"/><path opacity=".36" d="M1920.42 223.253L1922.42 231.113L1912.16 228.794L1910.16 220.934L1920.42 223.253Z" fill="#EF7B00"/><path opacity=".63" d="M1405.63 429.369L1409.69 435.325L1400.42 436.506L1396.36 430.55L1405.63 429.369Z" fill="#E51F2E"/><path d="M398.87 407.146L389.987 405.626L396.975 396.264L405.859 397.784L398.87 407.146Z" fill="#449934"/><path opacity=".82" d="M1477.04 182.796L1474.36 175.14L1484.78 176.557L1487.46 184.212L1477.04 182.796Z" fill="#9D3489"/><path opacity=".11" d="M1045.75 438.758L1040.61 432.481L1050.89 430.249L1056.02 436.526L1045.75 438.758Z" fill="#9D3489"/><path opacity=".35" d="M2407.16 507.615L2411.25 514.618L2400.76 515.216L2396.67 508.212L2407.16 507.615Z" fill="#E51F2E"/><path opacity=".56" d="M1157.42 392.63L1158.76 385.545L1166.15 391.266L1164.81 398.351L1157.42 392.63Z" fill="#449934"/><path opacity=".39" d="M2032.43 230.163L2026.4 234.121L2025.39 224.83L2031.41 220.873L2032.43 230.163Z" fill="#FCC200"/><path opacity=".25" d="M903.561 367.915L908.522 361.498L913.008 371.007L908.048 377.424L903.561 367.915Z" fill="#FCC200"/><path opacity=".45" d="M1507.61 578.912L1507.58 587.561L1498.23 591.475L1498.25 582.827L1507.61 578.912Z" fill="#EF7B00"/><path opacity=".23" d="M813.804 150.379L815.026 143.569L822.942 141.785L821.719 148.595L813.804 150.379Z" fill="#9D3489"/><path opacity=".5" d="M1749.11 519.28L1747.34 526.859L1738.34 528.397L1740.12 520.818L1749.11 519.28Z" fill="#0D87CA"/><path opacity=".49" d="M85.132 110.558L85.9697 102.819L94.7128 100.196L93.8751 107.935L85.132 110.558Z" fill="#9D3489"/><path opacity=".18" d="M407.836 104.993L403.799 97.3436L410.223 89.4946L414.26 97.1436L407.836 104.993Z" fill="#9D3489"/><path opacity=".81" d="M290.881 51.6132L283.445 49.3143L282.538 40.2312L289.974 42.5301L290.881 51.6132Z" fill="#449934"/><path opacity=".99" d="M1281.86 375.515L1284.36 369.064L1292.47 368.822L1289.97 375.274L1281.86 375.515Z" fill="#9D3489"/><path opacity=".97" d="M1333.9 437.911L1326.85 434.599L1327.22 425.478L1334.26 428.79L1333.9 437.911Z" fill="#9D3489"/><path opacity=".26" d="M624.132 370.688L625.355 363.878L633.27 362.094L632.048 368.904L624.132 370.688Z" fill="#E51F2E"/><path opacity=".31" d="M773.464 191.271L766.141 193.91L759.95 187.202L767.273 184.562L773.464 191.271Z" fill="#9D3489"/><path opacity=".77" d="M471.086 124.86L466.586 112.26L471.086 99.6596L475.586 112.26L471.086 124.86Z" fill="#EF7B00"/><path opacity=".6" d="M1157.34 567.117L1158.03 581.967L1149.15 593.893L1148.46 579.043L1157.34 567.117Z" fill="#FCC200"/><path opacity=".23" d="M807.369 318.509L800.437 308.846L801.195 296.977L808.127 306.641L807.369 318.509Z" fill="#9D3489"/><path opacity=".3" d="M192.798 101.274L201.637 91.2297L214.839 89.0568L206 99.1012L192.798 101.274Z" fill="#E51F2E"/><path opacity=".12" d="M350.428 467.318L351.047 480.683L343.06 491.417L342.441 478.052L350.428 467.318Z" fill="#FCC200"/><path opacity=".1" d="M786.096 354.102L793.196 363.643L792.645 375.523L785.546 365.982L786.096 354.102Z" fill="#EF7B00"/><path opacity=".95" d="M238.805 479.447L227.233 476.702L220.019 467.247L231.59 469.992L238.805 479.447Z" fill="#9D3489"/><path opacity=".18" d="M2272.09 243.543L2276.99 232.708L2287.65 227.43L2282.75 238.265L2272.09 243.543Z" fill="#449934"/><path opacity=".64" d="M1524.7 468.608L1520.43 455.932L1525.14 443.412L1529.42 456.089L1524.7 468.608Z" fill="#EF7B00"/><path opacity=".43" d="M1396.96 352.037L1402.12 364.384L1398.28 377.202L1393.13 364.855L1396.96 352.037Z" fill="#EF7B00"/><ellipse opacity=".26" cx="1736.79" cy="469.797" rx="4.5" ry="7.393" transform="rotate(154 1736.79 469.797)" fill="#449934"/><ellipse opacity=".39" cx="1323.03" cy="272.59" rx="4.5" ry="7.393" transform="rotate(-67 1323.03 272.59)" fill="#FCC200"/><ellipse opacity=".65" cx="1402.42" cy="91.114" rx="4.5" ry="7.393" transform="rotate(115 1402.42 91.1138)" fill="#E51F2E"/><ellipse opacity=".49" cx="1182.19" cy="217.798" rx="4.5" ry="7.393" transform="rotate(-107 1182.19 217.798)" fill="#9D3489"/><ellipse opacity=".72" cx="2303.7" cy="176.328" rx="4.5" ry="7.393" transform="rotate(-23 2303.7 176.328)" fill="#EF7B00"/><ellipse opacity=".95" cx="1698.33" cy="71.201" rx="4.5" ry="7.393" transform="rotate(127 1698.33 71.2005)" fill="#EF7B00"/><ellipse opacity=".46" cx="1067.12" cy="50.976" rx="5" ry="8.214" transform="rotate(158 1067.12 50.9759)" fill="#0D87CA"/><ellipse opacity=".46" cx="2279.97" cy="140.63" rx="4" ry="6.571" transform="rotate(93 2279.97 140.63)" fill="#0D87CA"/><ellipse opacity=".69" cx="249.52" cy="196.384" rx="5" ry="8.214" transform="rotate(0.999998 249.52 196.384)" fill="#E51F2E"/><ellipse opacity=".61" cx="723.369" cy="572.973" rx="4" ry="6.571" transform="rotate(4 723.369 572.973)" fill="#FCC200"/><circle opacity=".2" cx="1933.07" cy="22.151" r="4" transform="rotate(-47 1933.07 22.1511)" fill="#FCC200"/><circle opacity=".33" cx="1947.44" cy="293.417" r="5" transform="rotate(-31 1947.44 293.417)" fill="#9D3489"/><circle opacity=".29" cx="565.079" cy="396.139" r="4.5" transform="rotate(163 565.079 396.139)" fill="#449934"/><circle opacity=".42" cx="2021.76" cy="471.683" r="4.5" transform="rotate(-6 2021.76 471.683)" fill="#449934"/><circle opacity=".47" cx="1788.97" cy="344.429" r="4" transform="rotate(88 1788.97 344.429)" fill="#0D87CA"/><circle opacity=".87" cx="866.79" cy="364.949" r="5" transform="rotate(-31 866.79 364.949)" fill="#449934"/><circle opacity=".76" cx="2230.4" cy="128.654" r="4" transform="rotate(179 2230.4 128.654)" fill="#449934"/><circle opacity=".41" cx="914.148" cy="62.279" r="5" transform="rotate(-33 914.148 62.2794)" fill="#449934"/><circle opacity=".74" cx="1837.1" cy="98.246" r="4.5" transform="rotate(145 1837.1 98.2456)" fill="#9D3489"/><circle opacity=".79" cx="992.451" cy="348.483" r="4" transform="rotate(-141 992.451 348.483)" fill="#E51F2E"/></g><defs><clipPath id="clip0"><rect width="2500" height="600" fill="#fff"/></clipPath></defs></svg>