<svg width="300" height="300" viewBox="0 0 300 300" fill="none" xmlns="http://www.w3.org/2000/svg">
<g clip-path="url(#clip0)">
<path d="M300 -300V-300L300 300L-300 300L300 -300Z" fill="#449934"/>
<path d="M300 -200V-200L300 300L-200 300L300 -200Z" fill="#FCC200"/>
<path d="M300 -100V-100L300 300L-100 300L300 -100Z" fill="#EF7B00"/>
<path d="M300 -100V-100L300 300L-100 300L300 -100Z" fill="#EF7B00"/>
<path d="M300 0V0L300 300L0 300L300 0Z" fill="#E51F2E"/>
<path d="M300 100V100V300H100L300 100Z" fill="#9D3489"/>
<path d="M300 200V200V300H200L300 200Z" fill="#0D87CA"/>
</g>
<defs>
<clipPath id="clip0">
<rect width="300" height="300" fill="white"/>
</clipPath>
</defs>
</svg>
