<svg width="12" height="13" viewBox="0 0 12 13" fill="none" xmlns="http://www.w3.org/2000/svg"><path d="M4.05469 9.82812C4.05469 9.78125 4.00781 9.73438 3.9375 9.73438C3.86719 9.73438 3.82031 9.78125 3.82031 9.82812C3.82031 9.875 3.86719 9.92188 3.9375 9.89844C4.00781 9.89844 4.05469 9.875 4.05469 9.82812ZM3.32812 9.71094C3.32812 9.75781 3.375 9.82812 3.44531 9.82812C3.49219 9.85156 3.5625 9.82812 3.58594 9.78125C3.58594 9.73438 3.5625 9.6875 3.49219 9.66406C3.42188 9.64062 3.35156 9.66406 3.32812 9.71094ZM4.38281 9.6875C4.3125 9.6875 4.26562 9.73438 4.26562 9.80469C4.26562 9.85156 4.33594 9.875 4.40625 9.85156C4.47656 9.82812 4.52344 9.80469 4.5 9.75781C4.5 9.71094 4.42969 9.66406 4.38281 9.6875ZM5.90625 0.6875C2.67188 0.6875 0.1875 3.17188 0.1875 6.40625C0.1875 9.00781 1.80469 11.2344 4.14844 12.0312C4.45312 12.0781 4.54688 11.8906 4.54688 11.75C4.54688 11.5859 4.54688 10.7891 4.54688 10.2969C4.54688 10.2969 2.90625 10.6484 2.55469 9.59375C2.55469 9.59375 2.29688 8.91406 1.92188 8.75C1.92188 8.75 1.38281 8.375 1.94531 8.375C1.94531 8.375 2.53125 8.42188 2.85938 8.98438C3.375 9.89844 4.21875 9.64062 4.57031 9.47656C4.61719 9.10156 4.75781 8.84375 4.94531 8.67969C3.63281 8.53906 2.29688 8.35156 2.29688 6.10156C2.29688 5.44531 2.48438 5.14062 2.85938 4.71875C2.78906 4.55469 2.60156 3.94531 2.92969 3.125C3.39844 2.98438 4.54688 3.75781 4.54688 3.75781C5.01562 3.61719 5.50781 3.57031 6 3.57031C6.51562 3.57031 7.00781 3.61719 7.47656 3.75781C7.47656 3.75781 8.60156 2.96094 9.09375 3.125C9.42188 3.94531 9.21094 4.55469 9.16406 4.71875C9.53906 5.14062 9.77344 5.44531 9.77344 6.10156C9.77344 8.35156 8.39062 8.53906 7.07812 8.67969C7.28906 8.86719 7.47656 9.21875 7.47656 9.78125C7.47656 10.5547 7.45312 11.5391 7.45312 11.7266C7.45312 11.8906 7.57031 12.0781 7.875 12.0078C10.2188 11.2344 11.8125 9.00781 11.8125 6.40625C11.8125 3.17188 9.16406 0.6875 5.90625 0.6875ZM2.46094 8.77344C2.41406 8.79688 2.4375 8.86719 2.46094 8.91406C2.50781 8.9375 2.55469 8.96094 2.60156 8.9375C2.625 8.91406 2.625 8.84375 2.57812 8.79688C2.53125 8.77344 2.48438 8.75 2.46094 8.77344ZM2.20312 8.58594C2.17969 8.63281 2.20312 8.65625 2.25 8.67969C2.29688 8.70312 2.34375 8.70312 2.36719 8.65625C2.36719 8.63281 2.34375 8.60938 2.29688 8.58594C2.25 8.5625 2.22656 8.5625 2.20312 8.58594ZM2.95312 9.42969C2.92969 9.45312 2.92969 9.52344 3 9.57031C3.04688 9.61719 3.11719 9.64062 3.14062 9.59375C3.16406 9.57031 3.16406 9.5 3.11719 9.45312C3.07031 9.40625 3 9.38281 2.95312 9.42969ZM2.69531 9.07812C2.64844 9.10156 2.64844 9.17188 2.69531 9.21875C2.74219 9.26562 2.78906 9.28906 2.83594 9.26562C2.85938 9.24219 2.85938 9.17188 2.83594 9.125C2.78906 9.07812 2.74219 9.05469 2.69531 9.07812Z" fill="#6E5494"/></svg>