<svg fill="none" height="34" viewBox="0 0 34 34" width="34" xmlns="http://www.w3.org/2000/svg"><path d="m27.3125 29.875c1.5234 0 2.8125-1.2305 2.8125-2.8125v-20.625c0-1.52344-1.2891-2.8125-2.8125-2.8125h-20.625c-1.58203 0-2.8125 1.28906-2.8125 2.8125v20.625c0 1.582 1.23047 2.8125 2.8125 2.8125z" fill="#106dc6"/><path d="m13.9531 24.1328c.3516.4102.9961.4102 1.3477 0l10.7812-10.7812c.3516-.3516.3516-.9375 0-1.2891l-1.3476-1.3477c-.3516-.3515-.9375-.3515-1.2891 0l-8.7891 8.7891-4.1601-4.1016c-.3516-.3515-.93751-.3515-1.28907 0l-1.34765 1.3477c-.35157.3516-.35157.9375 0 1.2891z" fill="#fff"/></svg>