<svg preserveAspectRatio="none" fill="none" height="1200" viewBox="0 0 600 1200" width="600" xmlns="http://www.w3.org/2000/svg" xmlns:xlink="http://www.w3.org/1999/xlink"><clipPath id="a"><path d="m0 0h600v1200h-600z"/></clipPath><g clip-path="url(#a)"><path clip-rule="evenodd" d="m624-48h-648v1296h648zm-622.96689 48.0137749c-.565031-.00753406-1.02406535.4542651-1.0131458 1.0192451l4.7687758 246.75998c.00617.319.16418.616.42534.799l8.46362 5.941c.6079.426.555 1.343-.0981 1.697l-11.27003 6.107c-.32235.175-.52327.512-.52358.878l-.17636 209.355c-.00029.343.17586.663.46648.846l12.49779 7.884c.8479.535.469 1.846-.5335 1.846h-11.44052c-.55195 0-.99953.447-1 .999l-.26996 320.479c-.00059.696.69126 1.179 1.3442.94l9.10188-3.337c.9393-.344 1.7462.752 1.1387 1.546l-11.39162 14.904c-.13312.174-.20533.387-.20551.606l-.10929 129.732c-.00013.158.03713.314.10872.454l10.6154 20.866c.2908.572-.0241 1.266-.6459 1.423l-9.34559 2.366c-.44346.112-.75421.511-.75459.969l-.18549 221.187c-.00046.55.4414 1 .99015 1l174.50902 1.72 140.5-9.89 278.855 9.85c.606.02 1.091-.5 1.03-1.1l-7.861-77.96c-.016-.16-.068-.31-.151-.44l-10.427-16.41c-.258-.4-.19-.94.162-1.26l10.474-9.76c.204-.19.319-.45.319-.73v-313.914c0-.686-.675-1.169-1.324-.946l-2.349.805c-.835.287-1.604-.57-1.231-1.369l8.894-19.022c.062-.132.094-.275.094-.421l.982-311.616c0-.217-.07-.429-.2-.603l-11.548-15.413c-.498-.664-.016-1.61.814-1.599l6.054.083c.551.007 1.004-.431 1.014-.982l4.825-260.48c.007-.357-.177-.691-.483-.875l-21.795-13.152c-.694-.418-.628-1.444.113-1.771l21.708-9.579c.359-.158.592-.512.596-.904l1.424-136.5187c.006-.56129-.451-1.01745-1.012-1.01035l-271.977 3.4429-174-3.45585z" fill="#333f48" fill-rule="evenodd"/></g></svg>