<svg fill="none" height="842" preserveAspectRatio="none" viewBox="0 0 595 842" width="595" xmlns="http://www.w3.org/2000/svg"><path clip-rule="evenodd" d="m595 0h-595v842h595zm-592.03493 6.9674c-.53837.01818-.96558.45955-.96623.99823l-.19945 165.34337c-.00051.416.25669.789.6458.936l10.08451 3.819c.8613.327.8611 1.545-.0002 1.871l-10.09775 3.821c-.38844.147-.64559.519-.64609.934l-.1757 145.657c-.00048.397.23372.756.59687.916l10.94557 4.822c.9901.436.6788 1.915-.4031 1.915h-10.14978c-.55182 0-.99934.447-1 .999l-.26925 223.211c-.00079.654.61502 1.132 1.24801.97l8.54412-2.187c1.0087-.259 1.6912 1.004.9225 1.707l-10.40207 9.503c-.20707.189-.32517.457-.32551.737l-.10884 90.234c-.00026.212.06688.418.19173.59l10.15659 13.941c.4354.598.094 1.445-.6342 1.574l-8.91073 1.575c-.47727.085-.82532.499-.82591.984l-.18478 153.183c-.00066.544.43349.989.97722 1.001l174.5216 3.978 140.5-9 269.911 8.964c.586.019 1.063-.467 1.032-1.052l-2.908-55.737c-.021-.408-.288-.762-.675-.894l-16.45-5.628c-.783-.268-.921-1.316-.233-1.777l17.281-11.579c.277-.186.443-.497.443-.831v-218.343c0-.744-.785-1.228-1.45-.893l-7.859 3.957c-.981.495-1.926-.726-1.201-1.552l14.347-16.354c.159-.181.247-.414.248-.655l.978-216.886c.002-.439-.283-.829-.703-.959l-17.238-5.344c-.933-.289-.94-1.608-.01-1.907l13.395-4.313c.404-.13.682-.501.693-.925l4.812-181.4c.014-.508-.357-.946-.86-1.017l-27.369-3.856c-1.013-.143-1.184-1.533-.237-1.917l27.99-11.3501c.376-.1524.623-.5167.625-.9222l.433-94.79469c.003-.56577-.464-1.02101-1.03-1.00413l-266.965 7.96912-174-8z" fill="#000" fill-rule="evenodd"/></svg>