<svg fill="none" height="73" viewBox="0 0 73 73" width="73" xmlns="http://www.w3.org/2000/svg"><path clip-rule="evenodd" d="m72.1982 36.1105c0 19.8823-16.1178 36-36 36-19.8823 0-36.000019-16.1177-36.000019-36 0-19.8822 16.117719-35.999981 36.000019-35.999981 19.8822 0 36 16.117781 36 35.999981zm-3 0c0 18.2254-14.7746 33-33 33s-33.00002-14.7746-33.00002-33 14.77462-32.99998 33.00002-32.99998 33 14.77458 33 32.99998zm-3 0c0 16.5686-13.4315 30-30 30-16.5686 0-30.00002-13.4314-30.00002-30 0-16.5685 13.43142-29.99998 30.00002-29.99998 16.5685 0 30 13.43148 30 29.99998zm-3 0c0 14.9117-12.0883 27-27 27s-27.00002-12.0883-27.00002-27 12.08832-26.99998 27.00002-26.99998 27 12.08828 27 26.99998z" fill="#000" fill-rule="evenodd"/></svg>