<svg fill="none" height="96" viewBox="0 0 96 96" width="96" xmlns="http://www.w3.org/2000/svg"><path d="m48 13.125c-19.2656 0-34.875 15.6094-34.875 34.875s15.6094 34.875 34.875 34.875 34.875-15.6094 34.875-34.875-15.6094-34.875-34.875-34.875zm30.375 34.875c0 16.7344-13.6406 30.375-30.375 30.375s-30.375-13.5-30.375-30.375c0-16.5938 13.5-30.375 30.375-30.375 16.5938 0 30.375 13.6406 30.375 30.375zm-20.9531 12.5156c.7031.5625 1.8281.2813 2.25-.4218l1.2656-1.5469c.5625-.8438.2813-1.8281-.4219-2.3907l-9.8437-7.1718v-20.6719c0-.8437-.8438-1.6875-1.6875-1.6875h-1.9688c-.9844 0-1.6875.8438-1.6875 1.6875v22.5c0 .5625.1407.9844.5625 1.4063z" fill="#106dc6"/></svg>