<svg fill="none" height="96" viewBox="0 0 96 96" width="96" xmlns="http://www.w3.org/2000/svg"><path d="m48 17.625c16.5938 0 30.375 13.6406 30.375 30.375 0 16.875-13.6406 30.375-30.375 30.375-16.875 0-30.375-13.5-30.375-30.375 0-16.7344 13.5-30.375 30.375-30.375zm0-4.5c-19.2656 0-34.875 15.75-34.875 34.875 0 19.2656 15.6094 34.875 34.875 34.875 19.125 0 34.875-15.6094 34.875-34.875 0-19.125-15.75-34.875-34.875-34.875zm-5.0625 48.375c-.9844 0-1.6875.8438-1.6875 1.6875v1.125c0 .9844.7031 1.6875 1.6875 1.6875h10.125c.8437 0 1.6875-.7031 1.6875-1.6875v-1.125c0-.8437-.8438-1.6875-1.6875-1.6875h-1.6875v-19.6875c0-.8437-.8438-1.6875-1.6875-1.6875h-6.75c-.9844 0-1.6875.8438-1.6875 1.6875v1.125c0 .9844.7031 1.6875 1.6875 1.6875h1.6875v16.875zm5.0625-33.75c-2.5312 0-4.5 2.1094-4.5 4.5 0 2.5312 1.9688 4.5 4.5 4.5 2.3906 0 4.5-1.9688 4.5-4.5 0-2.3906-2.1094-4.5-4.5-4.5z" fill="#fcc200"/></svg>