<svg fill="none" height="96" viewBox="0 0 96 96" width="96" xmlns="http://www.w3.org/2000/svg"><path d="m79.5 43.5c6.1875 0 11.25-4.9219 11.25-11.25 0-6.1875-5.0625-11.25-11.25-11.25-6.3281 0-11.25 5.0625-11.25 11.25 0 6.3281 4.9219 11.25 11.25 11.25zm0-18c3.6562 0 6.75 3.0938 6.75 6.75 0 3.7969-3.0938 6.75-6.75 6.75-3.7969 0-6.75-2.9531-6.75-6.75 0-3.6562 2.9531-6.75 6.75-6.75zm-31.5 22.5c8.5781 0 15.75-7.0312 15.75-15.75 0-8.5781-7.1719-15.75-15.75-15.75-8.7188 0-15.75 7.1719-15.75 15.75 0 8.7188 7.0312 15.75 15.75 15.75zm0-27c6.1875 0 11.25 5.0625 11.25 11.25 0 6.3281-5.0625 11.25-11.25 11.25-6.3281 0-11.25-4.9219-11.25-11.25 0-6.1875 4.9219-11.25 11.25-11.25zm34.3125 27h-5.625c-2.25 0-4.2187.7031-5.9063 1.8281 1.4063.9844 2.5313 1.9688 3.6563 3.2344.7031-.2813 1.4063-.5625 2.25-.5625h5.625c3.375 0 6.1875 3.0938 6.1875 6.75 0 1.2656.9844 2.25 2.25 2.25 1.125 0 2.25-.9844 2.25-2.25 0-6.1875-4.9219-11.25-10.6875-11.25zm-65.8125-4.5c6.1875 0 11.25-4.9219 11.25-11.25 0-6.1875-5.0625-11.25-11.25-11.25-6.3281 0-11.25 5.0625-11.25 11.25 0 6.3281 4.9219 11.25 11.25 11.25zm0-18c3.6562 0 6.75 3.0938 6.75 6.75 0 3.7969-3.0938 6.75-6.75 6.75-3.7969 0-6.75-2.9531-6.75-6.75 0-3.6562 2.9531-6.75 6.75-6.75zm42.75 25.3125c-4.7812 0-5.9062 1.6875-11.25 1.6875-5.4844 0-6.6094-1.6875-11.3906-1.6875-5.0625 0-9.9844 2.3906-12.9375 6.6094-1.6875 2.6719-2.6719 5.7656-2.6719 9.1406v6.1875c0 3.7969 2.9531 6.75 6.75 6.75h40.5c3.6562 0 6.75-2.9531 6.75-6.75v-6.1875c0-3.375-1.125-6.4687-2.8125-9.1406-2.9531-4.2188-7.875-6.6094-12.9375-6.6094zm11.25 21.9375c0 1.2656-1.125 2.25-2.25 2.25h-40.5c-1.2656 0-2.25-.9844-2.25-2.25v-6.1875c0-2.3906.5625-4.6406 1.9688-6.6094 1.8281-2.8125 5.3437-4.6406 9.1406-4.6406 3.9375 0 5.3437 1.6875 11.3906 1.6875s7.3125-1.6875 11.25-1.6875c3.7969 0 7.3125 1.8281 9.1406 4.6406 1.4063 1.9688 1.9688 4.2188 1.9688 6.6094v6.1875zm-45.4219-22.9219c-1.6875-1.125-3.6562-1.8281-5.7656-1.8281h-5.625c-5.90625 0-10.6875 5.0625-10.6875 11.25 0 1.2656.98438 2.25 2.25 2.25 1.125 0 2.25-.9844 2.25-2.25 0-3.6562 2.6719-6.75 6.1875-6.75h5.625c.7031 0 1.4063.2812 2.1094.5625 1.125-1.2656 2.25-2.25 3.6562-3.2344z" fill="#449934"/></svg>