<svg fill="none" height="11" viewBox="0 0 12 11" width="12" xmlns="http://www.w3.org/2000/svg"><path d="m10.7695 3.0625c.4688-.35156.8907-.77344 1.2188-1.26562-.4219.1875-.9141.32812-1.4063.375.5157-.30469.8907-.77344 1.0782-1.35938-.4688.28125-1.0079.49219-1.5469.60938-.46877-.492192-1.10158-.773442-1.80471-.773442-1.35937 0-2.46093 1.101562-2.46093 2.460942 0 .1875.02343.375.07031.5625-2.03906-.11719-3.86719-1.10157-5.085939-2.57813-.210937.35156-.328125.77344-.328125 1.24219 0 .84375.421875 1.59375 1.101564 2.03906-.39844-.02344-.796876-.11719-1.125001-.30469v.02344c0 1.19531.843751 2.17969 1.968751 2.41406-.1875.04688-.42188.09375-.63281.09375-.16407 0-.30469-.02344-.46875-.04687.30468.98437 1.21875 1.6875 2.29687 1.71093-.84375.65626-1.89844 1.05469-3.046874 1.05469-.210937 0-.398437-.02343-.5859372-.04687 1.0781212.70312 2.3671912 1.10156 3.7734412 1.10156 4.52343 0 6.98434-3.72656 6.98434-6.98438 0-.11718 0-.21093 0-.32812z" fill="#1da1f2"/></svg>