<svg fill="none" height="11" viewBox="0 0 12 11" width="12" xmlns="http://www.w3.org/2000/svg"><path d="m10.7578 3.0625c.4688-.35156.8906-.77344 1.2188-1.26562-.4219.1875-.9141.32812-1.4063.375.5156-.30469.8906-.77344 1.0781-1.35938-.4687.28125-1.0078.49219-1.5468.60938-.46879-.492192-1.1016-.773442-1.80472-.773442-1.35938 0-2.46094 1.101562-2.46094 2.460942 0 .1875.02344.375.07031.5625-2.03906-.11719-3.86719-1.10157-5.085938-2.57813-.210937.35156-.328124.77344-.328124 1.24219 0 .84375.421874 1.59375 1.101562 2.03906-.39844-.02344-.796875-.11719-1.125-.30469v.02344c0 1.19531.84375 2.17969 1.96875 2.41406-.1875.04688-.42188.09375-.63281.09375-.16407 0-.30469-.02344-.46875-.04687.30468.98437 1.21875 1.6875 2.29687 1.71093-.84375.65626-1.89843 1.05469-3.046872 1.05469-.210938 0-.398438-.02343-.585938-.04687 1.07812.70312 2.36719 1.10156 3.77344 1.10156 4.52344 0 6.98436-3.72656 6.98436-6.98438 0-.11718 0-.21093 0-.32812z" fill="#1da1f2"/></svg>