<svg width="12" height="11" viewBox="0 0 12 11" fill="none" xmlns="http://www.w3.org/2000/svg"><path d="M10.7695 3.0625C11.2383 2.71094 11.6602 2.28906 11.9883 1.79688C11.5664 1.98438 11.0742 2.125 10.582 2.17188C11.0977 1.86719 11.4727 1.39844 11.6602 0.8125C11.1914 1.09375 10.6523 1.30469 10.1133 1.42188C9.64453 0.929688 9.01172 0.648438 8.30859 0.648438C6.94922 0.648438 5.84766 1.75 5.84766 3.10938C5.84766 3.29688 5.87109 3.48438 5.91797 3.67188C3.87891 3.55469 2.05078 2.57031 0.832031 1.09375C0.621094 1.44531 0.503906 1.86719 0.503906 2.33594C0.503906 3.17969 0.925781 3.92969 1.60547 4.375C1.20703 4.35156 0.808594 4.25781 0.480469 4.07031V4.09375C0.480469 5.28906 1.32422 6.27344 2.44922 6.50781C2.26172 6.55469 2.02734 6.60156 1.81641 6.60156C1.65234 6.60156 1.51172 6.57812 1.34766 6.55469C1.65234 7.53906 2.56641 8.24219 3.64453 8.26562C2.80078 8.92188 1.74609 9.32031 0.597656 9.32031C0.386719 9.32031 0.199219 9.29688 0.0117188 9.27344C1.08984 9.97656 2.37891 10.375 3.78516 10.375C8.30859 10.375 10.7695 6.64844 10.7695 3.39062C10.7695 3.27344 10.7695 3.17969 10.7695 3.0625Z" fill="#1DA1F2"/></svg>