<svg fill="none" height="9" viewBox="0 0 14 9" width="14" xmlns="http://www.w3.org/2000/svg"><path d="m12.8672 1.42969c-.1406-.562502-.586-1.007815-1.125-1.14844-1.0078-.28125-4.9922-.28125-4.9922-.28125s-4.00781 0-5.01562.28125c-.53907.140625-.98438.585938-1.125005 1.14844-.28125.98437-.28125 3.09375-.28125 3.09375s0 2.08594.28125 3.09375c.140625.5625.585935.98437 1.125005 1.125 1.00781.25781 5.01562.25781 5.01562.25781s3.9844 0 4.9922-.25781c.539-.14063.9844-.5625 1.125-1.125.2812-1.00781.2812-3.09375.2812-3.09375s0-2.10938-.2812-3.09375zm-7.4297 4.99219v-3.79688l3.32812 1.89844z" fill="#f00"/></svg>