<svg fill="none" height="11" viewBox="0 0 12 11" width="12" xmlns="http://www.w3.org/2000/svg"><path d="m10.2119.25h-8.24999c-.63281 0-1.124996.515625-1.124996 1.125v8.25c0 .6328.492186 1.125 1.124996 1.125h8.24999c.6094 0 1.125-.4922 1.125-1.125v-8.25c0-.609375-.5156-1.125-1.125-1.125zm-6.39842 8.27344c-.14063.23437-.42188.30468-.65625.16406-.21094-.11719-.30469-.42188-.16407-.63281l.32813-.58594c.375-.11719.70312-.02344.9375.28125zm3.23437-1.26563h-4.24219c-.25781 0-.46875-.21093-.46875-.46875 0-.25781.21094-.46875.46875-.46875h1.19532l1.52343-2.64843-.49218-.84376c-.11719-.21093-.04688-.49218.1875-.63281.21093-.11719.51562-.04687.63281.16407l.21094.375.21093-.375c.11719-.21094.42188-.28126.63282-.16407.23437.14063.30468.42188.16406.63281l-1.99219 3.49219h1.45313c.46875 0 .72656.5625.51562.9375zm2.32031 0h-.67968l.44531.79688c.14062.23437.04687.51562-.16406.63281-.23438.14062-.51563.04688-.63282-.16406-.77343-1.33594-1.35937-2.34375-1.73437-3-.39844-.67969-.11719-1.35938.16406-1.59375.30469.53906.75 1.33593 1.38281 2.39062h1.21875c.25782 0 .46875.21094.46875.46875 0 .25782-.21093.46875-.46875.46875z" fill="#2072f3"/></svg>