<svg fill="none" height="11" viewBox="0 0 15 11" width="15" xmlns="http://www.w3.org/2000/svg"><path d="m12.4046 1.14062s0 0-.0234 0c-.8672-.398432-1.8282-.70312-2.7891-.867182-.02344 0-.02344-.023438-.02344-.023438l-.02343.023438c-.14063.234374-.25782.492187-.35157.726562-.51562-.070312-1.05468-.117188-1.59375-.117188-.53906 0-1.05468.046876-1.57031.117188-.09375-.234375-.21094-.492188-.35156-.726562h-.02344c-.02344 0-.02344 0-.02344 0-.96093.164062-1.92187.46875-2.78906.867182-.02344 0-.02344 0-.02344 0-1.78125 2.67188-2.273433 5.27344-2.039058 7.85157 0 0 0 .02343.023438.02343 1.00781.77344 2.17969 1.35938 3.44531 1.73438h.04688c.25781-.375.49218-.75.70312-1.14844v-.02344c0-.02343-.02344-.02343-.02344-.04687-.375-.14063-.75-.30469-1.07812-.51563-.02344 0-.02344 0-.02344-.02343 0-.02344 0-.02344.02344-.04688.07031-.04687.14062-.09375.21094-.16406h.02343.02344c2.25 1.03125 4.6875 1.03125 6.9141 0h.0234.0234c.0704.07031.1407.11719.211.16406.0234.02344.0234.02344.0234.04688 0 .02343 0 .02343-.0234.02343-.3516.21094-.7031.375-1.0781.51563-.0235.02344-.0235.02344-.0235.04687v.02344c.211.39844.4453.77344.7031 1.14844h.0469c1.2422-.375 2.4141-.96094 3.4453-1.73438.0235 0 .0235-.02343.0235-.02343.2812-2.97657-.4922-5.55469-2.0391-7.85157zm-7.07812 6.28126c-.67969 0-1.24219-.63282-1.24219-1.38282 0-.77344.5625-1.38281 1.24219-1.38281.70312 0 1.24218.60937 1.24218 1.38281 0 .75-.5625 1.38282-1.24218 1.38282zm4.57031 0c-.67969 0-1.21875-.63282-1.21875-1.38282 0-.77344.53906-1.38281 1.21875-1.38281.70311 0 1.26561.60937 1.24221 1.38281 0 .75-.5391 1.38282-1.24221 1.38282z" fill="#5865f2"/></svg>