<svg fill="none" height="13" viewBox="0 0 12 13" width="12" xmlns="http://www.w3.org/2000/svg"><path d="m4.05469 9.82812c0-.04687-.04688-.09374-.11719-.09374s-.11719.04687-.11719.09374c0 .04688.04688.09376.11719.07032.07031 0 .11719-.02344.11719-.07032zm-.72657-.11718c0 .04687.04688.11718.11719.11718.04688.02344.11719 0 .14063-.04687 0-.04687-.02344-.09375-.09375-.11719s-.14063 0-.16407.04688zm1.05469-.02344c-.07031 0-.11719.04688-.11719.11719 0 .04687.07032.07031.14063.04687s.11719-.04687.09375-.09375c0-.04687-.07031-.09375-.11719-.07031zm1.52344-9c-3.23437 0-5.71875 2.48438-5.71875 5.71875 0 2.60156 1.61719 4.82815 3.96094 5.62495.30468.0469.39844-.1406.39844-.2812 0-.1641 0-.9609 0-1.4531 0 0-1.64063.3515-1.99219-.70315 0 0-.25781-.67969-.63281-.84375 0 0-.53907-.375.02343-.375 0 0 .58594.04688.91407.60938.51562.91406 1.35937.65624 1.71093.49218.04688-.375.1875-.63281.375-.79687-1.3125-.14063-2.64843-.32813-2.64843-2.57813 0-.65625.1875-.96094.5625-1.38281-.07032-.16406-.25782-.77344.07031-1.59375.46875-.14062 1.61719.63281 1.61719.63281.46874-.14062.96093-.1875 1.45312-.1875.51562 0 1.00781.04688 1.47656.1875 0 0 1.125-.79687 1.61719-.63281.32813.82031.11719 1.42969.07031 1.59375.375.42187.60938.72656.60938 1.38281 0 2.25-1.38282 2.4375-2.69532 2.57813.21094.1875.39844.53906.39844 1.10156 0 .77345-.02344 1.75785-.02344 1.94535 0 .164.11719.3515.42188.2812 2.3438-.7734 3.9375-2.99999 3.9375-5.60155 0-3.23437-2.64844-5.71875-5.90625-5.71875zm-3.44531 8.08594c-.04688.02344-.02344.09375 0 .14062.04687.02344.09375.04688.14062.02344.02344-.02344.02344-.09375-.02344-.14062-.04687-.02344-.09374-.04688-.11718-.02344zm-.25782-.1875c-.02343.04687 0 .07031.04688.09375.04688.02343.09375.02343.11719-.02344 0-.02344-.02344-.04687-.07031-.07031-.04688-.02344-.07032-.02344-.09376 0zm.75.84375c-.02343.02343-.02343.09375.04688.14062.04688.04688.11719.07031.14062.02344.02344-.02344.02344-.09375-.02343-.14063-.04688-.04687-.11719-.07031-.16407-.02343zm-.25781-.35157c-.04687.02344-.04687.09376 0 .14063.04688.04687.09375.07031.14063.04687.02344-.02343.02344-.09374 0-.14062-.04688-.04688-.09375-.07031-.14063-.04688z" fill="#6e5494"/></svg>