<svg fill="none" height="11" viewBox="0 0 10 11" width="10" xmlns="http://www.w3.org/2000/svg"><path d="m10.0008 3.71875c0-2.29687-1.50001-2.953125-1.50001-2.953125-1.47656-.6796875-5.36718-.65625-6.82031 0 0 0-1.476562.656255-1.476562 2.953125 0 2.69531-.164062 6.07031 2.460942 6.77345.96093.2344 1.78125.3047 2.4375.2578 1.17187-.0703 1.85156-.4219 1.85156-.4219l-.04688-.86716s-.84375.28125-1.80468.23437c-.9375-.02343-1.94532-.09375-2.10938-1.26562 0-.09375 0-.21094 0-.30469 0-.02344 0-.02344 0-.02344 1.99219.49219 3.70313.21094 4.17188.16406 1.3125-.16406 2.46093-.96093 2.625-1.71093.21094-1.17188.21094-2.83594.21094-2.83594zm-1.78126 2.92969h-1.07812v-2.67188c0-1.17187-1.5-1.21875-1.5.16406v1.45313h-1.10156v-1.47656c0-1.35938-1.5-1.3125-1.5-.14063v2.67188h-1.07813c0-2.85938-.14062-3.46875.42188-4.10156.60937-.67969 1.875-.72657 2.4375.14062l.28125.44531.25781-.44531c.5625-.86719 1.82812-.82031 2.4375-.14062.5625.63281.42187 1.24218.42187 4.10156z" fill="#6364ff"/></svg>