<svg viewBox="0 0 306.94 306.93" xmlns="http://www.w3.org/2000/svg"><g fill="#fff"><path d="m261.57 51.4-25.84 30.79c-2.56 3.05-2.68 7.45-.31 10.66 27.37 37.01 26.99 89.37-3.87 126.14-30.86 36.78-82.36 46.25-123.55 25.72-3.57-1.78-7.88-.9-10.44 2.15l-25.84 30.79c-1.68 2.01-1.2 5.05 1.02 6.43 63.77 39.47 148.75 27.19 198.34-31.92 49.6-59.1 46.93-144.93-3.02-200.88-1.74-1.95-4.82-1.89-6.5.12z"/><path d="m71.21 224.74c2.56-3.05 2.68-7.45.31-10.66-27.37-37.01-26.99-89.37 3.87-126.14 30.86-36.78 82.36-46.25 123.55-25.72 3.57 1.78 7.88.9 10.44-2.15l25.84-30.79c1.68-2.01 1.2-5.05-1.02-6.43-63.78-39.46-148.76-27.18-198.35 31.92-49.6 59.11-46.93 144.93 3.02 200.88 1.74 1.95 4.82 1.89 6.5-.12z"/></g></svg>